Aykiz-ThinItalic.ufo
<glyph name="exclam" format="2">
  <advance width="242"/>
  <unicode hex="0021"/>
  <outline>
    <contour>
      <point x="101.18435922441249" y="194.18767268264483" type="line"/>
      <point x="100.56976357176397" y="190.97672396676688"/>
      <point x="103.03076163728419" y="188.0"/>
      <point x="106.3" y="188.0" type="curve"/>
      <point x="109.11495078308133" y="188.0" type="line"/>
      <point x="111.9598170089533" y="188.0"/>
      <point x="114.41361055991081" y="189.9978170440975"/>
      <point x="114.9903562330774" y="192.7836074654305" type="curve"/>
      <point x="218.50598123307742" y="692.7836074654305" type="line"/>
      <point x="219.27693480157748" y="696.5074586642233"/>
      <point x="216.43339541534547" y="700.0"/>
      <point x="212.63057578308133" y="700.0" type="curve"/>
      <point x="202.9604829194691" y="700.0" type="line"/>
      <point x="200.08171377172022" y="700.0"/>
      <point x="197.60865128442487" y="697.955402628832"/>
      <point x="197.0674613169502" y="695.1279611661072" type="curve"/>
    </contour>
    <contour>
      <point x="74" y="-3" type="curve" smooth="yes"/>
      <point x="88" y="-3"/>
      <point x="100" y="9"/>
      <point x="100" y="23" type="curve" smooth="yes"/>
      <point x="100" y="37"/>
      <point x="88" y="49"/>
      <point x="74" y="49" type="curve" smooth="yes"/>
      <point x="60" y="49"/>
      <point x="48" y="37"/>
      <point x="48" y="23" type="curve" smooth="yes"/>
      <point x="48" y="9"/>
      <point x="60" y="-3"/>
    </contour>
  </outline>
</glyph>
<glyph name="numbersign" format="2">
  <advance width="682"/>
  <unicode hex="0023"/>
  <outline>
    <contour>
      <point x="368.5187319907967" y="7.836055082478723" type="line"/>
      <point x="367.27381211808023" y="3.962971034027441"/>
      <point x="370.16265981419434" y="0.0"/>
      <point x="374.23090335850833" y="0.0" type="curve"/>
      <point x="382.62623949863456" y="0.0" type="line"/>
      <point x="385.232588262644" y="0.0"/>
      <point x="387.5408442172008" y="1.6826264535136843"/>
      <point x="388.3384108663461" y="4.163944917521277" type="curve"/>
      <point x="609.4812680092033" y="692.1639449175212" type="line"/>
      <point x="610.7261878819197" y="696.0370289659726"/>
      <point x="607.8373401858056" y="700.0"/>
      <point x="603.7690966414917" y="700.0" type="curve"/>
      <point x="595.3737605013655" y="700.0" type="line"/>
      <point x="592.7674117373559" y="700.0"/>
      <point x="590.4591557827991" y="698.3173735464864"/>
      <point x="589.6615891336538" y="695.8360550824788" type="curve"/>
    </contour>
    <contour>
      <point x="27.523381660273486" y="217.23606288629904" type="line"/>
      <point x="26.738268592587676" y="213.50677581479147"/>
      <point x="29.583645787463897" y="210.0"/>
      <point x="33.39468037019398" y="210.0" type="curve"/>
      <point x="601.1316354192797" y="210.0" type="line"/>
      <point x="603.9689586955285" y="210.0"/>
      <point x="606.4184157961663" y="211.9874750317898"/>
      <point x="607.0029341292002" y="214.76393711370093" type="curve"/>
      <point x="608.4766183397265" y="221.76393711370096" type="line"/>
      <point x="609.2617314074123" y="225.49322418520853"/>
      <point x="606.4163542125361" y="229.0"/>
      <point x="602.605319629806" y="229.0" type="curve"/>
      <point x="34.868364580720296" y="229.0" type="line"/>
      <point x="32.031041304471515" y="229.0"/>
      <point x="29.581584203833724" y="227.0125249682102"/>
      <point x="28.9970658707998" y="224.23606288629907" type="curve"/>
    </contour>
    <contour>
      <point x="108.51873199079674" y="7.836055082478723" type="line"/>
      <point x="107.27381211808024" y="3.962971034027441"/>
      <point x="110.16265981419436" y="0.0"/>
      <point x="114.23090335850831" y="0.0" type="curve"/>
      <point x="122.62623949863453" y="0.0" type="line"/>
      <point x="125.23258826264404" y="0.0"/>
      <point x="127.54084421720083" y="1.6826264535136843"/>
      <point x="128.33841086634612" y="4.163944917521277" type="curve"/>
      <point x="349.4812680092033" y="692.1639449175212" type="line"/>
      <point x="350.72618788191977" y="696.0370289659726"/>
      <point x="347.83734018580566" y="700.0"/>
      <point x="343.76909664149167" y="700.0" type="curve"/>
      <point x="335.37376050136544" y="700.0" type="line"/>
      <point x="332.767411737356" y="700.0"/>
      <point x="330.4591557827992" y="698.3173735464864"/>
      <point x="329.6615891336539" y="695.8360550824788" type="curve"/>
    </contour>
    <contour>
      <point x="110.52338166027349" y="478.23606288629907" type="line"/>
      <point x="109.73826859258767" y="474.50677581479147"/>
      <point x="112.5836457874639" y="471.0"/>
      <point x="116.39468037019398" y="471.0" type="curve"/>
      <point x="684.1316354192797" y="471.0" type="line"/>
      <point x="686.9689586955285" y="471.0"/>
      <point x="689.4184157961663" y="472.9874750317898"/>
      <point x="690.0029341292002" y="475.76393711370093" type="curve"/>
      <point x="691.4766183397265" y="482.76393711370093" type="line"/>
      <point x="692.2617314074123" y="486.49322418520853"/>
      <point x="689.4163542125361" y="490.0"/>
      <point x="685.605319629806" y="490.0" type="curve"/>
      <point x="117.8683645807203" y="490.0" type="line"/>
      <point x="115.03104130447151" y="490.0"/>
      <point x="112.58158420383373" y="488.0125249682102"/>
      <point x="111.9970658707998" y="485.23606288629907" type="curve"/>
    </contour>
  </outline>
</glyph>
<glyph name="dollar" format="2">
  <advance width="601"/>
  <unicode hex="0024"/>
  <outline>
    <contour>
      <point x="217.43533936216582" y="-112.8233031891709" type="line"/>
      <point x="216.692789048007" y="-116.53605475996498"/>
      <point x="219.53254487459108" y="-120.0"/>
      <point x="223.31882341631135" y="-120.0" type="curve"/>
      <point x="230.08117658368866" y="-120.0" type="line"/>
      <point x="232.9412627039101" y="-120.0"/>
      <point x="235.403751601774" y="-117.98124199113006"/>
      <point x="235.96466063783419" y="-115.1766968108291" type="curve"/>
      <point x="421.56466063783415" y="812.8233031891709" type="line"/>
      <point x="422.30721095199294" y="816.536054759965"/>
      <point x="419.46745512540895" y="820.0"/>
      <point x="415.6811765836887" y="820.0" type="curve"/>
      <point x="408.91882341631134" y="820.0" type="line"/>
      <point x="406.0587372960899" y="820.0"/>
      <point x="403.596248398226" y="817.98124199113"/>
      <point x="403.0353393621658" y="815.1766968108291" type="curve"/>
    </contour>
    <contour>
      <point x="263" y="-3" type="curve" smooth="yes"/>
      <point x="410" y="-3"/>
      <point x="527" y="63"/>
      <point x="527" y="195" type="curve" smooth="yes"/>
      <point x="527" y="403"/>
      <point x="150" y="312"/>
      <point x="150" y="505" type="curve" smooth="yes"/>
      <point x="150" y="618"/>
      <point x="250" y="684"/>
      <point x="388" y="684" type="curve" smooth="yes"/>
      <point x="458.6266166253022" y="684.0"/>
      <point x="523.6370362426057" y="664.343310472005"/>
      <point x="572.1640535648947" y="627.7467327377689" type="curve"/>
      <point x="574.8461103407842" y="625.7240636205926"/>
      <point x="578.675522674927" y="626.1910681133662"/>
      <point x="580.7161047239392" y="628.8595215620744" type="curve"/>
      <point x="586.4692922189818" y="636.3829205940531" type="line"/>
      <point x="588.4371317410717" y="638.956249199863"/>
      <point x="588.0122161322001" y="642.6347350828926"/>
      <point x="585.442411394665" y="644.6071742097404" type="curve"/>
      <point x="536.3072001481595" y="682.3206283694905"/>
      <point x="461.68361435520455" y="703.0"/>
      <point x="388" y="703" type="curve" smooth="yes"/>
      <point x="242" y="703"/>
      <point x="131" y="633"/>
      <point x="131" y="503" type="curve" smooth="yes"/>
      <point x="131" y="292"/>
      <point x="507" y="384"/>
      <point x="507" y="194" type="curve" smooth="yes"/>
      <point x="507" y="79"/>
      <point x="406" y="16"/>
      <point x="264" y="16" type="curve" smooth="yes"/>
      <point x="175.99620945010656" y="16.0"/>
      <point x="85.18671892998627" y="52.47409961294905"/>
      <point x="45.837953170559125" y="102.81128853429713" type="curve"/>
      <point x="43.69120301228667" y="105.55753396787863"/>
      <point x="39.69638421528079" y="106.12831217491564"/>
      <point x="36.99105072177162" y="103.93022871143944" type="curve"/>
      <point x="30.271989105856633" y="98.47099114850852" type="line"/>
      <point x="27.855421739445823" y="96.50753016329973"/>
      <point x="27.33096382039649" y="93.01190586286253"/>
      <point x="29.19525629709625" y="90.51803528920411" type="curve"/>
      <point x="69.37167510604174" y="36.77389917598298"/>
      <point x="166.65933635273495" y="-3.0"/>
    </contour>
  </outline>
</glyph>
<glyph name="percent" format="2">
  <advance width="800"/>
  <unicode hex="0025"/>
  <outline>
    <contour>
      <point x="105.13478126483386" y="8.107705982765758" type="line"/>
      <point x="102.35935682125594" y="4.953814569609038"/>
      <point x="104.5988082776439" y="0.0"/>
      <point x="108.8" y="0.0" type="curve"/>
      <point x="119.28760361343357" y="0.0" type="line"/>
      <point x="121.01186605762865" y="0.0"/>
      <point x="122.65278884622013" y="0.7418055070683409"/>
      <point x="123.79188471497011" y="2.036232630647852" type="curve"/>
      <point x="730.8652187351661" y="691.8922940172342" type="line"/>
      <point x="733.640643178744" y="695.046185430391"/>
      <point x="731.4011917223562" y="700.0"/>
      <point x="727.2" y="700.0" type="curve"/>
      <point x="716.7123963865664" y="700.0" type="line"/>
      <point x="714.9881339423713" y="700.0"/>
      <point x="713.3472111537799" y="699.2581944929317"/>
      <point x="712.2081152850299" y="697.9637673693521" type="curve"/>
    </contour>
    <contour>
      <point x="223" y="328" type="curve" smooth="yes"/>
      <point x="334" y="328"/>
      <point x="403" y="442"/>
      <point x="403" y="558" type="curve" smooth="yes"/>
      <point x="403" y="647"/>
      <point x="355" y="702"/>
      <point x="277" y="702" type="curve" smooth="yes"/>
      <point x="166" y="702"/>
      <point x="97" y="588"/>
      <point x="97" y="472" type="curve" smooth="yes"/>
      <point x="97" y="383"/>
      <point x="145" y="328"/>
    </contour>
    <contour>
      <point x="224" y="346" type="curve" smooth="yes"/>
      <point x="156" y="346"/>
      <point x="117" y="394"/>
      <point x="117" y="474" type="curve" smooth="yes"/>
      <point x="117" y="574"/>
      <point x="175" y="684"/>
      <point x="276" y="684" type="curve" smooth="yes"/>
      <point x="344" y="684"/>
      <point x="383" y="636"/>
      <point x="383" y="556" type="curve" smooth="yes"/>
      <point x="383" y="456"/>
      <point x="325" y="346"/>
    </contour>
    <contour>
      <point x="559" y="-3" type="curve" smooth="yes"/>
      <point x="670" y="-3"/>
      <point x="739" y="111"/>
      <point x="739" y="227" type="curve" smooth="yes"/>
      <point x="739" y="316"/>
      <point x="691" y="371"/>
      <point x="613" y="371" type="curve" smooth="yes"/>
      <point x="502" y="371"/>
      <point x="433" y="257"/>
      <point x="433" y="141" type="curve" smooth="yes"/>
      <point x="433" y="52"/>
      <point x="481" y="-3"/>
    </contour>
    <contour>
      <point x="560" y="15" type="curve" smooth="yes"/>
      <point x="492" y="15"/>
      <point x="453" y="63"/>
      <point x="453" y="143" type="curve" smooth="yes"/>
      <point x="453" y="243"/>
      <point x="511" y="353"/>
      <point x="612" y="353" type="curve" smooth="yes"/>
      <point x="680" y="353"/>
      <point x="719" y="305"/>
      <point x="719" y="225" type="curve" smooth="yes"/>
      <point x="719" y="125"/>
      <point x="661" y="15"/>
    </contour>
  </outline>
</glyph>
<glyph name="ampersand" format="2">
  <advance width="634"/>
  <unicode hex="0026"/>
  <outline>
    <contour>
      <point x="223" y="-3" type="curve" smooth="yes"/>
      <point x="379.2595268446157" y="-3.0"/>
      <point x="502.2639923685333" y="86.00619353480971"/>
      <point x="579.4382919714005" y="279.4956324202474" type="curve"/>
      <point x="580.8002571739356" y="282.91031689650555"/>
      <point x="578.764555772638" y="286.7189876060804"/>
      <point x="575.1758208454289" y="287.51648425657135" type="curve"/>
      <point x="569.0297196078258" y="288.8822845315943" type="line"/>
      <point x="566.1367254617837" y="289.5251721196036"/>
      <point x="563.2101453046326" y="287.95858945896737"/>
      <point x="562.1190606906359" y="285.203184961448" type="curve"/>
      <point x="488.98139890702737" y="100.5027138601288"/>
      <point x="371.72697291751365" y="14.0"/>
      <point x="224" y="14" type="curve" smooth="yes"/>
      <point x="118" y="14"/>
      <point x="55" y="68"/>
      <point x="55" y="147" type="curve" smooth="yes"/>
      <point x="55" y="229"/>
      <point x="105" y="287"/>
      <point x="284" y="377" type="curve" smooth="yes"/>
      <point x="451" y="461"/>
      <point x="505" y="509"/>
      <point x="505" y="593" type="curve" smooth="yes"/>
      <point x="505" y="658"/>
      <point x="454" y="703"/>
      <point x="374" y="703" type="curve" smooth="yes"/>
      <point x="270" y="703"/>
      <point x="204" y="641"/>
      <point x="204" y="545" type="curve" smooth="yes"/>
      <point x="204" y="497"/>
      <point x="226" y="452"/>
      <point x="263" y="400" type="curve" smooth="yes"/>
      <point x="556.4595191097245" y="-5.1124674578687985" type="line"/>
      <point x="558.4115188963802" y="-7.807147298033339"/>
      <point x="562.1835379346312" y="-8.39873884793709"/>
      <point x="564.8667713535509" y="-6.431034340729302" type="curve"/>
      <point x="570.1884041138836" y="-2.528503649818655" type="line"/>
      <point x="572.8500927671479" y="-0.5765986374248446"/>
      <point x="573.435382262726" y="3.1586420985441386"/>
      <point x="571.4983101814931" y="5.831144936041644" type="curve"/>
      <point x="280" y="408" type="line" smooth="yes"/>
      <point x="242" y="460"/>
      <point x="224" y="504"/>
      <point x="224" y="547" type="curve" smooth="yes"/>
      <point x="224" y="630"/>
      <point x="283" y="684"/>
      <point x="374" y="684" type="curve" smooth="yes"/>
      <point x="446" y="684"/>
      <point x="486" y="644"/>
      <point x="486" y="593" type="curve" smooth="yes"/>
      <point x="486" y="515"/>
      <point x="434" y="474"/>
      <point x="274" y="393" type="curve" smooth="yes"/>
      <point x="92" y="301"/>
      <point x="35" y="234"/>
      <point x="35" y="147" type="curve" smooth="yes"/>
      <point x="35" y="57"/>
      <point x="107" y="-3"/>
    </contour>
  </outline>
</glyph>
<glyph name="quotesingle" format="2">
  <advance width="184"/>
  <unicode hex="0027"/>
  <outline>
    <contour>
      <point x="122.36921649907103" y="457.1313359326616" type="line"/>
      <point x="121.65884382129993" y="453.4314782359371"/>
      <point x="124.49415484267298" y="450.0"/>
      <point x="128.26159114835028" y="450.0" type="curve"/>
      <point x="134.1195822596693" y="450.0" type="line"/>
      <point x="136.96235625220183" y="450.0"/>
      <point x="139.4149487689974" y="451.9949460047952"/>
      <point x="139.99385544491358" y="454.77815117746917" type="curve"/>
      <point x="189.4978554449136" y="692.7781511774692" type="line"/>
      <point x="190.2727310169261" y="696.5035145044524"/>
      <point x="187.42867937671278" y="700.0"/>
      <point x="183.6235822596693" y="700.0" type="curve"/>
      <point x="173.95759114835028" y="700.0" type="line"/>
      <point x="171.08011565793734" y="700.0"/>
      <point x="168.60778173534723" y="697.9571965382669"/>
      <point x="168.06521649907103" y="695.1313359326616" type="curve"/>
    </contour>
  </outline>
</glyph>
<glyph name="parenleft" format="2">
  <advance width="311"/>
  <unicode hex="0028"/>
  <outline>
    <contour>
      <point x="142.63614623402538" y="-189.91480734433185" type="curve"/>
      <point x="143.4429438957873" y="-192.35908898661978"/>
      <point x="145.73285086505038" y="-194.0"/>
      <point x="148.30684294232069" y="-194.0" type="curve"/>
      <point x="153.35" y="-194.0" type="line"/>
      <point x="157.14749980501557" y="-194.0"/>
      <point x="159.85815866221455" y="-190.32055364308644"/>
      <point x="158.75834156861654" y="-186.6858037026197" type="curve"/>
      <point x="133.3347708678013" y="-102.66426718609685"/>
      <point x="122.0" y="-27.610390548982195"/>
      <point x="122" y="55" type="curve" smooth="yes"/>
      <point x="122.0" y="292.5789762043182"/>
      <point x="213.35025867019246" y="570.9740254314884"/>
      <point x="343.35988031014847" y="734.9865094366105" type="curve"/>
      <point x="345.5971309881993" y="737.8088931680658"/>
      <point x="343.601546962629" y="742.0"/>
      <point x="340.0" y="742.0" type="curve"/>
      <point x="331.86497144830975" y="742.0" type="line"/>
      <point x="330.0529762810827" y="742.0"/>
      <point x="328.3367974632752" y="741.182109925687"/>
      <point x="327.2035803537066" y="739.7681985180537" type="curve"/>
      <point x="193.20218150711082" y="572.5750765044498"/>
      <point x="104.0" y="300.9027787011978"/>
      <point x="104" y="55" type="curve" smooth="yes"/>
      <point x="104.0" y="-24.572060646048612"/>
      <point x="117.51074221862797" y="-113.79465144826007"/>
    </contour>
  </outline>
</glyph>
<glyph name="parenright" format="2">
  <advance width="311"/>
  <unicode hex="0029"/>
  <outline>
    <contour>
      <point x="38.64011968985159" y="-186.9865094366106" type="curve"/>
      <point x="36.40286901180075" y="-189.80889316806582"/>
      <point x="38.39845303737101" y="-194.0"/>
      <point x="42.0" y="-194.0" type="curve"/>
      <point x="50.135028551690255" y="-194.0" type="line"/>
      <point x="51.94702371891733" y="-194.0"/>
      <point x="53.66320253672478" y="-193.18210992568694"/>
      <point x="54.79641964629338" y="-191.76819851805377" type="curve"/>
      <point x="188.79781849288918" y="-24.57507650444984"/>
      <point x="278.0" y="247.0972212988022"/>
      <point x="278" y="493" type="curve" smooth="yes"/>
      <point x="278.0" y="572.5720606460486"/>
      <point x="264.48925778137203" y="661.7946514482601"/>
      <point x="239.36385376597462" y="737.9148073443318" type="curve"/>
      <point x="238.5570561042127" y="740.3590889866198"/>
      <point x="236.26714913494962" y="742.0"/>
      <point x="233.69315705767931" y="742.0" type="curve"/>
      <point x="228.65" y="742.0" type="line"/>
      <point x="224.85250019498443" y="742.0"/>
      <point x="222.14184133778545" y="738.3205536430864"/>
      <point x="223.24165843138346" y="734.6858037026198" type="curve"/>
      <point x="248.6652291321987" y="650.6642671860968"/>
      <point x="260.0" y="575.6103905489822"/>
      <point x="260" y="493" type="curve" smooth="yes"/>
      <point x="260.0" y="255.42102379568178"/>
      <point x="168.64974132980754" y="-22.97402543148837"/>
    </contour>
  </outline>
</glyph>
<glyph name="asterisk" format="2">
  <advance width="358"/>
  <unicode hex="002A"/>
  <outline>
    <contour>
      <point x="405.1050917162546" y="645.4755818914017" type="line"/>
      <point x="407.8736079273688" y="646.9033701260644"/>
      <point x="409.08904940082095" y="650.2123085980062"/>
      <point x="407.9030115417583" y="653.0926862557299" type="curve"/>
      <point x="405.50118743233804" y="658.9256876643219" type="line"/>
      <point x="404.15798033551124" y="662.1877620423298"/>
      <point x="400.3039180529648" y="663.5926113106672"/>
      <point x="397.1765796225711" y="661.9601013124113" type="curve"/>
      <point x="247.40836061101365" y="583.7792071114096" type="line"/>
      <point x="246.0921763335237" y="583.0921423627829"/>
      <point x="246.20981159574114" y="581.1713206515971"/>
      <point x="247.6" y="580.65" type="curve"/>
      <point x="248.4" y="580.35" type="line"/>
      <point x="250.28466014986967" y="579.6432524437989"/>
      <point x="252.35291664179698" y="580.7976691441534"/>
      <point x="252.74066950078296" y="582.7727852696131" type="curve"/>
      <point x="282.59517040015754" y="734.8441492258024" type="line"/>
      <point x="283.3228962853638" y="738.5510029535718"/>
      <point x="280.4851671353186" y="742.0"/>
      <point x="276.7075555190884" y="742.0" type="curve"/>
      <point x="270.93661626005274" y="742.0" type="line"/>
      <point x="268.0685384043006" y="742.0"/>
      <point x="265.60151304732193" y="739.9702070847961"/>
      <point x="265.0490013789836" y="737.1558507741976" type="curve"/>
      <point x="234.77536827088548" y="582.949532129823" type="line"/>
      <point x="234.45900833848725" y="581.3380737241694"/>
      <point x="236.13115506605263" y="580.0655775330263"/>
      <point x="237.6" y="580.8" type="curve"/>
      <point x="238.4" y="581.2" type="line"/>
      <point x="239.99725442576616" y="581.9986272128831"/>
      <point x="240.12775899628483" y="584.2281900984372"/>
      <point x="238.6345861900341" y="585.2077114593376" type="curve"/>
      <point x="121.76174336934054" y="661.8762963497126" type="line"/>
      <point x="119.09266959809192" y="663.6272087436517"/>
      <point x="115.51995699219415" y="662.9817595348102"/>
      <point x="113.63225146235015" y="660.4076156304775" type="curve"/>
      <point x="109.75196704830998" y="655.1163187022408" type="line"/>
      <point x="107.71456418736855" y="652.3380420736844"/>
      <point x="108.43005127808827" y="648.4185380571172"/>
      <point x="111.31766170567454" y="646.5392995248785" type="curve"/>
      <point x="228.58464567976566" y="570.2226909068191" type="line"/>
      <point x="230.15159104022032" y="569.2029328150948"/>
      <point x="232.24354252997205" y="570.1918827697485"/>
      <point x="232.45" y="572.05" type="curve"/>
      <point x="232.55" y="572.95" type="line"/>
      <point x="232.74249820462168" y="574.6824838415952"/>
      <point x="230.927591350725" y="575.9312106337072"/>
      <point x="229.37834023330345" y="575.1322257806974" type="curve"/>
      <point x="79.26636455717697" y="497.71598675275794" type="line"/>
      <point x="76.3472443249296" y="496.21052851977504"/>
      <point x="75.18109569621626" y="492.6378086075675"/>
      <point x="76.64995017652205" y="489.7000996469559" type="curve"/>
      <point x="79.27596205266151" y="484.44807589467695" type="line"/>
      <point x="80.7737184054002" y="481.4525631891996"/>
      <point x="84.43379998650968" y="480.26311138540376"/>
      <point x="87.40639568324265" y="481.80585092421455" type="curve"/>
      <point x="236.06623824981799" y="558.9584274461081" type="line"/>
      <point x="237.65259612974432" y="559.7817271053103"/>
      <point x="237.58323297690927" y="562.0741186769292"/>
      <point x="235.95" y="562.8" type="curve"/>
      <point x="235.05" y="563.2" type="line"/>
      <point x="232.97143179650936" y="564.1238080904403"/>
      <point x="230.5719163230485" y="562.8855260805122"/>
      <point x="230.12056866754236" y="560.6561422063456" type="curve"/>
      <point x="199.45575949791413" y="409.1905696412123" type="line"/>
      <point x="198.70330882485942" y="405.4739193470329"/>
      <point x="201.54439824692636" y="402.0"/>
      <point x="205.33645196814447" y="402.0" type="curve"/>
      <point x="211.09299588461627" y="402.0" type="line"/>
      <point x="213.947763258147" y="402.0"/>
      <point x="216.40722179357175" y="404.0114288591575"/>
      <point x="216.9736883548466" y="406.8094303587877" type="curve"/>
      <point x="248.23708263948157" y="561.2316506131968" type="line"/>
      <point x="248.56921529954624" y="562.8721846613951"/>
      <point x="246.96724389574817" y="564.2377164609055"/>
      <point x="245.4" y="563.65" type="curve"/>
      <point x="244.6" y="563.35" type="line"/>
      <point x="243.1081318432145" y="562.7905494412055"/>
      <point x="242.8870592522999" y="560.7719138199318"/>
      <point x="244.22248028753316" y="559.9028302890657" type="curve"/>
      <point x="362.24430004397675" y="483.0949793364596" type="line"/>
      <point x="364.91265715134034" y="481.35842947293725"/>
      <point x="368.472760401125" y="482.0083096378978"/>
      <point x="370.3554653368806" y="484.5756345502918" type="curve"/>
      <point x="374.24803295169" y="489.8836812977591" type="line"/>
      <point x="376.2854358126314" y="492.6619579263156"/>
      <point x="375.5699487219117" y="496.58146194288287"/>
      <point x="372.68233829432546" y="498.46070047512154" type="curve"/>
      <point x="256.1658991741524" y="574.2888592676151" type="line"/>
      <point x="254.2751263661756" y="575.5193622061397"/>
      <point x="251.75424108410226" y="574.2966519251247"/>
      <point x="251.55" y="572.05" type="curve"/>
      <point x="251.45" y="570.95" type="line"/>
      <point x="251.25508376523942" y="568.8059214176335"/>
      <point x="253.50409581721993" y="567.2914204843524"/>
      <point x="255.41754149540387" y="568.2782289473153" type="curve"/>
    </contour>
  </outline>
</glyph>
<glyph name="plus" format="2">
  <advance width="560"/>
  <unicode hex="002B"/>
  <outline>
    <contour>
      <point x="249.43533936216582" y="157.1766968108291" type="line"/>
      <point x="248.692789048007" y="153.463945240035"/>
      <point x="251.53254487459108" y="150.0"/>
      <point x="255.31882341631135" y="150.0" type="curve"/>
      <point x="263.08117658368866" y="150.0" type="line"/>
      <point x="265.9412627039101" y="150.0"/>
      <point x="268.403751601774" y="152.01875800886992"/>
      <point x="268.9646606378342" y="154.8233031891709" type="curve"/>
      <point x="346.56466063783415" y="542.8233031891709" type="line"/>
      <point x="347.30721095199294" y="546.536054759965"/>
      <point x="344.46745512540895" y="550.0"/>
      <point x="340.6811765836887" y="550.0" type="curve"/>
      <point x="332.91882341631134" y="550.0" type="line"/>
      <point x="330.0587372960899" y="550.0"/>
      <point x="327.596248398226" y="547.98124199113"/>
      <point x="327.0353393621658" y="545.1766968108291" type="curve"/>
    </contour>
    <contour>
      <point x="92.52338166027349" y="347.23606288629907" type="line"/>
      <point x="91.73826859258767" y="343.50677581479147"/>
      <point x="94.58364578746391" y="340.0"/>
      <point x="98.39468037019398" y="340.0" type="curve"/>
      <point x="497.1316354192797" y="340.0" type="line"/>
      <point x="499.96895869552844" y="340.0"/>
      <point x="502.41841579616624" y="341.9874750317898"/>
      <point x="503.0029341292002" y="344.76393711370093" type="curve"/>
      <point x="504.47661833972654" y="351.76393711370093" type="line"/>
      <point x="505.26173140741236" y="355.49322418520853"/>
      <point x="502.41635421253613" y="359.0"/>
      <point x="498.60531962980605" y="359.0" type="curve"/>
      <point x="99.8683645807203" y="359.0" type="line"/>
      <point x="97.03104130447151" y="359.0"/>
      <point x="94.58158420383373" y="357.0125249682102"/>
      <point x="93.9970658707998" y="354.23606288629907" type="curve"/>
    </contour>
  </outline>
</glyph>
<glyph name="comma" format="2">
  <advance width="182"/>
  <unicode hex="002C"/>
  <outline>
    <contour>
      <point x="-14.91338177003359" y="-132.51115576991756" type="line"/>
      <point x="-16.384462947580758" y="-136.08033633183527"/>
      <point x="-13.760457189829312" y="-140.0"/>
      <point x="-9.9" y="-140.0" type="curve"/>
      <point x="-3.8610945153485146" y="-140.0" type="line"/>
      <point x="-1.5094550162256013" y="-140.0"/>
      <point x="0.6253892636053204" y="-138.6261940766703"/>
      <point x="1.599707861253318" y="-136.48588764905008" type="curve"/>
      <point x="61" y="-6" type="line" smooth="yes"/>
      <point x="66" y="5"/>
      <point x="70" y="12"/>
      <point x="70" y="23" type="curve" smooth="yes"/>
      <point x="70" y="37"/>
      <point x="58" y="49"/>
      <point x="44" y="49" type="curve" smooth="yes"/>
      <point x="30" y="49"/>
      <point x="18" y="37"/>
      <point x="18" y="23" type="curve" smooth="yes"/>
      <point x="18" y="9"/>
      <point x="30" y="-3"/>
      <point x="44" y="-3" type="curve"/>
      <point x="43.45" y="3.05" type="line"/>
      <point x="43.33446369977283" y="4.320899302498841"/>
      <point x="41.592245893579054" y="4.584465446716398"/>
      <point x="41.105954851543856" y="3.404611770958872" type="curve"/>
    </contour>
  </outline>
</glyph>
<glyph name="hyphen" format="2">
  <advance width="380"/>
  <unicode hex="002D"/>
  <outline>
    <contour>
      <point x="65.52338166027349" y="262.23606288629907" type="line"/>
      <point x="64.73826859258767" y="258.50677581479147"/>
      <point x="67.5836457874639" y="255.0"/>
      <point x="71.39468037019398" y="255.0" type="curve"/>
      <point x="309.1316354192797" y="255.0" type="line"/>
      <point x="311.9689586955285" y="255.0"/>
      <point x="314.4184157961663" y="256.9874750317898"/>
      <point x="315.0029341292002" y="259.76393711370093" type="curve"/>
      <point x="316.47661833972654" y="266.76393711370093" type="line"/>
      <point x="317.2617314074123" y="270.49322418520853"/>
      <point x="314.4163542125361" y="274.0"/>
      <point x="310.60531962980605" y="274.0" type="curve"/>
      <point x="72.8683645807203" y="274.0" type="line"/>
      <point x="70.03104130447151" y="274.0"/>
      <point x="67.58158420383373" y="272.0125249682102"/>
      <point x="66.9970658707998" y="269.23606288629907" type="curve"/>
    </contour>
  </outline>
</glyph>
<glyph name="one" format="2">
  <advance width="342"/>
  <unicode hex="0031"/>
  <outline>
    <contour>
      <point x="139.43775146181318" y="7.178338820212154" type="line"/>
      <point x="138.6940307805523" y="3.465124694206755"/>
      <point x="141.53394508598473" y="0.0"/>
      <point x="145.320906875771" y="0.0" type="curve"/>
      <point x="152.08117658368866" y="0.0" type="line"/>
      <point x="154.9412627039101" y="0.0"/>
      <point x="157.403751601774" y="2.0187580088699324"/>
      <point x="157.96466063783419" y="4.823303189170896" type="curve"/>
      <point x="295.56466063783415" y="692.8233031891709" type="line"/>
      <point x="296.30721095199294" y="696.536054759965"/>
      <point x="293.46745512540895" y="700.0"/>
      <point x="289.6811765836887" y="700.0" type="curve"/>
      <point x="102.8683645807203" y="700.0" type="line"/>
      <point x="100.03104130447151" y="700.0"/>
      <point x="97.58158420383373" y="698.0125249682102"/>
      <point x="96.9970658707998" y="695.236062886299" type="curve"/>
      <point x="95.52338166027349" y="688.236062886299" type="line"/>
      <point x="94.73826859258767" y="684.5067758147915"/>
      <point x="97.58364578746391" y="681.0"/>
      <point x="101.39468037019398" y="681.0" type="curve"/>
      <point x="283" y="681" type="line"/>
      <point x="276" y="689" type="line"/>
    </contour>
  </outline>
</glyph>
<glyph name="two" format="2">
  <advance width="555"/>
  <unicode hex="0032"/>
  <outline>
    <contour>
      <point x="-7.65" y="6.75" type="line"/>
      <point x="-8.348401333188404" y="3.2579933340579803"/>
      <point x="-5.677485682896628" y="0.0"/>
      <point x="-2.1163236566497403" y="0.0" type="curve"/>
      <point x="454.1316354192797" y="0.0" type="line"/>
      <point x="456.9689586955285" y="0.0"/>
      <point x="459.4184157961663" y="1.9874750317898047"/>
      <point x="460.0029341292002" y="4.763937113700948" type="curve"/>
      <point x="461.47661833972654" y="11.763937113700951" type="line"/>
      <point x="462.2617314074123" y="15.493224185208533"/>
      <point x="459.4163542125361" y="19.0"/>
      <point x="455.60531962980605" y="19.0" type="curve"/>
      <point x="12.689730936293326" y="19.0" type="line"/>
      <point x="10.32577323515696" y="19.0"/>
      <point x="9.200812965116251" y="16.0901700317125"/>
      <point x="10.95" y="14.5" type="curve"/>
      <point x="13.153391797674425" y="12.496916547568704" type="line"/>
      <point x="15.361101747017047" y="10.489907502711775"/>
      <point x="18.70811332773718" y="10.410021528159778"/>
      <point x="21.009060797408644" y="12.309418608387189" type="curve"/>
      <point x="378" y="307" type="line" smooth="yes"/>
      <point x="494" y="403"/>
      <point x="530" y="471"/>
      <point x="530" y="549" type="curve" smooth="yes"/>
      <point x="530" y="641"/>
      <point x="466" y="703"/>
      <point x="332" y="703" type="curve" smooth="yes"/>
      <point x="241" y="703"/>
      <point x="154" y="671"/>
      <point x="98" y="613" type="curve"/>
      <point x="113" y="599" type="line"/>
      <point x="164" y="654"/>
      <point x="246" y="684"/>
      <point x="331" y="684" type="curve" smooth="yes"/>
      <point x="454" y="684"/>
      <point x="510" y="631"/>
      <point x="510" y="548" type="curve" smooth="yes"/>
      <point x="510" y="475"/>
      <point x="477" y="415"/>
      <point x="364" y="321" type="curve" smooth="yes"/>
      <point x="-4.35821521661404" y="16.357800388421904" type="line"/>
      <point x="-5.420254977774224" y="15.4794648021651"/>
      <point x="-6.147542795266425" y="14.262286023667876"/>
      <point x="-6.4178276774790675" y="12.910861612604661" type="curve"/>
    </contour>
  </outline>
</glyph>
<glyph name="three" format="2">
  <advance width="548"/>
  <unicode hex="0033"/>
  <outline>
    <contour>
      <point x="215" y="-3" type="curve" smooth="yes"/>
      <point x="375" y="-3"/>
      <point x="480" y="85"/>
      <point x="480" y="216" type="curve" smooth="yes"/>
      <point x="480" y="325"/>
      <point x="405" y="387"/>
      <point x="260" y="387" type="curve" smooth="yes"/>
      <point x="257.25" y="387.0" type="line"/>
      <point x="256.1848709428673" y="387.0"/>
      <point x="255.46674353072112" y="385.9109317616507"/>
      <point x="255.88631842180314" y="384.93192368245934" type="curve"/>
      <point x="256.65" y="383.15" type="line"/>
      <point x="257.2893585479132" y="381.6581633882025"/>
      <point x="259.2453322122022" y="381.3052451021363"/>
      <point x="260.36574784870226" y="382.47956389640615" type="curve"/>
      <point x="547.7988619266961" y="683.7410752152657" type="line"/>
      <point x="548.5834573668129" y="684.5634175150444"/>
      <point x="549.1183398026923" y="685.5916990134614"/>
      <point x="549.3412434437104" y="686.706217218552" type="curve"/>
      <point x="550.65" y="693.25" type="line"/>
      <point x="551.3484013331883" y="696.742006665942"/>
      <point x="548.6774856828966" y="700.0"/>
      <point x="545.1163236566497" y="700.0" type="curve"/>
      <point x="133.86836458072028" y="700.0" type="line"/>
      <point x="131.0310413044715" y="700.0"/>
      <point x="128.58158420383373" y="698.0125249682102"/>
      <point x="127.9970658707998" y="695.236062886299" type="curve"/>
      <point x="126.52338166027349" y="688.236062886299" type="line"/>
      <point x="125.73826859258767" y="684.5067758147915"/>
      <point x="128.5836457874639" y="681.0"/>
      <point x="132.39468037019398" y="681.0" type="curve"/>
      <point x="524.9813082303752" y="681.0" type="line"/>
      <point x="526.368201957222" y="681.0"/>
      <point x="527.2702377301595" y="682.4595245396811"/>
      <point x="526.65" y="683.7" type="curve"/>
      <point x="526.35" y="684.3" type="line"/>
      <point x="525.6927761711054" y="685.6144476577892"/>
      <point x="523.9307385672089" y="685.8791190497637"/>
      <point x="522.916350194371" y="684.8157602037545" type="curve"/>
      <point x="236.20086110509837" y="384.2588337101721" type="line"/>
      <point x="235.41644199757002" y="383.4365460940044"/>
      <point x="234.8816789846466" y="382.40839492323306"/>
      <point x="234.65880697412192" y="381.29403487060966" type="curve"/>
      <point x="233.35" y="374.75" type="line"/>
      <point x="232.6515986668116" y="371.25799333405797"/>
      <point x="235.32251431710338" y="368.0"/>
      <point x="238.88367634335026" y="368.0" type="curve"/>
      <point x="260" y="368" type="line" smooth="yes"/>
      <point x="396" y="368"/>
      <point x="460" y="314"/>
      <point x="460" y="216" type="curve" smooth="yes"/>
      <point x="460" y="96"/>
      <point x="366" y="16"/>
      <point x="216" y="16" type="curve" smooth="yes"/>
      <point x="109" y="16"/>
      <point x="33" y="56"/>
      <point x="2" y="109" type="curve"/>
      <point x="-15" y="96" type="line"/>
      <point x="19" y="38"/>
      <point x="105" y="-3"/>
    </contour>
  </outline>
</glyph>
<glyph name="four" format="2">
  <advance width="644"/>
  <unicode hex="0034"/>
  <guideline x="598" y="239" angle="90"/>
  <outline>
    <contour>
      <point x="37.35" y="214.75" type="line"/>
      <point x="36.651598666811594" y="211.25799333405797"/>
      <point x="39.32251431710337" y="208.0"/>
      <point x="42.88367634335026" y="208.0" type="curve"/>
      <point x="612.1316354192797" y="208.0" type="line"/>
      <point x="614.9689586955285" y="208.0"/>
      <point x="617.4184157961663" y="209.98747503178978"/>
      <point x="618.0029341292002" y="212.76393711370093" type="curve"/>
      <point x="619.4766183397265" y="219.76393711370096" type="line"/>
      <point x="620.2617314074123" y="223.49322418520853"/>
      <point x="617.416354212536" y="227.0"/>
      <point x="613.605319629806" y="227.0" type="curve"/>
      <point x="50" y="227" type="line"/>
      <point x="66" y="223" type="line"/>
      <point x="543.3287383248284" y="691.4893172447389" type="line"/>
      <point x="546.5024350068228" y="694.6042417659556"/>
      <point x="544.2969208900295" y="700.0"/>
      <point x="539.85" y="700.0" type="curve"/>
      <point x="527.4524977077858" y="700.0" type="line"/>
      <point x="525.8806203551106" y="700.0"/>
      <point x="524.3715152645558" y="699.3831538707678"/>
      <point x="523.2496914088914" y="698.282104530949" type="curve"/>
      <point x="40.31839159922275" y="224.29397693997788" type="line"/>
      <point x="39.45936047095278" y="223.45085379556477"/>
      <point x="38.87377047961244" y="222.3688523980622"/>
      <point x="38.6377138439716" y="221.188569219858" type="curve"/>
    </contour>
    <contour>
      <point x="400.4513362466947" y="7.187569983630919" type="line"/>
      <point x="399.70102864529554" y="3.471760910034826"/>
      <point x="402.5418307381876" y="0.0"/>
      <point x="406.33263521324784" y="0.0" type="curve"/>
      <point x="414.08117658368866" y="0.0" type="line"/>
      <point x="416.9412627039101" y="0.0"/>
      <point x="419.403751601774" y="2.0187580088699324"/>
      <point x="419.9646606378342" y="4.823303189170896" type="curve"/>
      <point x="499.56466063783415" y="402.8233031891709" type="line"/>
      <point x="500.30721095199294" y="406.53605475996494"/>
      <point x="497.46745512540895" y="410.0"/>
      <point x="493.6811765836887" y="410.0" type="curve"/>
      <point x="485.90829418556666" y="410.0" type="line"/>
      <point x="483.05294588326234" y="410.0"/>
      <point x="480.59315592784304" y="407.9877712106834"/>
      <point x="480.02729516151356" y="405.18905444748617" type="curve"/>
      <point x="444" y="227" type="line"/>
      <point x="441" y="208" type="line"/>
    </contour>
  </outline>
</glyph>
<glyph name="five" format="2">
  <advance width="548"/>
  <unicode hex="0035"/>
  <outline>
    <contour>
      <point x="230" y="-3" type="curve" smooth="yes"/>
      <point x="393" y="-3"/>
      <point x="495" y="82"/>
      <point x="495" y="220" type="curve" smooth="yes"/>
      <point x="495" y="330"/>
      <point x="420" y="397"/>
      <point x="248" y="397" type="curve" smooth="yes"/>
      <point x="122.24785670536077" y="397.0" type="line"/>
      <point x="119.93829253074338" y="397.0"/>
      <point x="118.51173903527187" y="394.48043494121356"/>
      <point x="119.7" y="392.5" type="curve"/>
      <point x="120.3" y="391.5" type="line"/>
      <point x="121.34952211476848" y="389.75079647538587"/>
      <point x="123.97182717260311" y="390.057206313814"/>
      <point x="124.5898021957806" y="392.00125274089316" type="curve"/>
      <point x="217.1457875085757" y="683.1669565373944" type="line"/>
      <point x="217.73345322997068" y="685.015654952616"/>
      <point x="215.618830613729" y="686.5409677190756"/>
      <point x="214.05" y="685.4" type="curve"/>
      <point x="212.95" y="684.6" type="line"/>
      <point x="211.39107647885766" y="683.4662374391692"/>
      <point x="212.19305697454988" y="681.0"/>
      <point x="214.12066172893094" y="681.0" type="curve"/>
      <point x="547.1316354192797" y="681.0" type="line"/>
      <point x="549.9689586955285" y="681.0"/>
      <point x="552.4184157961663" y="682.9874750317898"/>
      <point x="553.0029341292002" y="685.763937113701" type="curve"/>
      <point x="554.4766183397265" y="692.763937113701" type="line"/>
      <point x="555.2617314074123" y="696.4932241852085"/>
      <point x="552.4163542125361" y="700.0"/>
      <point x="548.605319629806" y="700.0" type="curve"/>
      <point x="205.4062456593188" y="700.0" type="line"/>
      <point x="202.7842851668153" y="700.0"/>
      <point x="200.4659863283733" y="698.2975009676852"/>
      <point x="199.68126717276823" y="695.7957230656572" type="curve"/>
      <point x="102.44524232804774" y="385.79572306565717" type="line"/>
      <point x="101.23297778128568" y="381.9308796591484"/>
      <point x="104.11971468719022" y="378.0"/>
      <point x="108.17022081459831" y="378.0" type="curve"/>
      <point x="245" y="378" type="line" smooth="yes"/>
      <point x="411" y="378"/>
      <point x="475" y="319"/>
      <point x="475" y="220" type="curve" smooth="yes"/>
      <point x="475" y="93"/>
      <point x="384" y="16"/>
      <point x="232" y="16" type="curve" smooth="yes"/>
      <point x="124" y="16"/>
      <point x="48" y="56"/>
      <point x="17" y="109" type="curve"/>
      <point x="0" y="96" type="line"/>
      <point x="34" y="38"/>
      <point x="119" y="-3"/>
    </contour>
  </outline>
</glyph>
<glyph name="six" format="2">
  <advance width="592"/>
  <unicode hex="0036"/>
  <outline>
    <contour>
      <point x="306" y="-3" type="curve" smooth="yes"/>
      <point x="449" y="-3"/>
      <point x="546" y="79"/>
      <point x="546" y="215" type="curve" smooth="yes"/>
      <point x="546" y="337"/>
      <point x="453" y="406"/>
      <point x="326" y="406" type="curve" smooth="yes"/>
      <point x="217" y="406"/>
      <point x="100" y="348"/>
      <point x="79" y="203" type="curve"/>
      <point x="88" y="210" type="line"/>
      <point x="87" y="221"/>
      <point x="86" y="233"/>
      <point x="86" y="254" type="curve" smooth="yes"/>
      <point x="86" y="449"/>
      <point x="170" y="684"/>
      <point x="431" y="684" type="curve" smooth="yes"/>
      <point x="481.688638382921" y="684.0"/>
      <point x="530.547915383774" y="675.7678737806939"/>
      <point x="567.9551308776478" y="653.1800848989565" type="curve"/>
      <point x="570.7795789137541" y="651.4745840990519"/>
      <point x="574.4777745558927" y="652.216661833839"/>
      <point x="576.307969138834" y="654.9619537082509" type="curve"/>
      <point x="581.5577220182299" y="662.8365830273449" type="line"/>
      <point x="583.4397861561064" y="665.6596792341596"/>
      <point x="582.6124858965711" y="669.4890076764302"/>
      <point x="579.6687103236487" y="671.1760829528414" type="curve"/>
      <point x="538.556146055436" y="694.737658558251"/>
      <point x="487.6141489036622" y="703.0"/>
      <point x="433" y="703" type="curve" smooth="yes"/>
      <point x="159" y="703"/>
      <point x="66" y="462"/>
      <point x="66" y="260" type="curve" smooth="yes"/>
      <point x="66" y="83"/>
      <point x="165" y="-3"/>
    </contour>
    <contour>
      <point x="307" y="16" type="curve" smooth="yes"/>
      <point x="166" y="16"/>
      <point x="98" y="108"/>
      <point x="98" y="191" type="curve" smooth="yes"/>
      <point x="98" y="298"/>
      <point x="190" y="387"/>
      <point x="325" y="387" type="curve" smooth="yes"/>
      <point x="442" y="387"/>
      <point x="526" y="326"/>
      <point x="526" y="213" type="curve" smooth="yes"/>
      <point x="526" y="92"/>
      <point x="440" y="16"/>
    </contour>
  </outline>
</glyph>
<glyph name="seven" format="2">
  <advance width="570"/>
  <unicode hex="0037"/>
  <outline>
    <contour>
      <point x="140.0725686274887" y="9.284282701582695" type="line"/>
      <point x="137.46245879934116" y="5.29371478654826"/>
      <point x="140.3255068712677" y="0.0"/>
      <point x="145.09387195790845" y="0.0" type="curve"/>
      <point x="155.75481542290115" y="0.0" type="line"/>
      <point x="157.7796736626627" y="0.0"/>
      <point x="159.66794331769927" y="1.021297260321387"/>
      <point x="160.77624565384983" y="2.715911323408756" type="curve"/>
      <point x="606.3653446893251" y="684.0296006968475" type="line"/>
      <point x="606.7845699922" y="684.6706036711093"/>
      <point x="607.0771890859533" y="685.3859454297658"/>
      <point x="607.227398512522" y="686.1369925626096" type="curve"/>
      <point x="608.65" y="693.25" type="line"/>
      <point x="609.3484013331883" y="696.742006665942"/>
      <point x="606.6774856828965" y="700.0"/>
      <point x="603.1163236566497" y="700.0" type="curve"/>
      <point x="128.91882341631134" y="700.0" type="line"/>
      <point x="126.0587372960899" y="700.0"/>
      <point x="123.59624839822601" y="697.98124199113"/>
      <point x="123.03533936216581" y="695.1766968108291" type="curve"/>
      <point x="93.43533936216582" y="547.1766968108291" type="line"/>
      <point x="92.692789048007" y="543.463945240035"/>
      <point x="95.53254487459108" y="540.0"/>
      <point x="99.31882341631135" y="540.0" type="curve"/>
      <point x="107.08764572113105" y="540.0" type="line"/>
      <point x="109.94482169087735" y="540.0"/>
      <point x="112.40565363529285" y="542.0147463886211"/>
      <point x="112.96960656027956" y="544.8157125827217" type="curve"/>
      <point x="142" y="689" type="line"/>
      <point x="131" y="681" type="line"/>
      <point x="597" y="681" type="line"/>
      <point x="584" y="688" type="line"/>
    </contour>
  </outline>
</glyph>
<glyph name="nine" format="2">
  <advance width="592"/>
  <unicode hex="0039"/>
  <outline>
    <contour>
      <point x="322" y="703" type="curve" smooth="yes"/>
      <point x="179" y="703"/>
      <point x="82" y="621"/>
      <point x="82" y="485" type="curve" smooth="yes"/>
      <point x="82" y="363"/>
      <point x="175" y="294"/>
      <point x="302" y="294" type="curve" smooth="yes"/>
      <point x="411" y="294"/>
      <point x="528" y="352"/>
      <point x="549" y="497" type="curve"/>
      <point x="540" y="490" type="line"/>
      <point x="541" y="479"/>
      <point x="542" y="467"/>
      <point x="542" y="446" type="curve" smooth="yes"/>
      <point x="542" y="251"/>
      <point x="458" y="16"/>
      <point x="197" y="16" type="curve" smooth="yes"/>
      <point x="146.311361617079" y="16.0"/>
      <point x="97.45208461622602" y="24.232126219306082"/>
      <point x="60.04486912235228" y="46.81991510104358" type="curve"/>
      <point x="57.220421086246006" y="48.52541590094821"/>
      <point x="53.52222544410734" y="47.783338166161016"/>
      <point x="51.692030861166046" y="45.03804629174907" type="curve"/>
      <point x="46.44227798177008" y="37.16341697265512" type="line"/>
      <point x="44.56021384389358" y="34.34032076584036"/>
      <point x="45.38751410342886" y="30.510992323569806"/>
      <point x="48.33128967635128" y="28.823917047158574" type="curve"/>
      <point x="89.443853944564" y="5.262341441749003"/>
      <point x="140.38585109633777" y="-3.0"/>
      <point x="195" y="-3" type="curve" smooth="yes"/>
      <point x="469" y="-3"/>
      <point x="562" y="238"/>
      <point x="562" y="440" type="curve" smooth="yes"/>
      <point x="562" y="617"/>
      <point x="463" y="703"/>
    </contour>
    <contour>
      <point x="321" y="684" type="curve" smooth="yes"/>
      <point x="462" y="684"/>
      <point x="530" y="592"/>
      <point x="530" y="509" type="curve" smooth="yes"/>
      <point x="530" y="402"/>
      <point x="438" y="313"/>
      <point x="303" y="313" type="curve" smooth="yes"/>
      <point x="186" y="313"/>
      <point x="102" y="374"/>
      <point x="102" y="487" type="curve" smooth="yes"/>
      <point x="102" y="608"/>
      <point x="188" y="684"/>
    </contour>
  </outline>
</glyph>
<glyph name="less" format="2">
  <advance width="560"/>
  <unicode hex="003C"/>
  <outline>
    <contour>
      <point x="535.75" y="521.65" type="line"/>
      <point x="536.7156046529584" y="526.0917814036085"/>
      <point x="532.3577747311741" y="529.8269808086278"/>
      <point x="528.115966330695" y="528.1933113570919" type="curve"/>
      <point x="94" y="361" type="line"/>
      <point x="90" y="339" type="line"/>
      <point x="459.11577623425677" y="171.13085708495237" type="line"/>
      <point x="462.63402622667206" y="169.5308019022316"/>
      <point x="466.7251825740038" y="171.62591287001888"/>
      <point x="467.48317231406224" y="175.41586157031128" type="curve"/>
      <point x="469.06427532798847" y="183.32137663994226" type="line"/>
      <point x="469.6120497479795" y="186.06024873989745"/>
      <point x="468.19745665813934" y="188.81484836001923"/>
      <point x="465.65231812954204" y="189.9653904345906" type="curve"/>
      <point x="105" y="353" type="line"/>
      <point x="103" y="345" type="line"/>
      <point x="529.9650866037445" y="507.84249814654436" type="line"/>
      <point x="531.8585357455147" y="508.5646508424754"/>
      <point x="533.2595182232099" y="510.1937838267655"/>
      <point x="533.6900043773577" y="512.1740201358454" type="curve"/>
    </contour>
  </outline>
</glyph>
<glyph name="equal" format="2">
  <advance width="560"/>
  <unicode hex="003D"/>
  <outline>
    <contour>
      <point x="115.52338166027349" y="457.23606288629907" type="line"/>
      <point x="114.73826859258767" y="453.50677581479147"/>
      <point x="117.5836457874639" y="450.0"/>
      <point x="121.39468037019398" y="450.0" type="curve"/>
      <point x="519.1316354192797" y="450.0" type="line"/>
      <point x="521.9689586955285" y="450.0"/>
      <point x="524.4184157961663" y="451.9874750317898"/>
      <point x="525.0029341292002" y="454.76393711370093" type="curve"/>
      <point x="526.4766183397265" y="461.76393711370093" type="line"/>
      <point x="527.2617314074123" y="465.49322418520853"/>
      <point x="524.4163542125361" y="469.0"/>
      <point x="520.605319629806" y="469.0" type="curve"/>
      <point x="122.8683645807203" y="469.0" type="line"/>
      <point x="120.03104130447151" y="469.0"/>
      <point x="117.58158420383373" y="467.0125249682102"/>
      <point x="116.9970658707998" y="464.23606288629907" type="curve"/>
    </contour>
    <contour>
      <point x="71.52338166027349" y="238.23606288629904" type="line"/>
      <point x="70.73826859258767" y="234.50677581479147"/>
      <point x="73.5836457874639" y="231.0"/>
      <point x="77.39468037019398" y="231.0" type="curve"/>
      <point x="475.1316354192797" y="231.0" type="line"/>
      <point x="477.9689586955285" y="231.0"/>
      <point x="480.4184157961663" y="232.9874750317898"/>
      <point x="481.0029341292002" y="235.76393711370093" type="curve"/>
      <point x="482.47661833972654" y="242.76393711370096" type="line"/>
      <point x="483.2617314074123" y="246.49322418520853"/>
      <point x="480.4163542125361" y="250.0"/>
      <point x="476.60531962980605" y="250.0" type="curve"/>
      <point x="78.8683645807203" y="250.0" type="line"/>
      <point x="76.03104130447151" y="250.0"/>
      <point x="73.58158420383373" y="248.0125249682102"/>
      <point x="72.9970658707998" y="245.23606288629907" type="curve"/>
    </contour>
  </outline>
</glyph>
<glyph name="greater" format="2">
  <advance width="560"/>
  <unicode hex="003E"/>
  <outline>
    <contour>
      <point x="60.25" y="178.35" type="line"/>
      <point x="59.28439534704163" y="173.9082185963915"/>
      <point x="63.64222526882585" y="170.1730191913721"/>
      <point x="67.88403366930501" y="171.806688642908" type="curve"/>
      <point x="502" y="339" type="line"/>
      <point x="506" y="361" type="line"/>
      <point x="136.88422376574323" y="528.8691429150476" type="line"/>
      <point x="133.3659737733279" y="530.4691980977684"/>
      <point x="129.27481742599625" y="528.374087129981"/>
      <point x="128.51682768593776" y="524.5841384296887" type="curve"/>
      <point x="126.93572467201155" y="516.6786233600577" type="line"/>
      <point x="126.3879502520205" y="513.9397512601025"/>
      <point x="127.80254334186066" y="511.1851516399808"/>
      <point x="130.34768187045796" y="510.0346095654094" type="curve"/>
      <point x="491" y="347" type="line"/>
      <point x="493" y="355" type="line"/>
      <point x="66.03491339625559" y="192.1575018534556" type="line"/>
      <point x="64.1414642544853" y="191.43534915752463"/>
      <point x="62.74048177679009" y="189.80621617323442"/>
      <point x="62.309995622642305" y="187.8259798641546" type="curve"/>
    </contour>
  </outline>
</glyph>
<glyph name="question" format="2">
  <advance width="554"/>
  <unicode hex="003F"/>
  <outline>
    <contour>
      <point x="237.3829286324258" y="195.0550125547252" type="curve"/>
      <point x="236.6119424168691" y="191.39184373853843"/>
      <point x="239.44585199818084" y="188.0"/>
      <point x="243.18927630227216" y="188.0" type="curve"/>
      <point x="251.01707948429024" y="188.0" type="line"/>
      <point x="253.9058700037275" y="188.0"/>
      <point x="256.3756251115001" y="190.0606122443744"/>
      <point x="256.9698607213577" y="192.8876238653565" type="curve"/>
      <point x="294.15678672345246" y="369.8004009062922"/>
      <point x="521.0" y="359.8076437115269"/>
      <point x="521" y="558" type="curve" smooth="yes"/>
      <point x="521" y="651"/>
      <point x="452" y="703"/>
      <point x="333" y="703" type="curve" smooth="yes"/>
      <point x="229.40941388909505" y="703.0"/>
      <point x="151.6053405346534" y="673.3932631314681"/>
      <point x="93.05434884254916" y="617.9131785910474" type="curve"/>
      <point x="90.75503954490817" y="615.734464438971"/>
      <point x="90.61583688140867" y="612.1355728291438"/>
      <point x="92.69038749867124" y="609.7418605784562" type="curve"/>
      <point x="97.7797205597816" y="603.869553200252" type="line"/>
      <point x="100.06022353337643" y="601.2382036153349"/>
      <point x="104.0906010808142" y="601.098579794709"/>
      <point x="106.60253495276282" y="603.5099865778079" type="curve"/>
      <point x="162.81964543388568" y="657.4772995927955"/>
      <point x="232.753993912826" y="684.0"/>
      <point x="333" y="684" type="curve" smooth="yes"/>
      <point x="441" y="684"/>
      <point x="502" y="638"/>
      <point x="502" y="558" type="curve" smooth="yes"/>
      <point x="502.0" y="373.24991585875387"/>
      <point x="277.5012575210778" y="385.66829250334376"/>
    </contour>
    <contour>
      <point x="213" y="-3" type="curve" smooth="yes"/>
      <point x="227" y="-3"/>
      <point x="239" y="9"/>
      <point x="239" y="23" type="curve" smooth="yes"/>
      <point x="239" y="37"/>
      <point x="227" y="49"/>
      <point x="213" y="49" type="curve" smooth="yes"/>
      <point x="199" y="49"/>
      <point x="187" y="37"/>
      <point x="187" y="23" type="curve" smooth="yes"/>
      <point x="187" y="9"/>
      <point x="199" y="-3"/>
    </contour>
  </outline>
</glyph>
<glyph name="at" format="2">
  <advance width="1032"/>
  <unicode hex="0040"/>
  <outline>
    <contour>
      <point x="432" y="-197" type="curve" smooth="yes"/>
      <point x="509" y="-197"/>
      <point x="583" y="-180"/>
      <point x="638" y="-151" type="curve"/>
      <point x="633" y="-131" type="line"/>
      <point x="583" y="-160"/>
      <point x="511" y="-177"/>
      <point x="436" y="-177" type="curve" smooth="yes"/>
      <point x="198" y="-177"/>
      <point x="67" y="-37"/>
      <point x="67" y="165" type="curve" smooth="yes"/>
      <point x="67" y="446"/>
      <point x="268" y="684"/>
      <point x="580" y="684" type="curve" smooth="yes"/>
      <point x="833" y="684"/>
      <point x="963" y="546"/>
      <point x="963" y="345" type="curve" smooth="yes"/>
      <point x="963" y="174"/>
      <point x="878" y="16"/>
      <point x="785" y="16" type="curve" smooth="yes"/>
      <point x="744" y="16"/>
      <point x="718" y="37"/>
      <point x="730" y="99" type="curve" smooth="yes"/>
      <point x="811.576575202278" y="509.8314269223158" type="line"/>
      <point x="812.313340942541" y="513.5418857106282"/>
      <point x="809.4743716730848" y="517.0"/>
      <point x="805.691472232736" y="517.0" type="curve"/>
      <point x="797.9188234163114" y="517.0" type="line"/>
      <point x="795.0587372960899" y="517.0"/>
      <point x="792.5962483982261" y="514.9812419911301"/>
      <point x="792.0353393621658" y="512.1766968108291" type="curve"/>
      <point x="755" y="327" type="line"/>
      <point x="752.0373004602409" y="250.95737847951528" type="line"/>
      <point x="752.012590018219" y="250.32314380095568"/>
      <point x="751.8874003175034" y="249.6968470086631"/>
      <point x="751.6664008020465" y="249.10184831320208" type="curve"/>
      <point x="726" y="180" type="line"/>
      <point x="708" y="89" type="line" smooth="yes"/>
      <point x="697" y="34"/>
      <point x="729" y="-3"/>
      <point x="783" y="-3" type="curve" smooth="yes"/>
      <point x="889" y="-3"/>
      <point x="983" y="160"/>
      <point x="983" y="343" type="curve" smooth="yes"/>
      <point x="983" y="558"/>
      <point x="841" y="703"/>
      <point x="582" y="703" type="curve" smooth="yes"/>
      <point x="249" y="703"/>
      <point x="47" y="450"/>
      <point x="47" y="166" type="curve" smooth="yes"/>
      <point x="47" y="-49"/>
      <point x="190" y="-197"/>
    </contour>
    <contour>
      <point x="474" y="-3" type="curve" smooth="yes"/>
      <point x="645" y="-3"/>
      <point x="763" y="133"/>
      <point x="762" y="312" type="curve" smooth="yes"/>
      <point x="761" y="442"/>
      <point x="684" y="520"/>
      <point x="546" y="520" type="curve" smooth="yes"/>
      <point x="376" y="520"/>
      <point x="254" y="386"/>
      <point x="254" y="207" type="curve" smooth="yes"/>
      <point x="254" y="78"/>
      <point x="339" y="-3"/>
    </contour>
    <contour>
      <point x="477" y="16" type="curve" smooth="yes"/>
      <point x="349" y="16"/>
      <point x="274" y="86"/>
      <point x="274" y="208" type="curve" smooth="yes"/>
      <point x="274" y="376"/>
      <point x="388" y="501"/>
      <point x="543" y="501" type="curve" smooth="yes"/>
      <point x="671" y="501"/>
      <point x="746" y="431"/>
      <point x="746" y="309" type="curve" smooth="yes"/>
      <point x="746" y="140"/>
      <point x="632" y="16"/>
    </contour>
  </outline>
</glyph>
<glyph name="A" format="2">
  <advance width="688"/>
  <unicode hex="0041"/>
  <anchor x="292" y="0" name="bottom"/>
  <anchor x="627" y="0" name="ogonek"/>
  <anchor x="432" y="700" name="top"/>
  <anchor x="194" y="700" name="topleft"/>
  <outline>
    <contour>
      <point x="-37.02407463622459" y="8.996016676651157" type="line"/>
      <point x="-39.58115041304549" y="5.146655292189583"/>
      <point x="-36.821279000080835" y="0.0"/>
      <point x="-32.2" y="0.0" type="curve"/>
      <point x="-22.218929622807376" y="0.0" type="line"/>
      <point x="-20.20850096797453" y="0.0"/>
      <point x="-18.33168389268187" y="1.0068903467083747"/>
      <point x="-17.21989177315165" y="2.6819251699653517" type="curve"/>
      <point x="432.7602994897266" y="680.6256494514823" type="line"/>
      <point x="433.7188874818114" y="682.0698657214956"/>
      <point x="432.6833930809658" y="684.0"/>
      <point x="430.95" y="684.0" type="curve"/>
      <point x="430.05" y="684.0" type="line"/>
      <point x="428.00292247614954" y="684.0"/>
      <point x="426.50973034915665" y="682.0630246732047"/>
      <point x="427.03069786208255" y="680.0833481240862" type="curve"/>
      <point x="604.8228841567574" y="4.473040204322136" type="line"/>
      <point x="605.5165363537014" y="1.837161855934632"/>
      <point x="607.8997107101328" y="0.0"/>
      <point x="610.6253313803333" y="0.0" type="curve"/>
      <point x="619.2082813801011" y="0.0" type="line"/>
      <point x="623.1449419735999" y="0.0"/>
      <point x="626.0149828689214" y="3.7270918473246284"/>
      <point x="625.0091152276865" y="7.533077516861858" type="curve"/>
      <point x="443.18054379911507" y="695.5330775168619" type="line"/>
      <point x="442.4847138681567" y="698.1659475258936"/>
      <point x="440.10297706609555" y="700.0"/>
      <point x="437.37970995152966" y="700.0" type="curve"/>
      <point x="425.21747378397725" y="700.0" type="line"/>
      <point x="423.20784643178" y="700.0"/>
      <point x="421.33166665488704" y="698.993906792303"/>
      <point x="420.21968674139333" y="697.3199585354308" type="curve"/>
    </contour>
    <contour>
      <point x="112.3" y="219.55" type="line"/>
      <point x="109.68911325372056" y="216.00665370147792"/>
      <point x="112.21901422134563" y="211.0"/>
      <point x="116.62038134908535" y="211.0" type="curve"/>
      <point x="552.813202469946" y="211.0" type="line"/>
      <point x="556.8685677792265" y="211.0"/>
      <point x="559.7558961638191" y="214.93966214790626"/>
      <point x="558.5346984607507" y="218.8067882076226" type="curve"/>
      <point x="556.3241721449613" y="225.8067882076226" type="line"/>
      <point x="555.5359068639323" y="228.30296159754786"/>
      <point x="553.2203552303318" y="230.0"/>
      <point x="550.6026761541565" y="230.0" type="curve"/>
      <point x="123.03184656076165" y="230.0" type="line"/>
      <point x="121.12540049239747" y="230.0"/>
      <point x="119.33241351048899" y="229.09398976423506"/>
      <point x="118.20151153664145" y="227.5591942282991" type="curve"/>
    </contour>
  </outline>
</glyph>
<glyph name="B" format="2">
  <advance width="748"/>
  <unicode hex="0042"/>
  <anchor x="325" y="0" name="bottom"/>
  <anchor x="465" y="700" name="top"/>
  <outline>
    <contour>
      <point x="82.43533936216582" y="7.176696810829101" type="line"/>
      <point x="81.692789048007" y="3.4639452400350192"/>
      <point x="84.53254487459108" y="0.0"/>
      <point x="88.31882341631135" y="0.0" type="curve"/>
      <point x="382" y="0" type="line" smooth="yes"/>
      <point x="567" y="0"/>
      <point x="672" y="77"/>
      <point x="672" y="214" type="curve" smooth="yes"/>
      <point x="672" y="314"/>
      <point x="596" y="362"/>
      <point x="471" y="362" type="curve"/>
      <point x="452" y="351" type="line"/>
      <point x="589" y="351"/>
      <point x="701" y="421"/>
      <point x="701" y="559" type="curve" smooth="yes"/>
      <point x="701" y="652"/>
      <point x="623" y="700"/>
      <point x="498" y="700" type="curve" smooth="yes"/>
      <point x="225.91882341631134" y="700.0" type="line"/>
      <point x="223.0587372960899" y="700.0"/>
      <point x="220.596248398226" y="697.9812419911301"/>
      <point x="220.03533936216581" y="695.1766968108291" type="curve"/>
    </contour>
    <contour>
      <point x="112.31448807643845" y="19.0" type="line"/>
      <point x="108.52963186387996" y="19.0"/>
      <point x="105.69020655139853" y="22.46149043201382"/>
      <point x="106.43032128708592" y="26.17327797008238" type="curve"/>
      <point x="236.03757204237291" y="676.1732779700824" type="line"/>
      <point x="236.59710768793184" y="678.9794340106885"/>
      <point x="239.0603419940112" y="681.0"/>
      <point x="241.92173883172546" y="681.0" type="curve"/>
      <point x="498" y="681" type="line" smooth="yes"/>
      <point x="614" y="681"/>
      <point x="681" y="639"/>
      <point x="681" y="556" type="curve" smooth="yes"/>
      <point x="681" y="430"/>
      <point x="577" y="365"/>
      <point x="435" y="365" type="curve" smooth="yes"/>
      <point x="173.86836458072028" y="365.0" type="line"/>
      <point x="171.0310413044715" y="365.0"/>
      <point x="168.58158420383373" y="363.0125249682102"/>
      <point x="167.9970658707998" y="360.23606288629907" type="curve"/>
      <point x="166.5233816602735" y="353.23606288629907" type="line"/>
      <point x="165.73826859258767" y="349.50677581479147"/>
      <point x="168.5836457874639" y="346.0"/>
      <point x="172.39468037019398" y="346.0" type="curve"/>
      <point x="455" y="346" type="line" smooth="yes"/>
      <point x="585" y="346"/>
      <point x="652" y="308"/>
      <point x="652" y="212" type="curve" smooth="yes"/>
      <point x="652" y="88"/>
      <point x="557" y="19"/>
      <point x="386" y="19" type="curve" smooth="yes"/>
    </contour>
  </outline>
</glyph>
<glyph name="C" format="2">
  <advance width="711"/>
  <unicode hex="0043"/>
  <anchor x="366" y="0" name="bottom"/>
  <anchor x="495" y="700" name="top"/>
  <outline>
    <contour>
      <point x="386" y="-3" type="curve" smooth="yes"/>
      <point x="488.6270629438727" y="-3.0"/>
      <point x="581.7010065693911" y="30.43591761424004"/>
      <point x="640.011324595539" y="82.36819356508093" type="curve"/>
      <point x="642.3020492140239" y="84.40835638774291"/>
      <point x="642.603872562224" y="87.86150325036799"/>
      <point x="640.7633601054735" y="90.31551985936868" type="curve"/>
      <point x="636.0066733859487" y="96.65776881873498" type="line"/>
      <point x="633.8665497446704" y="99.5112670071061"/>
      <point x="629.7276556899933" y="99.87459677342147"/>
      <point x="627.0639167490694" y="97.50245091669137" type="curve"/>
      <point x="568.4590976078026" y="45.31296013192262"/>
      <point x="488.15813207439123" y="16.0"/>
      <point x="388" y="16" type="curve" smooth="yes"/>
      <point x="192" y="16"/>
      <point x="91" y="123"/>
      <point x="91" y="280" type="curve" smooth="yes"/>
      <point x="91" y="499"/>
      <point x="246" y="684"/>
      <point x="490" y="684" type="curve" smooth="yes"/>
      <point x="588.1405635113847" y="684.0"/>
      <point x="660.7882934210669" y="657.5629873760122"/>
      <point x="708.8606378607564" y="606.5238583914564" type="curve"/>
      <point x="711.1676250310458" y="604.0744955171776"/>
      <point x="715.0277118160922" y="603.8828752577998"/>
      <point x="717.4933815189885" y="606.1724256962035" type="curve"/>
      <point x="722.8183331085313" y="611.117023600779" type="line"/>
      <point x="725.1609497098805" y="613.2923104448889"/>
      <point x="725.3939306841762" y="616.929519141827"/>
      <point x="723.2653131657293" y="619.3146214153647" type="curve"/>
      <point x="675.6737746418996" y="672.6406350136944"/>
      <point x="594.2729190349924" y="703.0"/>
      <point x="492" y="703" type="curve" smooth="yes"/>
      <point x="229" y="703"/>
      <point x="71" y="504"/>
      <point x="71" y="280" type="curve" smooth="yes"/>
      <point x="71" y="111"/>
      <point x="182" y="-3"/>
    </contour>
  </outline>
</glyph>
<glyph name="D" format="2">
  <advance width="826"/>
  <unicode hex="0044"/>
  <anchor x="344" y="0" name="bottom"/>
  <anchor x="219" y="356" name="center"/>
  <anchor x="479" y="699" name="top"/>
  <outline>
    <contour>
      <point x="82.43533936216582" y="7.176696810829101" type="line"/>
      <point x="81.692789048007" y="3.4639452400350192"/>
      <point x="84.53254487459108" y="0.0"/>
      <point x="88.31882341631135" y="0.0" type="curve"/>
      <point x="357" y="0" type="line" smooth="yes"/>
      <point x="624" y="0"/>
      <point x="793" y="177"/>
      <point x="793" y="420" type="curve" smooth="yes"/>
      <point x="793" y="587"/>
      <point x="681" y="700"/>
      <point x="472" y="700" type="curve" smooth="yes"/>
      <point x="225.91882341631134" y="700.0" type="line"/>
      <point x="223.0587372960899" y="700.0"/>
      <point x="220.596248398226" y="697.98124199113"/>
      <point x="220.03533936216581" y="695.1766968108291" type="curve"/>
    </contour>
    <contour>
      <point x="112.31448807643845" y="19.0" type="line"/>
      <point x="108.52963186387996" y="19.0"/>
      <point x="105.69020655139853" y="22.461490432013825"/>
      <point x="106.43032128708592" y="26.17327797008238" type="curve"/>
      <point x="236.03757204237291" y="676.1732779700824" type="line"/>
      <point x="236.59710768793184" y="678.9794340106885"/>
      <point x="239.06034199401122" y="681.0"/>
      <point x="241.92173883172546" y="681.0" type="curve"/>
      <point x="470" y="681" type="line" smooth="yes"/>
      <point x="673" y="681"/>
      <point x="773" y="576"/>
      <point x="773" y="420" type="curve" smooth="yes"/>
      <point x="773" y="186"/>
      <point x="612" y="19"/>
      <point x="359" y="19" type="curve" smooth="yes"/>
    </contour>
  </outline>
</glyph>
<glyph name="E" format="2">
  <advance width="668"/>
  <unicode hex="0045"/>
  <anchor x="324" y="0" name="bottom"/>
  <anchor x="547" y="0" name="ogonek"/>
  <anchor x="447" y="700" name="top"/>
  <anchor x="129" y="700" name="topleft"/>
  <outline>
    <contour>
      <point x="169" y="365" type="line"/>
      <point x="165" y="346" type="line"/>
      <point x="551.1316354192797" y="346.0" type="line"/>
      <point x="553.9689586955285" y="346.0"/>
      <point x="556.4184157961663" y="347.9874750317898"/>
      <point x="557.0029341292002" y="350.76393711370093" type="curve"/>
      <point x="558.4766183397265" y="357.76393711370093" type="line"/>
      <point x="559.2617314074123" y="361.49322418520853"/>
      <point x="556.416354212536" y="365.0"/>
      <point x="552.605319629806" y="365.0" type="curve"/>
    </contour>
    <contour>
      <point x="112.31448807643845" y="19.0" type="line"/>
      <point x="108.52963186387996" y="19.0"/>
      <point x="105.69020655139853" y="22.461490432013825"/>
      <point x="106.43032128708592" y="26.17327797008238" type="curve"/>
      <point x="236.03757204237291" y="676.1732779700824" type="line"/>
      <point x="236.59710768793184" y="678.9794340106885"/>
      <point x="239.06034199401122" y="681.0"/>
      <point x="241.92173883172546" y="681.0" type="curve"/>
      <point x="663.1316354192797" y="681.0" type="line"/>
      <point x="665.9689586955285" y="681.0"/>
      <point x="668.4184157961663" y="682.9874750317898"/>
      <point x="669.0029341292002" y="685.763937113701" type="curve"/>
      <point x="670.4766183397265" y="692.763937113701" type="line"/>
      <point x="671.2617314074123" y="696.4932241852085"/>
      <point x="668.416354212536" y="700.0"/>
      <point x="664.605319629806" y="700.0" type="curve"/>
      <point x="225.91882341631134" y="700.0" type="line"/>
      <point x="223.0587372960899" y="700.0"/>
      <point x="220.596248398226" y="697.98124199113"/>
      <point x="220.03533936216581" y="695.1766968108291" type="curve"/>
      <point x="82.43533936216582" y="7.176696810829101" type="line"/>
      <point x="81.692789048007" y="3.4639452400350192"/>
      <point x="84.53254487459108" y="0.0"/>
      <point x="88.31882341631135" y="0.0" type="curve"/>
      <point x="542.1316354192797" y="0.0" type="line"/>
      <point x="544.9689586955285" y="0.0"/>
      <point x="547.4184157961663" y="1.987475031789805"/>
      <point x="548.0029341292002" y="4.763937113700948" type="curve"/>
      <point x="549.4766183397265" y="11.763937113700948" type="line"/>
      <point x="550.2617314074123" y="15.493224185208533"/>
      <point x="547.416354212536" y="19.0"/>
      <point x="543.605319629806" y="19.0" type="curve"/>
    </contour>
  </outline>
</glyph>
<glyph name="F" format="2">
  <advance width="629"/>
  <unicode hex="0046"/>
  <outline>
    <contour>
      <point x="169.86836458072028" y="345.0" type="line"/>
      <point x="167.0310413044715" y="345.0"/>
      <point x="164.58158420383373" y="343.0125249682102"/>
      <point x="163.9970658707998" y="340.23606288629907" type="curve"/>
      <point x="162.5233816602735" y="333.23606288629907" type="line"/>
      <point x="161.73826859258767" y="329.50677581479147"/>
      <point x="164.5836457874639" y="326.0"/>
      <point x="168.39468037019398" y="326.0" type="curve"/>
      <point x="547.1316354192797" y="326.0" type="line"/>
      <point x="549.9689586955285" y="326.0"/>
      <point x="552.4184157961663" y="327.9874750317898"/>
      <point x="553.0029341292002" y="330.76393711370093" type="curve"/>
      <point x="554.4766183397265" y="337.76393711370093" type="line"/>
      <point x="555.2617314074123" y="341.49322418520853"/>
      <point x="552.4163542125361" y="345.0"/>
      <point x="548.605319629806" y="345.0" type="curve"/>
    </contour>
    <contour>
      <point x="96.07975980425987" y="0.0" type="line"/>
      <point x="98.94048294362089" y="0.0"/>
      <point x="101.40333418375582" y="2.019636611306713"/>
      <point x="101.96357593013599" y="4.8249647678132845" type="curve"/>
      <point x="236.036424069864" y="676.1750352321867" type="line"/>
      <point x="236.59666581624418" y="678.9803633886933"/>
      <point x="239.0595170563791" y="681.0"/>
      <point x="241.92024019574015" y="681.0" type="curve"/>
      <point x="663.1316354192797" y="681.0" type="line"/>
      <point x="665.9689586955285" y="681.0"/>
      <point x="668.4184157961663" y="682.9874750317898"/>
      <point x="669.0029341292002" y="685.763937113701" type="curve"/>
      <point x="670.4766183397265" y="692.763937113701" type="line"/>
      <point x="671.2617314074123" y="696.4932241852085"/>
      <point x="668.4163542125361" y="700.0"/>
      <point x="664.605319629806" y="700.0" type="curve"/>
      <point x="225.91882341631134" y="700.0" type="line"/>
      <point x="223.0587372960899" y="700.0"/>
      <point x="220.596248398226" y="697.9812419911301"/>
      <point x="220.03533936216581" y="695.1766968108291" type="curve"/>
      <point x="82.43533936216582" y="7.176696810829101" type="line"/>
      <point x="81.692789048007" y="3.4639452400350192"/>
      <point x="84.53254487459108" y="0.0"/>
      <point x="88.31882341631135" y="0.0" type="curve"/>
    </contour>
  </outline>
</glyph>
<glyph name="G" format="2">
  <advance width="774"/>
  <unicode hex="0047"/>
  <anchor x="350" y="0" name="bottom"/>
  <anchor x="490" y="699" name="top"/>
  <outline>
    <contour>
      <point x="386" y="-3" type="curve" smooth="yes"/>
      <point x="483" y="-3"/>
      <point x="569" y="33"/>
      <point x="628" y="87" type="curve"/>
      <point x="618" y="102" type="line"/>
      <point x="556" y="48"/>
      <point x="483" y="16"/>
      <point x="388" y="16" type="curve" smooth="yes"/>
      <point x="192" y="16"/>
      <point x="91" y="123"/>
      <point x="91" y="280" type="curve" smooth="yes"/>
      <point x="91" y="499"/>
      <point x="246" y="684"/>
      <point x="490" y="684" type="curve" smooth="yes"/>
      <point x="593" y="684"/>
      <point x="670" y="656"/>
      <point x="718" y="601" type="curve"/>
      <point x="732" y="614" type="line"/>
      <point x="685" y="670"/>
      <point x="599" y="703"/>
      <point x="492" y="703" type="curve" smooth="yes"/>
      <point x="229" y="703"/>
      <point x="71" y="504"/>
      <point x="71" y="280" type="curve" smooth="yes"/>
      <point x="71" y="111"/>
      <point x="182" y="-3"/>
    </contour>
    <contour>
      <point x="610.4288518855361" y="94.17227613131874" type="line"/>
      <point x="609.6894505382829" y="90.46077132942028"/>
      <point x="612.5287788595031" y="87.0"/>
      <point x="616.3132183486264" y="87.0" type="curve"/>
      <point x="623.0774066513736" y="87.0" type="line"/>
      <point x="625.9391875717256" y="87.0"/>
      <point x="628.4026402034652" y="89.02109592327625"/>
      <point x="628.9617731144639" y="91.82772386868126" type="curve"/>
      <point x="677.5711481144639" y="335.82772386868123" type="line"/>
      <point x="678.3105494617171" y="339.53922867057975"/>
      <point x="675.4712211404969" y="343.0"/>
      <point x="671.6867816513736" y="343.0" type="curve"/>
      <point x="664.9225933486264" y="343.0" type="line"/>
      <point x="662.0608124282744" y="343.0"/>
      <point x="659.5973597965348" y="340.9789040767237"/>
      <point x="659.0382268855361" y="338.17227613131877" type="curve"/>
    </contour>
  </outline>
</glyph>
<glyph name="H" format="2">
  <advance width="816"/>
  <unicode hex="0048"/>
  <anchor x="356" y="0" name="bottom"/>
  <anchor x="464" y="538" name="center"/>
  <anchor x="496" y="700" name="top"/>
  <outline>
    <contour>
      <point x="755.9188234163114" y="700.0" type="line"/>
      <point x="753.0587372960899" y="700.0"/>
      <point x="750.5962483982261" y="697.9812419911301"/>
      <point x="750.0353393621658" y="695.1766968108291" type="curve"/>
      <point x="612.4353393621658" y="7.176696810829101" type="line"/>
      <point x="611.6927890480071" y="3.4639452400350192"/>
      <point x="614.532544874591" y="0.0"/>
      <point x="618.3188234163114" y="0.0" type="curve"/>
      <point x="626.0811765836886" y="0.0" type="line"/>
      <point x="628.9412627039101" y="0.0"/>
      <point x="631.4037516017739" y="2.018758008869933"/>
      <point x="631.9646606378342" y="4.823303189170896" type="curve"/>
      <point x="769.5646606378342" y="692.8233031891709" type="line"/>
      <point x="770.3072109519929" y="696.5360547599649"/>
      <point x="767.467455125409" y="700.0"/>
      <point x="763.6811765836886" y="700.0" type="curve"/>
    </contour>
    <contour>
      <point x="96.08117658368866" y="0.0" type="line"/>
      <point x="98.9412627039101" y="0.0"/>
      <point x="101.40375160177399" y="2.018758008869933"/>
      <point x="101.96466063783419" y="4.823303189170896" type="curve"/>
      <point x="239.56466063783418" y="692.8233031891709" type="line"/>
      <point x="240.307210951993" y="696.5360547599649"/>
      <point x="237.46745512540892" y="700.0"/>
      <point x="233.68117658368865" y="700.0" type="curve"/>
      <point x="225.91882341631134" y="700.0" type="line"/>
      <point x="223.0587372960899" y="700.0"/>
      <point x="220.596248398226" y="697.9812419911301"/>
      <point x="220.03533936216581" y="695.1766968108291" type="curve"/>
      <point x="82.43533936216582" y="7.176696810829101" type="line"/>
      <point x="81.692789048007" y="3.4639452400350192"/>
      <point x="84.53254487459108" y="0.0"/>
      <point x="88.31882341631135" y="0.0" type="curve"/>
    </contour>
    <contour>
      <point x="680.1316354192797" y="346.0" type="line"/>
      <point x="682.9689586955285" y="346.0"/>
      <point x="685.4184157961663" y="347.9874750317898"/>
      <point x="686.0029341292002" y="350.76393711370093" type="curve"/>
      <point x="687.4766183397265" y="357.76393711370093" type="line"/>
      <point x="688.2617314074123" y="361.49322418520853"/>
      <point x="685.4163542125361" y="365.0"/>
      <point x="681.605319629806" y="365.0" type="curve"/>
      <point x="173.86836458072028" y="365.0" type="line"/>
      <point x="171.0310413044715" y="365.0"/>
      <point x="168.58158420383373" y="363.0125249682102"/>
      <point x="167.9970658707998" y="360.23606288629907" type="curve"/>
      <point x="166.5233816602735" y="353.23606288629907" type="line"/>
      <point x="165.73826859258767" y="349.50677581479147"/>
      <point x="168.5836457874639" y="346.0"/>
      <point x="172.39468037019398" y="346.0" type="curve"/>
    </contour>
  </outline>
</glyph>
<glyph name="J" format="2">
  <advance width="477"/>
  <unicode hex="004A"/>
  <anchor x="297" y="700" name="top"/>
  <outline>
    <contour>
      <point x="137" y="-3" type="curve" smooth="yes"/>
      <point x="243" y="-3"/>
      <point x="308" y="49"/>
      <point x="336" y="190" type="curve" smooth="yes"/>
      <point x="436.56466063783415" y="692.8233031891709" type="line"/>
      <point x="437.30721095199294" y="696.536054759965"/>
      <point x="434.46745512540895" y="700.0"/>
      <point x="430.6811765836887" y="700.0" type="curve"/>
      <point x="160.86836458072028" y="700.0" type="line"/>
      <point x="158.0310413044715" y="700.0"/>
      <point x="155.5815842038337" y="698.0125249682102"/>
      <point x="154.9970658707998" y="695.236062886299" type="curve"/>
      <point x="153.5233816602735" y="688.236062886299" type="line"/>
      <point x="152.73826859258767" y="684.5067758147915"/>
      <point x="155.5836457874639" y="681.0"/>
      <point x="159.39468037019398" y="681.0" type="curve"/>
      <point x="406.6811765836887" y="681.0" type="line"/>
      <point x="410.46745512540895" y="681.0"/>
      <point x="413.30721095199294" y="677.536054759965"/>
      <point x="412.56466063783415" y="673.8233031891709" type="curve"/>
      <point x="317" y="196" type="line" smooth="yes"/>
      <point x="290" y="63"/>
      <point x="233" y="16"/>
      <point x="140" y="16" type="curve" smooth="yes"/>
      <point x="69.62884105803687" y="16.0"/>
      <point x="16.91388406876012" y="48.52458254442228"/>
      <point x="-9.186778726129514" y="100.13660927071572" type="curve"/>
      <point x="-10.768023090197232" y="103.26339677877253"/>
      <point x="-14.622013902879752" y="104.54332560951124"/>
      <point x="-17.684950960817734" y="102.84169391065682" type="curve"/>
      <point x="-25.284954081940967" y="98.61946995447724" type="line"/>
      <point x="-27.966234875034644" y="97.12986951386964"/>
      <point x="-29.104449996857706" y="93.85139853931777"/>
      <point x="-27.80380053992714" y="91.07354196378014" type="curve"/>
      <point x="-1.4480577039855433" y="34.78437569389616"/>
      <point x="60.219096009228" y="-3.0"/>
    </contour>
  </outline>
</glyph>
<glyph name="K" format="2">
  <advance width="693"/>
  <unicode hex="004B"/>
  <anchor x="318" y="0" name="bottom"/>
  <anchor x="458" y="700" name="top"/>
  <outline>
    <contour>
      <point x="136.15" y="195.95" type="line"/>
      <point x="135.1401102531116" y="191.47763112092284"/>
      <point x="140.40319483694464" y="188.29271561140294"/>
      <point x="143.89666464728606" y="191.26216495019315" type="curve"/>
      <point x="353" y="369" type="line"/>
      <point x="361" y="376" type="line"/>
      <point x="731.7158174800686" y="691.2543959673023" type="line"/>
      <point x="735.2339558461418" y="694.2461986723096"/>
      <point x="733.1182443621494" y="700.0"/>
      <point x="728.5" y="700.0" type="curve"/>
      <point x="714.2082256793426" y="700.0" type="line"/>
      <point x="712.7828115293469" y="700.0"/>
      <point x="711.4039566826591" y="699.492529553243"/>
      <point x="710.3186270130043" y="698.5684813904425" type="curve"/>
      <point x="141.52259325759206" y="214.2963337700128" type="line"/>
      <point x="140.53425398399904" y="213.4548630947684"/>
      <point x="139.84545160018044" y="212.31557137222765"/>
      <point x="139.5595459115241" y="211.04941760817817" type="curve"/>
    </contour>
    <contour>
      <point x="82.43533936216582" y="7.176696810829101" type="line"/>
      <point x="81.692789048007" y="3.4639452400350192"/>
      <point x="84.53254487459108" y="0.0"/>
      <point x="88.31882341631135" y="0.0" type="curve"/>
      <point x="96.08117658368866" y="0.0" type="line"/>
      <point x="98.9412627039101" y="0.0"/>
      <point x="101.40375160177399" y="2.018758008869933"/>
      <point x="101.96466063783419" y="4.823303189170896" type="curve"/>
      <point x="239.56466063783418" y="692.8233031891709" type="line"/>
      <point x="240.307210951993" y="696.5360547599649"/>
      <point x="237.46745512540892" y="700.0"/>
      <point x="233.68117658368865" y="700.0" type="curve"/>
      <point x="225.91882341631134" y="700.0" type="line"/>
      <point x="223.0587372960899" y="700.0"/>
      <point x="220.596248398226" y="697.9812419911301"/>
      <point x="220.03533936216581" y="695.1766968108291" type="curve"/>
    </contour>
    <contour>
      <point x="599.2105645274489" y="2.5847401270181503" type="line"/>
      <point x="600.3312647151305" y="0.9659509670337731"/>
      <point x="602.1748481399496" y="0.0"/>
      <point x="604.1437176773117" y="0.0" type="curve"/>
      <point x="614.2" y="0.0" type="line"/>
      <point x="618.76425136673" y="0.0"/>
      <point x="621.449860851532" y="5.1265069046908325"/>
      <point x="618.8513392603913" y="8.878849650106465" type="curve"/>
      <point x="360.17219941833616" y="382.4192493474026" type="line"/>
      <point x="358.3835546816785" y="385.0021057395165"/>
      <point x="354.9053393532055" y="385.76784667835614"/>
      <point x="352.19738440889665" y="384.17493200523336" type="curve"/>
      <point x="345.5681946250085" y="380.2754086029462" type="line"/>
      <point x="342.56173937047396" y="378.5069055120435"/>
      <point x="341.69173886729783" y="374.5563771916809"/>
      <point x="343.6771622345262" y="371.68854343901774" type="curve"/>
    </contour>
  </outline>
</glyph>
<glyph name="L" format="2">
  <advance width="580"/>
  <unicode hex="004C"/>
  <guideline x="360" y="31" angle="90"/>
  <anchor x="310" y="0" name="bottom"/>
  <anchor x="163" y="360" name="center"/>
  <anchor x="453" y="360" name="dot"/>
  <anchor x="231" y="700" name="top"/>
  <anchor x="534" y="700" name="topright"/>
  <outline>
    <contour>
      <point x="82.43533936216582" y="7.176696810829101" type="line"/>
      <point x="81.692789048007" y="3.4639452400350192"/>
      <point x="84.53254487459108" y="0.0"/>
      <point x="88.31882341631135" y="0.0" type="curve"/>
      <point x="513.1316354192797" y="0.0" type="line"/>
      <point x="515.9689586955285" y="0.0"/>
      <point x="518.4184157961663" y="1.9874750317898047"/>
      <point x="519.0029341292002" y="4.763937113700948" type="curve"/>
      <point x="520.4766183397265" y="11.763937113700951" type="line"/>
      <point x="521.2617314074123" y="15.493224185208533"/>
      <point x="518.4163542125361" y="19.0"/>
      <point x="514.605319629806" y="19.0" type="curve"/>
      <point x="112.31671596666524" y="19.0" type="line"/>
      <point x="108.53112873112408" y="19.0"/>
      <point x="105.69153344474293" y="22.462752028455395"/>
      <point x="106.43289984078912" y="26.175035232186715" type="curve"/>
      <point x="239.56710015921087" y="692.8249647678133" type="line"/>
      <point x="240.30846655525707" y="696.5372479715446"/>
      <point x="237.46887126887592" y="700.0"/>
      <point x="233.68328403333476" y="700.0" type="curve"/>
      <point x="225.91882341631134" y="700.0" type="line"/>
      <point x="223.0587372960899" y="700.0"/>
      <point x="220.596248398226" y="697.9812419911301"/>
      <point x="220.03533936216581" y="695.1766968108291" type="curve"/>
    </contour>
  </outline>
</glyph>
<glyph name="M" format="2">
  <advance width="956"/>
  <unicode hex="004D"/>
  <anchor x="426" y="0" name="bottom"/>
  <anchor x="566" y="700" name="top"/>
  <outline>
    <contour>
      <point x="82.43533936216582" y="7.176696810829101" type="line"/>
      <point x="81.692789048007" y="3.4639452400350192"/>
      <point x="84.53254487459108" y="0.0"/>
      <point x="88.31882341631135" y="0.0" type="curve"/>
      <point x="96.07973868612181" y="0.0" type="line"/>
      <point x="98.94047131984861" y="0.0"/>
      <point x="101.4033279594933" y="2.0196497076119613"/>
      <point x="101.96355975764048" y="4.82498953266244" type="curve"/>
      <point x="234.28950720665318" y="667.442233848241" type="line"/>
      <point x="234.6732571396403" y="669.3638473186465"/>
      <point x="233.34442473124315" y="671.2069469085947"/>
      <point x="231.4" y="671.45" type="curve"/>
      <point x="230.6" y="671.55" type="line"/>
      <point x="228.9688915876891" y="671.7538885515389"/>
      <point x="227.70838812297785" y="670.1465461439894"/>
      <point x="228.29524513115194" y="668.6110709582189" type="curve"/>
      <point x="444.5255038871301" y="102.85792818572807" type="line"/>
      <point x="445.4134820789761" y="100.53458798514481"/>
      <point x="447.64285226232704" y="99.0"/>
      <point x="450.1301027436498" y="99.0" type="curve"/>
      <point x="455.0354503391274" y="99.0" type="line"/>
      <point x="456.90399767853177" y="99.0"/>
      <point x="458.6658800989126" y="99.87053132197289"/>
      <point x="459.80112266438334" y="101.35467871261125" type="curve"/>
      <point x="891.4793848747353" y="665.704700409631" type="line"/>
      <point x="892.6552337582547" y="667.2419340417549"/>
      <point x="891.8392959621328" y="669.4801564528593"/>
      <point x="889.95" y="669.9" type="curve"/>
      <point x="889.05" y="670.1" type="line"/>
      <point x="886.82751125709" y="670.5938863873133"/>
      <point x="884.6333788635665" y="669.1641583392023"/>
      <point x="884.1875204068948" y="666.9315387539283" type="curve"/>
      <point x="752.4328634912417" y="7.175010467337558" type="line"/>
      <point x="751.6915147377744" y="3.462734246616301"/>
      <point x="754.5311076300856" y="0.0"/>
      <point x="758.3166845627604" y="0.0" type="curve"/>
      <point x="766.0811765836886" y="0.0" type="line"/>
      <point x="768.9412627039101" y="0.0"/>
      <point x="771.4037516017739" y="2.018758008869933"/>
      <point x="771.9646606378342" y="4.823303189170896" type="curve"/>
      <point x="909.5646606378342" y="692.8233031891709" type="line"/>
      <point x="910.3072109519929" y="696.5360547599649"/>
      <point x="907.467455125409" y="700.0"/>
      <point x="903.6811765836886" y="700.0" type="curve"/>
      <point x="894.9722283181388" y="700.0" type="line"/>
      <point x="893.0993435760388" y="700.0"/>
      <point x="891.3338868191985" y="699.1254432388116"/>
      <point x="890.1990703341374" y="697.6355141121668" type="curve"/>
      <point x="453.5867136385297" y="124.39616144378391" type="line"/>
      <point x="452.3183011380625" y="122.73083074589162"/>
      <point x="453.0640551507619" y="120.31198161641271"/>
      <point x="455.05" y="119.65" type="curve"/>
      <point x="455.95" y="119.35" type="line"/>
      <point x="457.5685841012303" y="118.81047196625657"/>
      <point x="459.0865797574505" y="120.3946422574946"/>
      <point x="458.4785194568328" y="121.98874628884363" type="curve"/>
      <point x="239.47299094852042" y="696.1383750809059" type="line"/>
      <point x="238.58602964975785" y="698.4636519992835"/>
      <point x="236.3556776685513" y="700.0"/>
      <point x="233.86698060128055" y="700.0" type="curve"/>
      <point x="225.91882341631134" y="700.0" type="line"/>
      <point x="223.0587372960899" y="700.0"/>
      <point x="220.596248398226" y="697.9812419911301"/>
      <point x="220.03533936216581" y="695.1766968108291" type="curve"/>
    </contour>
  </outline>
</glyph>
<glyph name="N" format="2">
  <advance width="816"/>
  <unicode hex="004E"/>
  <anchor x="356" y="0" name="bottom"/>
  <anchor x="496" y="700" name="top"/>
  <outline>
    <contour>
      <point x="82.43533936216582" y="7.176696810829101" type="line"/>
      <point x="81.692789048007" y="3.4639452400350192"/>
      <point x="84.53254487459108" y="0.0"/>
      <point x="88.31882341631135" y="0.0" type="curve"/>
      <point x="96.08117658368866" y="0.0" type="line"/>
      <point x="98.9412627039101" y="0.0"/>
      <point x="101.40375160177399" y="2.0187580088699324"/>
      <point x="101.96466063783419" y="4.823303189170896" type="curve"/>
      <point x="236" y="675" type="line"/>
      <point x="228" y="678" type="line"/>
      <point x="612.2741289550343" y="3.0314522499657475" type="line"/>
      <point x="613.3410999357915" y="1.157342599827352"/>
      <point x="615.331762436769" y="0.0"/>
      <point x="617.4883138631255" y="0.0" type="curve"/>
      <point x="626.0811765836886" y="0.0" type="line"/>
      <point x="628.9412627039101" y="0.0"/>
      <point x="631.403751601774" y="2.0187580088699324"/>
      <point x="631.9646606378342" y="4.823303189170896" type="curve"/>
      <point x="769.5646606378342" y="692.8233031891709" type="line"/>
      <point x="770.307210951993" y="696.536054759965"/>
      <point x="767.4674551254088" y="700.0"/>
      <point x="763.6811765836886" y="700.0" type="curve"/>
      <point x="755.9188234163114" y="700.0" type="line"/>
      <point x="753.0587372960899" y="700.0"/>
      <point x="750.596248398226" y="697.98124199113"/>
      <point x="750.0353393621658" y="695.1766968108291" type="curve"/>
      <point x="616" y="25" type="line"/>
      <point x="624" y="22" type="line"/>
      <point x="239.72587104496574" y="696.9685477500343" type="line"/>
      <point x="238.6589000642085" y="698.8426574001727"/>
      <point x="236.66823756323092" y="700.0"/>
      <point x="234.5116861368745" y="700.0" type="curve"/>
      <point x="225.91882341631134" y="700.0" type="line"/>
      <point x="223.0587372960899" y="700.0"/>
      <point x="220.596248398226" y="697.98124199113"/>
      <point x="220.03533936216581" y="695.1766968108291" type="curve"/>
    </contour>
  </outline>
</glyph>
<glyph name="P" format="2">
  <advance width="710"/>
  <unicode hex="0050"/>
  <outline>
    <contour>
      <point x="82.43533936216582" y="7.176696810829101" type="line"/>
      <point x="81.692789048007" y="3.4639452400350192"/>
      <point x="84.53254487459108" y="0.0"/>
      <point x="88.31882341631135" y="0.0" type="curve"/>
      <point x="96.08504889820597" y="0.0" type="line"/>
      <point x="98.94339334135648" y="0.0"/>
      <point x="101.4048909018393" y="2.016356691159738"/>
      <point x="101.96762255229399" y="4.81876031042409" type="curve"/>
      <point x="151" y="249" type="line"/>
      <point x="140" y="240" type="line"/>
      <point x="373" y="240" type="line" smooth="yes"/>
      <point x="568" y="240"/>
      <point x="690" y="334"/>
      <point x="690" y="514" type="curve" smooth="yes"/>
      <point x="690" y="633"/>
      <point x="604" y="700"/>
      <point x="456" y="700" type="curve" smooth="yes"/>
      <point x="225.91882341631134" y="700.0" type="line"/>
      <point x="223.0587372960899" y="700.0"/>
      <point x="220.596248398226" y="697.98124199113"/>
      <point x="220.03533936216581" y="695.1766968108291" type="curve"/>
    </contour>
    <contour>
      <point x="151" y="251" type="line"/>
      <point x="239" y="691" type="line"/>
      <point x="228" y="681" type="line"/>
      <point x="457" y="681" type="line" smooth="yes"/>
      <point x="594" y="681"/>
      <point x="670" y="621"/>
      <point x="670" y="514" type="curve" smooth="yes"/>
      <point x="670" y="345"/>
      <point x="561" y="259"/>
      <point x="372" y="259" type="curve" smooth="yes"/>
      <point x="144" y="259" type="line"/>
    </contour>
  </outline>
</glyph>
<glyph name="Q" format="2">
  <advance width="836"/>
  <unicode hex="0051"/>
  <anchor x="506" y="700" name="top"/>
  <outline>
    <contour>
      <point x="386" y="-3" type="curve" smooth="yes"/>
      <point x="644" y="-3"/>
      <point x="802" y="196"/>
      <point x="802" y="420" type="curve" smooth="yes"/>
      <point x="802" y="589"/>
      <point x="691" y="703"/>
      <point x="487" y="703" type="curve" smooth="yes"/>
      <point x="229" y="703"/>
      <point x="71" y="504"/>
      <point x="71" y="280" type="curve" smooth="yes"/>
      <point x="71" y="111"/>
      <point x="182" y="-3"/>
    </contour>
    <contour>
      <point x="584" y="-124" type="curve" smooth="yes"/>
      <point x="642.2817677966432" y="-124.0"/>
      <point x="699.619989910647" y="-100.41135793401504"/>
      <point x="741.3502635737142" y="-52.31754862902655" type="curve"/>
      <point x="743.4312209011836" y="-49.91926181961833"/>
      <point x="743.1839656695604" y="-46.3136824074489"/>
      <point x="740.8571688521861" y="-44.1530853627442" type="curve"/>
      <point x="735.7703908414254" y="-39.42964863846642" type="line"/>
      <point x="733.2010298081265" y="-37.04381339326026"/>
      <point x="729.148135983275" y="-37.36603607380711"/>
      <point x="726.8928265874338" y="-40.05069721922815" type="curve"/>
      <point x="690.2676209418886" y="-83.6483812979469"/>
      <point x="640.882969838648" y="-105.0"/>
      <point x="585" y="-105" type="curve" smooth="yes"/>
      <point x="511" y="-105"/>
      <point x="452" y="-65"/>
      <point x="401" y="8" type="curve"/>
      <point x="376" y="3" type="line"/>
      <point x="436" y="-78"/>
      <point x="501" y="-124"/>
    </contour>
    <contour>
      <point x="388" y="16" type="curve" smooth="yes"/>
      <point x="192" y="16"/>
      <point x="91" y="123"/>
      <point x="91" y="280" type="curve" smooth="yes"/>
      <point x="91" y="499"/>
      <point x="246" y="684"/>
      <point x="485" y="684" type="curve" smooth="yes"/>
      <point x="681" y="684"/>
      <point x="782" y="577"/>
      <point x="782" y="420" type="curve" smooth="yes"/>
      <point x="782" y="201"/>
      <point x="627" y="16"/>
    </contour>
  </outline>
</glyph>
<glyph name="R" format="2">
  <advance width="716"/>
  <unicode hex="0052"/>
  <anchor x="314" y="0" name="bottom"/>
  <anchor x="454" y="700" name="top"/>
  <outline>
    <contour>
      <point x="82.43533936216582" y="7.176696810829101" type="line"/>
      <point x="81.692789048007" y="3.4639452400350192"/>
      <point x="84.53254487459108" y="0.0"/>
      <point x="88.31882341631135" y="0.0" type="curve"/>
      <point x="96.08504889820597" y="0.0" type="line"/>
      <point x="98.94339334135647" y="0.0"/>
      <point x="101.40489090183931" y="2.016356691159738"/>
      <point x="101.96762255229399" y="4.81876031042409" type="curve"/>
      <point x="149.74085722183477" y="242.72946896473718" type="line"/>
      <point x="150.1637777238457" y="244.83561306475164"/>
      <point x="147.71260452845917" y="246.31031279601203"/>
      <point x="146.05" y="244.95" type="curve"/>
      <point x="144.95" y="244.05" type="line"/>
      <point x="143.28943030480812" y="242.69135206757028"/>
      <point x="144.25014443069938" y="240.0"/>
      <point x="146.39570168159835" y="240.0" type="curve"/>
      <point x="373" y="240" type="line" smooth="yes"/>
      <point x="568" y="240"/>
      <point x="690" y="334"/>
      <point x="690" y="514" type="curve" smooth="yes"/>
      <point x="690" y="633"/>
      <point x="604" y="700"/>
      <point x="456" y="700" type="curve" smooth="yes"/>
      <point x="225.91882341631134" y="700.0" type="line"/>
      <point x="223.0587372960899" y="700.0"/>
      <point x="220.596248398226" y="697.9812419911301"/>
      <point x="220.03533936216581" y="695.1766968108291" type="curve"/>
    </contour>
    <contour>
      <point x="578.2760321976833" y="3.0408876513085077" type="line"/>
      <point x="579.3415257114975" y="1.161475481108492"/>
      <point x="581.3351455657848" y="0.0"/>
      <point x="583.4955775905142" y="0.0" type="curve"/>
      <point x="592.7012728031866" y="0.0" type="line"/>
      <point x="597.2991623110798" y="0.0"/>
      <point x="600.188430132805" y="4.959296849079929"/>
      <point x="597.9208181960174" y="8.959112348691493" type="curve"/>
      <point x="460.7239678023166" y="250.9591123486915" type="line"/>
      <point x="459.6584742885025" y="252.83852451889152"/>
      <point x="457.6648544342151" y="254.0"/>
      <point x="455.5044224094858" y="254.0" type="curve"/>
      <point x="446.2987271968134" y="254.0" type="line"/>
      <point x="441.70083768892016" y="254.0"/>
      <point x="438.8115698671949" y="249.04070315092008"/>
      <point x="441.0791818039826" y="245.0408876513085" type="curve"/>
    </contour>
    <contour>
      <point x="147.85" y="254.6" type="line"/>
      <point x="149.1386908373592" y="253.12721047158948"/>
      <point x="151.55676914041317" y="253.77119185796548"/>
      <point x="151.94225227463724" y="255.68984654876266" type="curve"/>
      <point x="237.7943705805132" y="682.9992535711907" type="line"/>
      <point x="238.22279291472455" y="685.1316283710154"/>
      <point x="235.80899038300586" y="686.6792657330951"/>
      <point x="234.05" y="685.4" type="curve"/>
      <point x="232.95" y="684.6" type="line"/>
      <point x="231.39107647885766" y="683.4662374391692"/>
      <point x="232.19305697454988" y="681.0"/>
      <point x="234.12066172893094" y="681.0" type="curve"/>
      <point x="457" y="681" type="line" smooth="yes"/>
      <point x="594" y="681"/>
      <point x="670" y="621"/>
      <point x="670" y="514" type="curve" smooth="yes"/>
      <point x="670" y="345"/>
      <point x="561" y="259"/>
      <point x="372" y="259" type="curve" smooth="yes"/>
      <point x="148.7835656157306" y="259.0" type="line"/>
      <point x="146.91864965528958" y="259.0"/>
      <point x="145.92194424676205" y="256.8034922894148"/>
      <point x="147.15" y="255.4" type="curve"/>
    </contour>
  </outline>
</glyph>
<glyph name="S" format="2">
  <advance width="601"/>
  <unicode hex="0053"/>
  <anchor x="266" y="0" name="bottom"/>
  <anchor x="406" y="700" name="top"/>
  <outline>
    <contour>
      <point x="263" y="-3" type="curve" smooth="yes"/>
      <point x="410" y="-3"/>
      <point x="527" y="63"/>
      <point x="527" y="195" type="curve" smooth="yes"/>
      <point x="527" y="403"/>
      <point x="150" y="312"/>
      <point x="150" y="505" type="curve" smooth="yes"/>
      <point x="150" y="618"/>
      <point x="250" y="684"/>
      <point x="388" y="684" type="curve" smooth="yes"/>
      <point x="458.6266166253022" y="684.0"/>
      <point x="523.6370362426057" y="664.343310472005"/>
      <point x="572.1640535648947" y="627.7467327377689" type="curve"/>
      <point x="574.8461103407842" y="625.7240636205926"/>
      <point x="578.675522674927" y="626.1910681133662"/>
      <point x="580.7161047239392" y="628.8595215620744" type="curve"/>
      <point x="586.4692922189818" y="636.3829205940531" type="line"/>
      <point x="588.4371317410717" y="638.956249199863"/>
      <point x="588.0122161322001" y="642.6347350828926"/>
      <point x="585.442411394665" y="644.6071742097404" type="curve"/>
      <point x="536.3072001481595" y="682.3206283694905"/>
      <point x="461.68361435520455" y="703.0"/>
      <point x="388" y="703" type="curve" smooth="yes"/>
      <point x="242" y="703"/>
      <point x="131" y="633"/>
      <point x="131" y="503" type="curve" smooth="yes"/>
      <point x="131" y="292"/>
      <point x="507" y="384"/>
      <point x="507" y="194" type="curve" smooth="yes"/>
      <point x="507" y="79"/>
      <point x="406" y="16"/>
      <point x="264" y="16" type="curve" smooth="yes"/>
      <point x="175.99620945010656" y="16.0"/>
      <point x="85.18671892998627" y="52.47409961294905"/>
      <point x="45.837953170559125" y="102.81128853429713" type="curve"/>
      <point x="43.69120301228667" y="105.55753396787863"/>
      <point x="39.69638421528079" y="106.12831217491564"/>
      <point x="36.99105072177162" y="103.93022871143944" type="curve"/>
      <point x="30.271989105856633" y="98.47099114850852" type="line"/>
      <point x="27.855421739445823" y="96.50753016329973"/>
      <point x="27.33096382039649" y="93.01190586286253"/>
      <point x="29.19525629709625" y="90.51803528920411" type="curve"/>
      <point x="69.37167510604174" y="36.77389917598298"/>
      <point x="166.65933635273495" y="-3.0"/>
    </contour>
  </outline>
</glyph>
<glyph name="T" format="2">
  <advance width="548"/>
  <unicode hex="0054"/>
  <anchor x="222" y="0" name="bottom"/>
  <anchor x="293" y="356" name="center"/>
  <anchor x="362" y="700" name="top"/>
  <outline>
    <contour>
      <point x="213.43289984078913" y="7.175035232186715" type="line"/>
      <point x="212.69153344474293" y="3.4627520284553936"/>
      <point x="215.53112873112408" y="0.0"/>
      <point x="219.31671596666524" y="0.0" type="curve"/>
      <point x="227.07975980425985" y="0.0" type="line"/>
      <point x="229.9404829436209" y="0.0"/>
      <point x="232.40333418375582" y="2.019636611306713"/>
      <point x="232.963575930136" y="4.8249647678132845" type="curve"/>
      <point x="367.03642406986404" y="676.1750352321867" type="line"/>
      <point x="367.5966658162442" y="678.9803633886933"/>
      <point x="370.0595170563791" y="681.0"/>
      <point x="372.9202401957401" y="681.0" type="curve"/>
      <point x="623.1316354192797" y="681.0" type="line"/>
      <point x="625.9689586955285" y="681.0"/>
      <point x="628.4184157961663" y="682.9874750317898"/>
      <point x="629.0029341292002" y="685.763937113701" type="curve"/>
      <point x="630.4766183397265" y="692.763937113701" type="line"/>
      <point x="631.2617314074123" y="696.4932241852085"/>
      <point x="628.4163542125361" y="700.0"/>
      <point x="624.605319629806" y="700.0" type="curve"/>
      <point x="96.8683645807203" y="700.0" type="line"/>
      <point x="94.03104130447151" y="700.0"/>
      <point x="91.58158420383373" y="698.0125249682102"/>
      <point x="90.9970658707998" y="695.236062886299" type="curve"/>
      <point x="89.52338166027349" y="688.236062886299" type="line"/>
      <point x="88.73826859258767" y="684.5067758147915"/>
      <point x="91.5836457874639" y="681.0"/>
      <point x="95.39468037019398" y="681.0" type="curve"/>
      <point x="340.68328403333476" y="681.0" type="line"/>
      <point x="344.46887126887594" y="681.0"/>
      <point x="347.3084665552571" y="677.5372479715446"/>
      <point x="346.5671001592109" y="673.8249647678133" type="curve"/>
    </contour>
  </outline>
</glyph>
<glyph name="U" format="2">
  <advance width="794"/>
  <unicode hex="0055"/>
  <anchor x="345" y="0" name="bottom"/>
  <anchor x="531" y="0" name="ogonek"/>
  <anchor x="485" y="700" name="top"/>
  <anchor x="760" y="700" name="topright"/>
  <outline>
    <contour>
      <point x="354" y="-3" type="curve" smooth="yes"/>
      <point x="534" y="-3"/>
      <point x="636" y="102"/>
      <point x="670" y="274" type="curve"/>
      <point x="753.5685599959861" y="692.8259595092949" type="line"/>
      <point x="754.3092178039893" y="696.5379621705816"/>
      <point x="751.4697187116818" y="700.0"/>
      <point x="747.6845453013932" y="700.0" type="curve"/>
      <point x="739.9188234163114" y="700.0" type="line"/>
      <point x="737.0587372960899" y="700.0"/>
      <point x="734.5962483982261" y="697.9812419911301"/>
      <point x="734.0353393621658" y="695.1766968108291" type="curve"/>
      <point x="650" y="275" type="line"/>
      <point x="618" y="118"/>
      <point x="531" y="16"/>
      <point x="358" y="16" type="curve"/>
      <point x="169" y="16"/>
      <point x="124" y="151"/>
      <point x="153" y="290" type="curve"/>
      <point x="233.56466063783418" y="692.8233031891709" type="line"/>
      <point x="234.307210951993" y="696.5360547599649"/>
      <point x="231.46745512540892" y="700.0"/>
      <point x="227.68117658368865" y="700.0" type="curve"/>
      <point x="219.92826857616743" y="700.0" type="line"/>
      <point x="217.0639378561885" y="700.0"/>
      <point x="214.5990370165141" y="697.9753844414106"/>
      <point x="214.04258102258507" y="695.1656251634234" type="curve"/>
      <point x="134" y="291" type="line"/>
      <point x="100" y="132"/>
      <point x="167" y="-3"/>
    </contour>
  </outline>
</glyph>
<glyph name="V" format="2">
  <advance width="670"/>
  <unicode hex="0056"/>
  <outline>
    <contour>
      <point x="271.8638034375545" y="4.5447862497820015" type="line"/>
      <point x="272.53155393954626" y="1.8737842418149202"/>
      <point x="274.9314525871552" y="0.0"/>
      <point x="277.6846584384265" y="0.0" type="curve"/>
      <point x="289.7438837348741" y="0.0" type="line"/>
      <point x="291.77473805842345" y="0.0"/>
      <point x="293.66775348458714" y="1.0273130532110113"/>
      <point x="294.7745454326779" y="2.7300698964275147" type="curve"/>
      <point x="742.1141258135696" y="690.9448089439531" type="line"/>
      <point x="744.6485109868682" y="694.8438630567204"/>
      <point x="741.85034742583" y="700.0"/>
      <point x="737.2" y="700.0" type="curve"/>
      <point x="727.255916415898" y="700.0" type="line"/>
      <point x="725.2251716476999" y="700.0"/>
      <point x="723.3322428622263" y="698.9727970155417"/>
      <point x="722.2254230002856" y="697.2701889846734" type="curve"/>
      <point x="280" y="17" type="line"/>
      <point x="289" y="17" type="line"/>
      <point x="120.13270388904412" y="695.4491955516639" type="line"/>
      <point x="119.46715636971341" y="698.1231305852103"/>
      <point x="117.06586611788714" y="700.0"/>
      <point x="114.31034764324144" y="700.0" type="curve"/>
      <point x="105.6846584384265" y="700.0" type="line"/>
      <point x="101.78123151901461" y="700.0"/>
      <point x="98.91708334987129" y="696.3316666005148"/>
      <point x="99.8638034375545" y="692.544786249782" type="curve"/>
    </contour>
  </outline>
</glyph>
<glyph name="W" format="2">
  <advance width="1080"/>
  <unicode hex="0057"/>
  <anchor x="488" y="0" name="bottom"/>
  <anchor x="628" y="700" name="top"/>
  <outline>
    <contour>
      <point x="232.2640754482034" y="5.151471862576142" type="line"/>
      <point x="232.68634579535097" y="2.1955794325433167"/>
      <point x="235.21787015055014" y="0.0"/>
      <point x="238.20377241017042" y="0.0" type="curve"/>
      <point x="249.45535532938231" y="0.0" type="line"/>
      <point x="251.64191886781208" y="0.0"/>
      <point x="253.65536139799642" y="1.1894897223687992"/>
      <point x="254.71051878395073" y="3.104614522076787" type="curve"/>
      <point x="626" y="677" type="line"/>
      <point x="621" y="676" type="line"/>
      <point x="722.2297479574573" y="5.104807654498547" type="line"/>
      <point x="722.6725703071027" y="2.170024239201927"/>
      <point x="725.194587752293" y="0.0"/>
      <point x="728.1625913452905" y="0.0" type="curve"/>
      <point x="739.4300659136892" y="0.0" type="line"/>
      <point x="741.630041748339" y="0.0"/>
      <point x="743.653595934386" y="1.203992510711059"/>
      <point x="744.7031865036834" y="3.1374488225745956" type="curve"/>
      <point x="1118.276790557248" y="691.2993510265096" type="line"/>
      <point x="1120.4074574026527" y="695.2242636364654"/>
      <point x="1117.5659467307498" y="700.0"/>
      <point x="1113.1" y="700.0" type="curve"/>
      <point x="1104.5688843419364" y="700.0" type="line"/>
      <point x="1102.36946448284" y="700.0"/>
      <point x="1100.3463286032054" y="698.7966103395938"/>
      <point x="1099.2965037487104" y="696.8639139093511" type="curve"/>
      <point x="730" y="17" type="line"/>
      <point x="740" y="17" type="line"/>
      <point x="637.7699039000964" y="694.8947149148943" type="line"/>
      <point x="637.327290416342" y="697.8297150061981"/>
      <point x="634.8051751844506" y="700.0"/>
      <point x="631.8369884935644" y="700.0" type="curve"/>
      <point x="620.5460349269874" y="700.0" type="line"/>
      <point x="618.3587330727348" y="700.0"/>
      <point x="616.3447328104929" y="698.809714121188"/>
      <point x="615.2898772487933" y="696.8935802152283" type="curve"/>
      <point x="241" y="17" type="line"/>
      <point x="250" y="17" type="line"/>
      <point x="153.7323063636956" y="694.8436572535659" type="line"/>
      <point x="153.3121972673924" y="697.8017450141339"/>
      <point x="150.7796864823515" y="700.0"/>
      <point x="147.79191559889694" y="700.0" type="curve"/>
      <point x="139.9180581244561" y="700.0" type="line"/>
      <point x="136.26676203833708" y="700.0"/>
      <point x="133.4619899179662" y="696.7660705742367"/>
      <point x="133.97836116248914" y="693.1514718625762" type="curve"/>
    </contour>
  </outline>
</glyph>
<glyph name="X" format="2">
  <advance width="621"/>
  <unicode hex="0058"/>
  <outline>
    <contour>
      <point x="-19.55649132722686" y="7.825227066248688" type="line"/>
      <point x="-22.362619168420547" y="4.8751952331989115"/>
      <point x="-20.27149128417701" y="0.0"/>
      <point x="-16.2" y="0.0" type="curve"/>
      <point x="-5.567643970035422" y="0.0" type="line"/>
      <point x="-3.927804101289766" y="0.0"/>
      <point x="-2.3594192507653164" y="0.6711756506906684"/>
      <point x="-1.2272299768811656" y="1.8574396361633159" type="curve"/>
      <point x="330.32687222879275" y="349.2469616486754" type="line"/>
      <point x="331.12785725060405" y="350.08620267152844"/>
      <point x="330.8271540166207" y="351.4691383933517"/>
      <point x="329.75" y="351.9" type="curve"/>
      <point x="329.25" y="352.1" type="line"/>
      <point x="328.49701534186045" y="352.4011938632558"/>
      <point x="327.78267995735956" y="351.5903774237351"/>
      <point x="328.17636062558347" y="350.8813505059645" type="curve"/>
      <point x="521.2857472370324" y="3.087404210854831" type="line"/>
      <point x="522.3437571578455" y="1.1819067514313164"/>
      <point x="524.3518721230049" y="0.0"/>
      <point x="526.5313916940133" y="0.0" type="curve"/>
      <point x="534.55" y="0.0" type="line"/>
      <point x="538.7863998031155" y="0.0"/>
      <point x="541.4617156994781" y="4.553980656818678"/>
      <point x="539.3991894786514" y="8.254395347125527" type="curve"/>
      <point x="341.3145172918139" y="363.6416013293927" type="line"/>
      <point x="340.9622826411952" y="364.2735517319733"/>
      <point x="340.0" y="364.0234850105001"/>
      <point x="340.0" y="363.3" type="curve"/>
      <point x="340.0" y="362.7" type="line"/>
      <point x="340.0" y="361.72481159109344"/>
      <point x="341.1898919978712" y="361.2486520965315"/>
      <point x="341.86264309147845" y="361.9546254663663" type="curve"/>
      <point x="656.5494276340862" y="692.1814981345349" type="line"/>
      <point x="659.3560967906926" y="695.1267682371466"/>
      <point x="657.2684158750039" y="700.0"/>
      <point x="653.2" y="700.0" type="curve"/>
      <point x="642.5684395792283" y="700.0" type="line"/>
      <point x="640.9281325847794" y="700.0"/>
      <point x="639.3593429652789" y="699.3284431082988"/>
      <point x="638.2270971715964" y="698.1415873888759" type="curve"/>
      <point x="332.1980188964332" y="377.3522641808271" type="line"/>
      <point x="330.5799067092806" y="375.65610799750954"/>
      <point x="331.00080811896476" y="372.88843993390844"/>
      <point x="333.05" y="371.75" type="curve"/>
      <point x="333.95" y="371.25" type="line"/>
      <point x="335.1133695052959" y="370.6036836081689"/>
      <point x="336.3955760931015" y="371.8862190933881"/>
      <point x="335.74896134615767" y="373.04942279577074" type="curve"/>
      <point x="155.7148117957792" y="696.9152026934624" type="line"/>
      <point x="154.65637372481459" y="698.8192407450347"/>
      <point x="152.64906740182442" y="700.0"/>
      <point x="150.47061564612676" y="700.0" type="curve"/>
      <point x="142.45" y="700.0" type="line"/>
      <point x="138.21324904388257" y="700.0"/>
      <point x="135.53744515198338" y="695.4459537009141"/>
      <point x="137.59959930638277" y="691.744929665913" type="curve"/>
      <point x="320.79879043161236" y="362.95059190957994" type="line"/>
      <point x="321.4749468082851" y="361.737069149341"/>
      <point x="323.31177128526406" y="362.11771285264035"/>
      <point x="323.45" y="363.5" type="curve"/>
      <point x="323.55" y="364.5" type="line"/>
      <point x="323.69696142840127" y="365.9696142840126"/>
      <point x="321.90099950806865" y="366.7933584572004"/>
      <point x="320.8830693189123" y="365.7232267198822" type="curve"/>
    </contour>
  </outline>
</glyph>
<glyph name="Y" format="2">
  <advance width="610"/>
  <unicode hex="0059"/>
  <guideline x="279" y="129" angle="258.7"/>
  <anchor x="253" y="0" name="bottom"/>
  <anchor x="301" y="241" name="center"/>
  <anchor x="393" y="700" name="top"/>
  <anchor x="108" y="700" name="topleft"/>
  <outline>
    <contour>
      <point x="244.43533936216582" y="7.176696810829101" type="line"/>
      <point x="243.692789048007" y="3.4639452400350192"/>
      <point x="246.53254487459108" y="0.0"/>
      <point x="250.31882341631135" y="0.0" type="curve"/>
      <point x="258.08117658368866" y="0.0" type="line"/>
      <point x="260.9412627039101" y="0.0"/>
      <point x="263.403751601774" y="2.0187580088699324"/>
      <point x="263.9646606378342" y="4.823303189170896" type="curve"/>
      <point x="312" y="245" type="line"/>
      <point x="304" y="228" type="line"/>
      <point x="680.9002659915675" y="691.2732436146351" type="line"/>
      <point x="683.7443885545621" y="694.7691442649826"/>
      <point x="681.2567010673479" y="700.0"/>
      <point x="676.75" y="700.0" type="curve"/>
      <point x="665.8558230480331" y="700.0" type="line"/>
      <point x="664.0490515865109" y="700.0"/>
      <point x="662.3384758062026" y="699.1858163768648"/>
      <point x="661.1991390473355" y="697.7835557505668" type="curve"/>
      <point x="299" y="252" type="line"/>
      <point x="306" y="253" type="line"/>
      <point x="121.53749507059902" y="696.3050521690443" type="line"/>
      <point x="120.606543732022" y="698.5423384504633"/>
      <point x="118.42118003184244" y="700.0"/>
      <point x="115.99793421273455" y="700.0" type="curve"/>
      <point x="107.00294628685577" y="700.0" type="line"/>
      <point x="102.72069889350156" y="700.0"/>
      <point x="99.81696982352092" y="695.6429805252304"/>
      <point x="101.46518218912775" y="691.6906345464794" type="curve"/>
      <point x="294" y="230" type="line"/>
      <point x="292" y="245" type="line"/>
    </contour>
  </outline>
</glyph>
<glyph name="Z" format="2">
  <advance width="639"/>
  <unicode hex="005A"/>
  <anchor x="283" y="0" name="bottom"/>
  <anchor x="413" y="700" name="top"/>
  <outline>
    <contour>
      <point x="-0.6500000000000001" y="6.75" type="line"/>
      <point x="-1.348401333188404" y="3.2579933340579807"/>
      <point x="1.322514317103372" y="0.0"/>
      <point x="4.88367634335026" y="0.0" type="curve"/>
      <point x="543.1316354192797" y="0.0" type="line"/>
      <point x="545.9689586955285" y="0.0"/>
      <point x="548.4184157961663" y="1.987475031789805"/>
      <point x="549.0029341292002" y="4.763937113700948" type="curve"/>
      <point x="550.4766183397265" y="11.763937113700948" type="line"/>
      <point x="551.2617314074123" y="15.493224185208533"/>
      <point x="548.416354212536" y="19.0"/>
      <point x="544.605319629806" y="19.0" type="curve"/>
      <point x="27" y="19" type="line"/>
      <point x="25" y="12" type="line"/>
      <point x="673.7774010197662" y="683.7341398250811" type="line"/>
      <point x="674.5756524127133" y="684.560637036548"/>
      <point x="675.1197932013754" y="685.5989660068765"/>
      <point x="675.3451393391368" y="686.725696695684" type="curve"/>
      <point x="676.65" y="693.25" type="line"/>
      <point x="677.3484013331883" y="696.742006665942"/>
      <point x="674.6774856828965" y="700.0"/>
      <point x="671.1163236566497" y="700.0" type="curve"/>
      <point x="147.86836458072028" y="700.0" type="line"/>
      <point x="145.0310413044715" y="700.0"/>
      <point x="142.5815842038337" y="698.0125249682102"/>
      <point x="141.9970658707998" y="695.236062886299" type="curve"/>
      <point x="140.5233816602735" y="688.236062886299" type="line"/>
      <point x="139.73826859258767" y="684.5067758147915"/>
      <point x="142.5836457874639" y="681.0"/>
      <point x="146.39468037019398" y="681.0" type="curve"/>
      <point x="649" y="681" type="line"/>
      <point x="650" y="688" type="line"/>
      <point x="2.2198849900159123" y="16.264996299353943" type="line"/>
      <point x="1.4233597710573929" y="15.439015602344568"/>
      <point x="0.8803903472425451" y="14.401951736212725"/>
      <point x="0.6553521849858182" y="13.276760924929091" type="curve"/>
    </contour>
  </outline>
</glyph>
<glyph name="bracketleft" format="2">
  <advance width="288"/>
  <unicode hex="005B"/>
  <outline>
    <contour>
      <point x="43.43356436282961" y="-186.82451206626462" type="line"/>
      <point x="42.69187544472743" y="-190.5369229076745"/>
      <point x="45.5315144879225" y="-194.0"/>
      <point x="49.317290063237685" y="-194.0" type="curve"/>
      <point x="167.13163541927972" y="-194.0" type="line"/>
      <point x="169.9689586955285" y="-194.0"/>
      <point x="172.41841579616627" y="-192.0125249682102"/>
      <point x="173.0029341292002" y="-189.23606288629907" type="curve"/>
      <point x="174.4766183397265" y="-182.23606288629904" type="line"/>
      <point x="175.26173140741233" y="-178.50677581479147"/>
      <point x="172.4163542125361" y="-175.0"/>
      <point x="168.60531962980602" y="-175.0" type="curve"/>
      <point x="73.31402955887064" y="-175.0" type="line"/>
      <point x="69.52932382329212" y="-175.0"/>
      <point x="66.68993352581934" y="-171.53876923918563"/>
      <point x="67.42979064947107" y="-167.8270837808658" type="curve"/>
      <point x="244.03780846684302" y="718.1729162191342" type="line"/>
      <point x="244.5971987050155" y="720.979242665385"/>
      <point x="247.06051185112867" y="723.0"/>
      <point x="249.92204737624257" y="723.0" type="curve"/>
      <point x="350.1316354192797" y="723.0" type="line"/>
      <point x="352.9689586955285" y="723.0"/>
      <point x="355.4184157961663" y="724.9874750317898"/>
      <point x="356.0029341292002" y="727.763937113701" type="curve"/>
      <point x="357.47661833972654" y="734.763937113701" type="line"/>
      <point x="358.2617314074123" y="738.4932241852085"/>
      <point x="355.4163542125361" y="742.0"/>
      <point x="351.60531962980605" y="742.0" type="curve"/>
      <point x="233.91985416580178" y="742.0" type="line"/>
      <point x="231.05930458363508" y="742.0"/>
      <point x="228.59655205167516" y="739.9806027827163"/>
      <point x="228.03612846539372" y="737.1754879337353" type="curve"/>
    </contour>
  </outline>
</glyph>
<glyph name="bracketright" format="2">
  <advance width="288"/>
  <unicode hex="005D"/>
  <outline>
    <contour>
      <point x="61.080145834198206" y="-194.0" type="line"/>
      <point x="63.94069541636492" y="-194.0"/>
      <point x="66.40344794832482" y="-191.98060278271635"/>
      <point x="66.96387153460628" y="-189.17548793373538" type="curve"/>
      <point x="251.5664356371704" y="734.8245120662647" type="line"/>
      <point x="252.30812455527257" y="738.5369229076745"/>
      <point x="249.4684855120775" y="742.0"/>
      <point x="245.6827099367623" y="742.0" type="curve"/>
      <point x="127.8683645807203" y="742.0" type="line"/>
      <point x="125.03104130447151" y="742.0"/>
      <point x="122.58158420383373" y="740.0125249682102"/>
      <point x="121.9970658707998" y="737.236062886299" type="curve"/>
      <point x="120.52338166027349" y="730.236062886299" type="line"/>
      <point x="119.73826859258767" y="726.5067758147915"/>
      <point x="122.5836457874639" y="723.0"/>
      <point x="126.39468037019398" y="723.0" type="curve"/>
      <point x="221.68597044112934" y="723.0" type="line"/>
      <point x="225.47067617670788" y="723.0"/>
      <point x="228.31006647418064" y="719.5387692391856"/>
      <point x="227.57020935052893" y="715.8270837808658" type="curve"/>
      <point x="50.96219153315699" y="-170.1729162191342" type="line"/>
      <point x="50.40280129498451" y="-172.97924266538496"/>
      <point x="47.939488148871334" y="-175.0"/>
      <point x="45.07795262375741" y="-175.0" type="curve"/>
      <point x="-55.131635419279704" y="-175.0" type="line"/>
      <point x="-57.968958695528485" y="-175.0"/>
      <point x="-60.41841579616627" y="-176.9874750317898"/>
      <point x="-61.0029341292002" y="-179.76393711370093" type="curve"/>
      <point x="-62.476618339726514" y="-186.76393711370096" type="line"/>
      <point x="-63.26173140741232" y="-190.49322418520853"/>
      <point x="-60.4163542125361" y="-194.0"/>
      <point x="-56.60531962980602" y="-194.0" type="curve"/>
    </contour>
  </outline>
</glyph>
<glyph name="asciicircum" format="2">
  <advance width="562"/>
  <unicode hex="005E"/>
  <outline>
    <contour>
      <point x="81.43519188016838" y="153.80801846193296" type="line"/>
      <point x="79.06090921105714" y="149.9603667056657"/>
      <point x="81.82875656148131" y="145.0"/>
      <point x="86.35" y="145.0" type="curve"/>
      <point x="95.64501465074925" y="145.0" type="line"/>
      <point x="97.72977995714218" y="145.0"/>
      <point x="99.66511060209132" y="146.08216765996005"/>
      <point x="100.75673210180759" y="147.8582895263017" type="curve"/>
      <point x="341.114973715781" y="538.932969529365" type="line"/>
      <point x="341.939304861645" y="540.2741968445617"/>
      <point x="340.97429747794735" y="542.0"/>
      <point x="339.4" y="542.0" type="curve"/>
      <point x="338.6" y="542.0" type="line"/>
      <point x="336.7453618973171" y="542.0"/>
      <point x="335.3612968103998" y="540.2924424556105"/>
      <point x="335.7452142271689" y="538.4779756168327" type="curve"/>
      <point x="417.99327453854823" y="149.75797628805182" type="line"/>
      <point x="418.580138469821" y="146.98434556525066"/>
      <point x="421.02827784754805" y="145.0"/>
      <point x="423.8633151771604" y="145.0" type="curve"/>
      <point x="432.5578258500319" y="145.0" type="line"/>
      <point x="436.3842347818507" y="145.0"/>
      <point x="439.2329777055802" y="148.5334734911474"/>
      <point x="438.4212709765204" y="152.27279662501823" type="curve"/>
      <point x="352.0261490253009" y="550.2727966250183" type="line"/>
      <point x="351.4272484171887" y="553.0317769545238"/>
      <point x="348.98593863878637" y="555.0"/>
      <point x="346.16270389881237" y="555.0" type="curve"/>
      <point x="332.34795491703795" y="555.0" type="line"/>
      <point x="330.2670041129363" y="555.0"/>
      <point x="328.3346463317129" y="553.9217588774794"/>
      <point x="327.24185725794644" y="552.1508358725614" type="curve"/>
    </contour>
  </outline>
</glyph>
<glyph name="underscore" format="2">
  <advance width="500"/>
  <unicode hex="005F"/>
  <outline>
    <contour>
      <point x="-53.476618339726514" y="-11.763937113700948" type="line"/>
      <point x="-54.26173140741232" y="-15.493224185208533"/>
      <point x="-51.4163542125361" y="-19.0"/>
      <point x="-47.60531962980602" y="-19.0" type="curve"/>
      <point x="440.1316354192797" y="-19.0" type="line"/>
      <point x="442.96895869552844" y="-19.0"/>
      <point x="445.41841579616624" y="-17.012524968210194"/>
      <point x="446.0029341292002" y="-14.236062886299052" type="curve"/>
      <point x="447.47661833972654" y="-7.2360628862990515" type="line"/>
      <point x="448.26173140741236" y="-3.5067758147914674"/>
      <point x="445.41635421253613" y="0.0"/>
      <point x="441.60531962980605" y="0.0" type="curve"/>
      <point x="-46.131635419279704" y="0.0" type="line"/>
      <point x="-48.968958695528485" y="0.0"/>
      <point x="-51.41841579616627" y="-1.987475031789805"/>
      <point x="-52.0029341292002" y="-4.763937113700948" type="curve"/>
    </contour>
  </outline>
</glyph>
<glyph name="a" format="2">
  <advance width="671"/>
  <unicode hex="0061"/>
  <anchor x="265" y="0" name="bottom"/>
  <anchor x="504" y="0" name="ogonek"/>
  <anchor x="368" y="517" name="top"/>
  <outline>
    <contour>
      <point x="269" y="-3" type="curve" smooth="yes"/>
      <point x="440" y="-3"/>
      <point x="558" y="133"/>
      <point x="557" y="312" type="curve" smooth="yes"/>
      <point x="556" y="442"/>
      <point x="479" y="520"/>
      <point x="341" y="520" type="curve" smooth="yes"/>
      <point x="171" y="520"/>
      <point x="49" y="386"/>
      <point x="49" y="207" type="curve" smooth="yes"/>
      <point x="49" y="78"/>
      <point x="134" y="-3"/>
    </contour>
    <contour>
      <point x="272" y="16" type="curve" smooth="yes"/>
      <point x="144" y="16"/>
      <point x="69" y="86"/>
      <point x="69" y="208" type="curve" smooth="yes"/>
      <point x="69" y="376"/>
      <point x="183" y="501"/>
      <point x="338" y="501" type="curve" smooth="yes"/>
      <point x="466" y="501"/>
      <point x="541" y="431"/>
      <point x="541" y="309" type="curve" smooth="yes"/>
      <point x="541" y="140"/>
      <point x="427" y="16"/>
    </contour>
    <contour>
      <point x="486.43533936216585" y="7.1766968108291005" type="line"/>
      <point x="485.692789048007" y="3.463945240035019"/>
      <point x="488.53254487459105" y="0.0"/>
      <point x="492.3188234163113" y="0.0" type="curve"/>
      <point x="500.0774431276074" y="0.0" type="line"/>
      <point x="502.9392076537187" y="0.0"/>
      <point x="505.40265096736795" y="2.021073302225597"/>
      <point x="505.9618010714031" y="4.827681105974933" type="curve"/>
      <point x="606.5710854040917" y="509.82768110597493" type="line"/>
      <point x="607.3105171988072" y="513.5391979784788"/>
      <point x="604.4711847363023" y="517.0"/>
      <point x="600.686727460296" y="517.0" type="curve"/>
      <point x="592.9188234163114" y="517.0" type="line"/>
      <point x="590.0587372960899" y="517.0"/>
      <point x="587.5962483982261" y="514.9812419911301"/>
      <point x="587.0353393621658" y="512.1766968108291" type="curve"/>
      <point x="550" y="327" type="line"/>
      <point x="547" y="250" type="line"/>
      <point x="521" y="180" type="line"/>
    </contour>
  </outline>
</glyph>
<glyph name="b" format="2">
  <advance width="671"/>
  <unicode hex="0062"/>
  <outline>
    <contour>
      <point x="64.43086213214252" y="7.1736466354712585" type="line"/>
      <point x="63.69048484099039" y="3.4617550811815523"/>
      <point x="66.52994582929027" y="0.0"/>
      <point x="70.31495539916735" y="0.0" type="curve"/>
      <point x="78.08117658368866" y="0.0" type="line"/>
      <point x="80.9412627039101" y="0.0"/>
      <point x="83.40375160177399" y="2.018758008869933"/>
      <point x="83.96466063783419" y="4.823303189170896" type="curve"/>
      <point x="121" y="190" type="line"/>
      <point x="124" y="267" type="line"/>
      <point x="150" y="337" type="line"/>
      <point x="229.56466063783418" y="734.8233031891709" type="line"/>
      <point x="230.307210951993" y="738.5360547599649"/>
      <point x="227.46745512540892" y="742.0"/>
      <point x="223.68117658368865" y="742.0" type="curve"/>
      <point x="215.92142440186277" y="742.0" type="line"/>
      <point x="213.06016890257385" y="742.0"/>
      <point x="210.59701494983196" y="739.9796290052385"/>
      <point x="210.03733113483793" y="737.1736466354713" type="curve"/>
    </contour>
    <contour>
      <point x="330" y="-3" type="curve" smooth="yes"/>
      <point x="500" y="-3"/>
      <point x="622" y="131"/>
      <point x="622" y="310" type="curve" smooth="yes"/>
      <point x="622" y="439"/>
      <point x="537" y="520"/>
      <point x="402" y="520" type="curve" smooth="yes"/>
      <point x="231" y="520"/>
      <point x="113" y="384"/>
      <point x="114" y="205" type="curve" smooth="yes"/>
      <point x="115" y="75"/>
      <point x="192" y="-3"/>
    </contour>
    <contour>
      <point x="333" y="16" type="curve" smooth="yes"/>
      <point x="205" y="16"/>
      <point x="130" y="86"/>
      <point x="130" y="208" type="curve" smooth="yes"/>
      <point x="130" y="377"/>
      <point x="244" y="501"/>
      <point x="399" y="501" type="curve" smooth="yes"/>
      <point x="527" y="501"/>
      <point x="602" y="431"/>
      <point x="602" y="309" type="curve" smooth="yes"/>
      <point x="602" y="141"/>
      <point x="488" y="16"/>
    </contour>
  </outline>
</glyph>
<glyph name="d" format="2">
  <advance width="671"/>
  <unicode hex="0064"/>
  <anchor x="276" y="0" name="bottom"/>
  <anchor x="556" y="630" name="center"/>
  <anchor x="752" y="742" name="topright"/>
  <outline>
    <contour>
      <point x="269" y="-3" type="curve" smooth="yes"/>
      <point x="440" y="-3"/>
      <point x="558" y="133"/>
      <point x="557" y="312" type="curve" smooth="yes"/>
      <point x="556" y="442"/>
      <point x="479" y="520"/>
      <point x="341" y="520" type="curve" smooth="yes"/>
      <point x="171" y="520"/>
      <point x="49" y="386"/>
      <point x="49" y="207" type="curve" smooth="yes"/>
      <point x="49" y="78"/>
      <point x="134" y="-3"/>
    </contour>
    <contour>
      <point x="272" y="16" type="curve" smooth="yes"/>
      <point x="144" y="16"/>
      <point x="69" y="86"/>
      <point x="69" y="208" type="curve" smooth="yes"/>
      <point x="69" y="376"/>
      <point x="183" y="501"/>
      <point x="338" y="501" type="curve" smooth="yes"/>
      <point x="466" y="501"/>
      <point x="541" y="431"/>
      <point x="541" y="309" type="curve" smooth="yes"/>
      <point x="541" y="140"/>
      <point x="427" y="16"/>
    </contour>
    <contour>
      <point x="486.43533936216585" y="7.1766968108291005" type="line"/>
      <point x="485.692789048007" y="3.463945240035019"/>
      <point x="488.53254487459105" y="0.0"/>
      <point x="492.3188234163113" y="0.0" type="curve"/>
      <point x="500.0785755981372" y="0.0" type="line"/>
      <point x="502.9398310974262" y="0.0"/>
      <point x="505.40298505016807" y="2.020370994761445"/>
      <point x="505.9626688651621" y="4.82635336452874" type="curve"/>
      <point x="651.5691378678575" y="734.8263533645287" type="line"/>
      <point x="652.3095151590096" y="738.5382449188185"/>
      <point x="649.4700541707098" y="742.0"/>
      <point x="645.6850446008326" y="742.0" type="curve"/>
      <point x="637.9188234163114" y="742.0" type="line"/>
      <point x="635.0587372960899" y="742.0"/>
      <point x="632.5962483982261" y="739.9812419911301"/>
      <point x="632.0353393621658" y="737.1766968108291" type="curve"/>
      <point x="550" y="327" type="line"/>
      <point x="547" y="250" type="line"/>
      <point x="521" y="180" type="line"/>
    </contour>
  </outline>
</glyph>
<glyph name="e" format="2">
  <advance width="589"/>
  <unicode hex="0065"/>
  <guideline x="428" y="91" angle="90"/>
  <anchor x="240" y="0" name="bottom"/>
  <anchor x="425" y="0" name="ogonek"/>
  <anchor x="339" y="517" name="top"/>
  <outline>
    <contour>
      <point x="278" y="-3" type="curve" smooth="yes"/>
      <point x="359.7418557478213" y="-3.0"/>
      <point x="432.9610954483242" y="28.249592173500815"/>
      <point x="475.5417047670971" y="76.00476696422798" type="curve"/>
      <point x="477.5519101978025" y="78.25926057633046"/>
      <point x="477.4646741762441" y="81.66326964240223"/>
      <point x="475.4159013851724" y="83.88277349939655" type="curve"/>
      <point x="471.5281503253736" y="88.09450381417861" type="line"/>
      <point x="469.10926176583877" y="90.7149664203413"/>
      <point x="464.95722031739894" y="90.6538123826126"/>
      <point x="462.51682771070057" y="88.05336433296479" type="curve"/>
      <point x="420.25031832824976" y="43.014766204397624"/>
      <point x="354.2828774752279" y="16.0"/>
      <point x="279" y="16" type="curve" smooth="yes"/>
      <point x="143" y="16"/>
      <point x="69" y="85"/>
      <point x="69" y="210" type="curve" smooth="yes"/>
      <point x="69" y="377"/>
      <point x="179" y="501"/>
      <point x="326" y="501" type="curve" smooth="yes"/>
      <point x="453" y="501"/>
      <point x="538" y="418"/>
      <point x="515" y="267" type="curve"/>
      <point x="523" y="278" type="line"/>
      <point x="70" y="278" type="line"/>
      <point x="66" y="259" type="line"/>
      <point x="527.0811765836886" y="259.0" type="line"/>
      <point x="529.9412627039101" y="259.0"/>
      <point x="532.4114667542933" y="261.01757873207714"/>
      <point x="532.9130109614913" y="263.8333461271774" type="curve"/>
      <point x="535.3989133877672" y="277.78968915507176"/>
      <point x="537.0" y="293.8948445775359"/>
      <point x="537" y="310" type="curve" smooth="yes"/>
      <point x="537" y="441"/>
      <point x="457" y="520"/>
      <point x="326" y="520" type="curve" smooth="yes"/>
      <point x="167" y="520"/>
      <point x="50" y="386"/>
      <point x="50" y="210" type="curve" smooth="yes"/>
      <point x="50" y="74"/>
      <point x="135" y="-3"/>
    </contour>
  </outline>
</glyph>
<glyph name="f" format="2">
  <advance width="311"/>
  <unicode hex="0066"/>
  <outline>
    <contour>
      <point x="72.43533936216582" y="7.176696810829101" type="line"/>
      <point x="71.692789048007" y="3.4639452400350192"/>
      <point x="74.53254487459108" y="0.0"/>
      <point x="78.31882341631135" y="0.0" type="curve"/>
      <point x="86.08309014750425" y="0.0" type="line"/>
      <point x="88.94231569890617" y="0.0"/>
      <point x="91.40431489343125" y="2.017571349399487"/>
      <point x="91.96612482389358" y="4.821058527152139" type="curve"/>
      <point x="192" y="504" type="line"/>
      <point x="194" y="514" type="line"/>
      <point x="213" y="609" type="line" smooth="yes"/>
      <point x="229" y="691"/>
      <point x="270" y="726"/>
      <point x="341" y="726" type="curve" smooth="yes"/>
      <point x="372.5659281172875" y="726.0"/>
      <point x="399.82213383878883" y="716.5186107292704"/>
      <point x="418.76742930124374" y="699.1563073331154" type="curve"/>
      <point x="421.190770694724" y="696.9354505199055"/>
      <point x="424.9382489343681" y="696.7998025819132"/>
      <point x="427.34698790124463" y="699.0364887654414" type="curve"/>
      <point x="432.8329739249792" y="704.1306186446236" type="line"/>
      <point x="435.16963950849964" y="706.3003795436068"/>
      <point x="435.41593102668077" y="709.9377923140657"/>
      <point x="433.1952575586874" y="712.2261274635829" type="curve"/>
      <point x="412.5287604680528" y="733.5223118830894"/>
      <point x="377.7058297769845" y="745.0"/>
      <point x="342" y="745" type="curve" smooth="yes"/>
      <point x="262" y="745"/>
      <point x="211" y="701"/>
      <point x="194" y="615" type="curve" smooth="yes"/>
    </contour>
    <contour>
      <point x="72.09512243802706" y="504.9357754408381" type="line"/>
      <point x="71.52010527421253" y="501.2940000700127"/>
      <point x="74.33480823399297" y="498.0"/>
      <point x="78.02170023000147" y="498.0" type="curve"/>
      <point x="360.87303661210376" y="498.0" type="line"/>
      <point x="363.825478034829" y="498.0"/>
      <point x="366.3391440417617" y="500.1479122644904"/>
      <point x="366.7996144040782" y="503.0642245591619" type="curve"/>
      <point x="367.9048775619729" y="510.0642245591619" type="line"/>
      <point x="368.47989472578746" y="513.7059999299872"/>
      <point x="365.665191766007" y="517.0"/>
      <point x="361.9782997699985" y="517.0" type="curve"/>
      <point x="79.12696338789621" y="517.0" type="line"/>
      <point x="76.17452196517094" y="517.0"/>
      <point x="73.66085595823836" y="514.8520877355096"/>
      <point x="73.2003855959218" y="511.9357754408381" type="curve"/>
    </contour>
  </outline>
</glyph>
<glyph name="g" format="2">
  <advance width="677"/>
  <unicode hex="0067"/>
  <anchor x="366" y="517" name="top"/>
  <outline>
    <contour>
      <point x="237" y="-197" type="curve" smooth="yes"/>
      <point x="400" y="-197"/>
      <point x="487" y="-125"/>
      <point x="521" y="46" type="curve" smooth="yes"/>
      <point x="613.5681875474143" y="509.82570568970334" type="line"/>
      <point x="614.309026146101" y="513.5377799448253"/>
      <point x="611.469502502872" y="517.0"/>
      <point x="607.6842235032681" y="517.0" type="curve"/>
      <point x="599.9342457657345" y="517.0" type="line"/>
      <point x="597.0672315785912" y="517.0"/>
      <point x="594.6008088380613" y="514.971677339338"/>
      <point x="594.0471762714377" y="512.1586253791967" type="curve"/>
      <point x="558" y="329" type="line"/>
      <point x="556" y="269" type="line"/>
      <point x="534" y="209" type="line"/>
      <point x="501" y="43" type="line" smooth="yes"/>
      <point x="471" y="-110"/>
      <point x="387" y="-178"/>
      <point x="238" y="-178" type="curve" smooth="yes"/>
      <point x="154.52199240971186" y="-178.0"/>
      <point x="85.17711979355339" y="-151.6181480482913"/>
      <point x="42.76947771821412" y="-101.59817890916443" type="curve"/>
      <point x="40.64031272480658" y="-99.08682100171109"/>
      <point x="36.90559814798991" y="-98.62897921823006"/>
      <point x="34.30669123163076" y="-100.65035126428718" type="curve"/>
      <point x="25.898447442828463" y="-107.19009643335563" type="line"/>
      <point x="23.22022322263354" y="-109.27315971572946"/>
      <point x="22.794280684184226" y="-113.16733604382466"/>
      <point x="25.0490811341511" y="-115.70266887066258" type="curve"/>
      <point x="70.53952026345434" y="-166.852828803214"/>
      <point x="145.7619177825809" y="-197.0"/>
    </contour>
    <contour>
      <point x="274" y="17" type="curve" smooth="yes"/>
      <point x="446" y="17"/>
      <point x="565" y="148"/>
      <point x="564" y="318" type="curve" smooth="yes"/>
      <point x="563" y="445"/>
      <point x="483" y="520"/>
      <point x="345" y="520" type="curve" smooth="yes"/>
      <point x="174" y="520"/>
      <point x="51" y="391"/>
      <point x="51" y="219" type="curve" smooth="yes"/>
      <point x="51" y="94"/>
      <point x="136" y="17"/>
    </contour>
    <contour>
      <point x="276" y="36" type="curve" smooth="yes"/>
      <point x="147" y="36"/>
      <point x="71" y="103"/>
      <point x="71" y="220" type="curve" smooth="yes"/>
      <point x="71" y="381"/>
      <point x="186" y="501"/>
      <point x="343" y="501" type="curve" smooth="yes"/>
      <point x="472" y="501"/>
      <point x="548" y="434"/>
      <point x="548" y="317" type="curve" smooth="yes"/>
      <point x="548" y="155"/>
      <point x="433" y="36"/>
    </contour>
  </outline>
</glyph>
<glyph name="h" format="2">
  <advance width="668"/>
  <unicode hex="0068"/>
  <anchor x="283" y="0" name="bottom"/>
  <anchor x="263" y="630" name="center"/>
  <anchor x="221" y="742" name="top"/>
  <anchor x="279" y="517" name="topright"/>
  <outline>
    <contour>
      <point x="393" y="520" type="curve" smooth="yes"/>
      <point x="284" y="520"/>
      <point x="195" y="472"/>
      <point x="146" y="362" type="curve"/>
      <point x="153.37530087320923" y="365.6876504366046" type="line"/>
      <point x="155.03137091840588" y="366.5156854592029"/>
      <point x="156.21238597593654" y="368.0619298796827"/>
      <point x="156.575503354355" y="369.877516771775" type="curve"/>
      <point x="229.56466063783418" y="734.8233031891709" type="line"/>
      <point x="230.307210951993" y="738.5360547599649"/>
      <point x="227.46745512540892" y="742.0"/>
      <point x="223.68117658368865" y="742.0" type="curve"/>
      <point x="215.92142440186277" y="742.0" type="line"/>
      <point x="213.06016890257385" y="742.0"/>
      <point x="210.59701494983196" y="739.9796290052385"/>
      <point x="210.03733113483793" y="737.1736466354713" type="curve"/>
      <point x="64.43086213214252" y="7.1736466354712585" type="line"/>
      <point x="63.69048484099039" y="3.4617550811815523"/>
      <point x="66.52994582929027" y="0.0"/>
      <point x="70.31495539916735" y="0.0" type="curve"/>
      <point x="78.07444871394466" y="0.0" type="line"/>
      <point x="80.93755882465504" y="0.0"/>
      <point x="83.40176665279233" y="2.022930339498202"/>
      <point x="83.9595048222524" y="4.831190947130516" type="curve"/>
      <point x="140" y="287" type="line" smooth="yes"/>
      <point x="168" y="427"/>
      <point x="260" y="501"/>
      <point x="391" y="501" type="curve" smooth="yes"/>
      <point x="519" y="501"/>
      <point x="572" y="426"/>
      <point x="548" y="305" type="curve" smooth="yes"/>
      <point x="488.43533936216585" y="7.176696810829101" type="line"/>
      <point x="487.692789048007" y="3.4639452400350192"/>
      <point x="490.53254487459105" y="0.0"/>
      <point x="494.3188234163113" y="0.0" type="curve"/>
      <point x="502.08117658368866" y="0.0" type="line"/>
      <point x="504.9412627039101" y="0.0"/>
      <point x="507.403751601774" y="2.018758008869933"/>
      <point x="507.9646606378342" y="4.823303189170896" type="curve"/>
      <point x="568" y="305" type="line" smooth="yes"/>
      <point x="593" y="431"/>
      <point x="536" y="520"/>
    </contour>
  </outline>
</glyph>
<glyph name="k" format="2">
  <advance width="557"/>
  <unicode hex="006B"/>
  <anchor x="255" y="0" name="bottom"/>
  <anchor x="221" y="742" name="top"/>
  <anchor x="274" y="517" name="topright"/>
  <outline>
    <contour>
      <point x="107" y="153" type="line"/>
      <point x="297" y="299" type="line"/>
      <point x="311" y="310" type="line"/>
      <point x="568.5877918624342" y="508.21811492759804" type="line"/>
      <point x="572.2948202841902" y="511.0707353116259"/>
      <point x="570.2775530756026" y="517.0"/>
      <point x="565.6" y="517.0" type="curve"/>
      <point x="550.0469884536369" y="517.0" type="line"/>
      <point x="548.7198833624907" y="517.0"/>
      <point x="547.43022440445" y="516.5600138339602"/>
      <point x="546.3798430050948" y="515.7488992681712" type="curve"/>
      <point x="109" y="178" type="line"/>
    </contour>
    <contour>
      <point x="64.43086213214252" y="7.1736466354712585" type="line"/>
      <point x="63.6904848409904" y="3.461755081181552"/>
      <point x="66.52994582929027" y="0.0"/>
      <point x="70.31495539916735" y="0.0" type="curve"/>
      <point x="78.07857559813723" y="0.0" type="line"/>
      <point x="80.93983109742616" y="0.0"/>
      <point x="83.40298505016806" y="2.020370994761445"/>
      <point x="83.96266886516207" y="4.82635336452874" type="curve"/>
      <point x="229.56913786785748" y="734.8263533645287" type="line"/>
      <point x="230.3095151590096" y="738.5382449188184"/>
      <point x="227.47005417070972" y="742.0"/>
      <point x="223.68504460083264" y="742.0" type="curve"/>
      <point x="215.92142440186277" y="742.0" type="line"/>
      <point x="213.06016890257385" y="742.0"/>
      <point x="210.59701494983193" y="739.9796290052386"/>
      <point x="210.03733113483793" y="737.1736466354713" type="curve"/>
    </contour>
    <contour>
      <point x="474.2509241312848" y="2.905568656226353" type="line"/>
      <point x="475.3362836453417" y="1.1025670591045413"/>
      <point x="477.286924053417" y="0.0"/>
      <point x="479.3914002433459" y="0.0" type="curve"/>
      <point x="489.36256192335907" y="0.0" type="line"/>
      <point x="494.03504535776534" y="0.0"/>
      <point x="496.9144424845896" y="5.104901439108371"/>
      <point x="494.49745572754324" y="9.103685812022706" type="curve"/>
      <point x="309" y="316" type="line"/>
      <point x="293" y="304" type="line"/>
    </contour>
  </outline>
</glyph>
<glyph name="l" format="2">
  <advance width="250"/>
  <unicode hex="006C"/>
  <anchor x="73" y="0" name="bottom"/>
  <anchor x="143" y="350" name="center"/>
  <anchor x="269" y="350" name="dot"/>
  <anchor x="221" y="742" name="top"/>
  <anchor x="331" y="742" name="topright"/>
  <outline>
    <contour>
      <point x="64.43086213214252" y="7.1736466354712585" type="line"/>
      <point x="63.69048484099039" y="3.4617550811815523"/>
      <point x="66.52994582929027" y="0.0"/>
      <point x="70.31495539916735" y="0.0" type="curve"/>
      <point x="78.07857559813723" y="0.0" type="line"/>
      <point x="80.93983109742616" y="0.0"/>
      <point x="83.40298505016806" y="2.020370994761445"/>
      <point x="83.96266886516207" y="4.82635336452874" type="curve"/>
      <point x="229.56913786785748" y="734.8263533645287" type="line"/>
      <point x="230.3095151590096" y="738.5382449188185"/>
      <point x="227.47005417070972" y="742.0"/>
      <point x="223.68504460083264" y="742.0" type="curve"/>
      <point x="215.92142440186277" y="742.0" type="line"/>
      <point x="213.06016890257385" y="742.0"/>
      <point x="210.59701494983196" y="739.9796290052385"/>
      <point x="210.03733113483793" y="737.1736466354713" type="curve"/>
    </contour>
  </outline>
</glyph>
<glyph name="m" format="2">
  <advance width="1068"/>
  <unicode hex="006D"/>
  <anchor x="485" y="0" name="bottom"/>
  <outline>
    <contour>
      <point x="798" y="520" type="curve" smooth="yes"/>
      <point x="691" y="520"/>
      <point x="603" y="470"/>
      <point x="555" y="366" type="curve"/>
      <point x="562" y="364" type="line"/>
      <point x="561" y="458"/>
      <point x="503" y="520"/>
      <point x="387" y="520" type="curve" smooth="yes"/>
      <point x="281" y="520"/>
      <point x="196" y="472"/>
      <point x="146" y="362" type="curve"/>
      <point x="156" y="367" type="line"/>
      <point x="184.56466063783418" y="509.8233031891709" type="line"/>
      <point x="185.307210951993" y="513.5360547599649"/>
      <point x="182.46745512540892" y="517.0"/>
      <point x="178.68117658368865" y="517.0" type="curve"/>
      <point x="170.9225568723926" y="517.0" type="line"/>
      <point x="168.06079234628126" y="517.0"/>
      <point x="165.59734903263202" y="514.9789266977743"/>
      <point x="165.03819892859687" y="512.172318894025" type="curve"/>
      <point x="64.42891459590828" y="7.172318894025068" type="line"/>
      <point x="63.68948280119281" y="3.4608020215211823"/>
      <point x="66.52881526369768" y="0.0"/>
      <point x="70.313272539704" y="0.0" type="curve"/>
      <point x="78.07444871394466" y="0.0" type="line"/>
      <point x="80.93755882465506" y="0.0"/>
      <point x="83.40176665279232" y="2.0229303394982026"/>
      <point x="83.9595048222524" y="4.831190947130516" type="curve"/>
      <point x="140" y="287" type="line" smooth="yes"/>
      <point x="168" y="426"/>
      <point x="259" y="501"/>
      <point x="385" y="501" type="curve" smooth="yes"/>
      <point x="510" y="501"/>
      <point x="560" y="426"/>
      <point x="536" y="305" type="curve" smooth="yes"/>
      <point x="476.43533936216585" y="7.176696810829101" type="line"/>
      <point x="475.69278904800706" y="3.4639452400350192"/>
      <point x="478.53254487459105" y="0.0"/>
      <point x="482.3188234163113" y="0.0" type="curve"/>
      <point x="490.08434858533667" y="0.0" type="line"/>
      <point x="492.94300807677666" y="0.0"/>
      <point x="495.4046850292986" y="2.016790965684751"/>
      <point x="495.9670871889703" y="4.819582056507725" type="curve"/>
      <point x="556" y="304" type="line" smooth="yes"/>
      <point x="582" y="433"/>
      <point x="676" y="501"/>
      <point x="797" y="501" type="curve" smooth="yes"/>
      <point x="922" y="501"/>
      <point x="972" y="426"/>
      <point x="948" y="305" type="curve" smooth="yes"/>
      <point x="888.4353393621658" y="7.176696810829101" type="line"/>
      <point x="887.692789048007" y="3.4639452400350192"/>
      <point x="890.5325448745912" y="0.0"/>
      <point x="894.3188234163114" y="0.0" type="curve"/>
      <point x="902.0811765836886" y="0.0" type="line"/>
      <point x="904.9412627039101" y="0.0"/>
      <point x="907.403751601774" y="2.0187580088699324"/>
      <point x="907.9646606378342" y="4.823303189170896" type="curve"/>
      <point x="968" y="305" type="line" smooth="yes"/>
      <point x="993" y="431"/>
      <point x="939" y="520"/>
    </contour>
  </outline>
</glyph>
<glyph name="p" format="2">
  <advance width="671"/>
  <unicode hex="0070"/>
  <anchor x="314" y="0" name="bottom"/>
  <anchor x="417" y="517" name="top"/>
  <outline>
    <contour>
      <point x="330" y="-3" type="curve" smooth="yes"/>
      <point x="500" y="-3"/>
      <point x="622" y="131"/>
      <point x="622" y="310" type="curve" smooth="yes"/>
      <point x="622" y="439"/>
      <point x="537" y="520"/>
      <point x="402" y="520" type="curve" smooth="yes"/>
      <point x="231" y="520"/>
      <point x="113" y="384"/>
      <point x="114" y="205" type="curve" smooth="yes"/>
      <point x="115" y="75"/>
      <point x="192" y="-3"/>
    </contour>
    <contour>
      <point x="25.433002755594547" y="-186.82489465332588" type="line"/>
      <point x="24.691586409222417" y="-190.5371976270624"/>
      <point x="27.531188473509083" y="-194.0"/>
      <point x="31.316804878730395" y="-194.0" type="curve"/>
      <point x="39.0836879535369" y="-194.0" type="line"/>
      <point x="41.9426446161874" y="-194.0"/>
      <point x="44.40449075255708" y="-191.98279936387118"/>
      <point x="44.96658203785586" y="-189.17964282419936" type="curve"/>
      <point x="121" y="190" type="line"/>
      <point x="124" y="267" type="line"/>
      <point x="150" y="337" type="line"/>
      <point x="184.56466063783418" y="509.8233031891709" type="line"/>
      <point x="185.307210951993" y="513.5360547599649"/>
      <point x="182.46745512540892" y="517.0"/>
      <point x="178.68117658368865" y="517.0" type="curve"/>
      <point x="170.92018040615656" y="517.0" type="line"/>
      <point x="168.0594841473429" y="517.0"/>
      <point x="165.59664819451112" y="514.9804004668831"/>
      <point x="165.0363782830207" y="512.1751053466741" type="curve"/>
    </contour>
    <contour>
      <point x="333" y="16" type="curve" smooth="yes"/>
      <point x="205" y="16"/>
      <point x="130" y="86"/>
      <point x="130" y="208" type="curve" smooth="yes"/>
      <point x="130" y="377"/>
      <point x="244" y="501"/>
      <point x="399" y="501" type="curve" smooth="yes"/>
      <point x="527" y="501"/>
      <point x="602" y="431"/>
      <point x="602" y="309" type="curve" smooth="yes"/>
      <point x="602" y="141"/>
      <point x="488" y="16"/>
    </contour>
  </outline>
</glyph>
<glyph name="q" format="2">
  <advance width="671"/>
  <unicode hex="0071"/>
  <anchor x="253" y="0" name="bottom"/>
  <anchor x="356" y="517" name="top"/>
  <outline>
    <contour>
      <point x="269" y="-3" type="curve" smooth="yes"/>
      <point x="440" y="-3"/>
      <point x="558" y="133"/>
      <point x="557" y="312" type="curve" smooth="yes"/>
      <point x="556" y="442"/>
      <point x="479" y="520"/>
      <point x="341" y="520" type="curve" smooth="yes"/>
      <point x="171" y="520"/>
      <point x="49" y="386"/>
      <point x="49" y="207" type="curve" smooth="yes"/>
      <point x="49" y="78"/>
      <point x="134" y="-3"/>
    </contour>
    <contour>
      <point x="272" y="16" type="curve" smooth="yes"/>
      <point x="144" y="16"/>
      <point x="69" y="86"/>
      <point x="69" y="208" type="curve" smooth="yes"/>
      <point x="69" y="376"/>
      <point x="183" y="501"/>
      <point x="338" y="501" type="curve" smooth="yes"/>
      <point x="466" y="501"/>
      <point x="541" y="431"/>
      <point x="541" y="309" type="curve" smooth="yes"/>
      <point x="541" y="140"/>
      <point x="427" y="16"/>
    </contour>
    <contour>
      <point x="447.43978373979417" y="-186.82027841755968" type="line"/>
      <point x="446.69507717100345" y="-190.53388184059602"/>
      <point x="449.535124802408" y="-194.0"/>
      <point x="453.32266203089665" y="-194.0" type="curve"/>
      <point x="461.07981959384347" y="-194.0" type="line"/>
      <point x="463.94051585265714" y="-194.0"/>
      <point x="466.40335180548885" y="-191.98040046688322"/>
      <point x="466.9636217169793" y="-189.17510534667412" type="curve"/>
      <point x="606.5669972444055" y="509.8248946533259" type="line"/>
      <point x="607.3084135907776" y="513.5371976270624"/>
      <point x="604.4688115264909" y="517.0"/>
      <point x="600.6831951212696" y="517.0" type="curve"/>
      <point x="592.9188234163114" y="517.0" type="line"/>
      <point x="590.0587372960899" y="517.0"/>
      <point x="587.596248398226" y="514.98124199113"/>
      <point x="587.0353393621658" y="512.1766968108291" type="curve"/>
      <point x="550" y="327" type="line"/>
      <point x="547" y="250" type="line"/>
      <point x="521" y="180" type="line"/>
    </contour>
  </outline>
</glyph>
<glyph name="r" format="2">
  <advance width="383"/>
  <unicode hex="0072"/>
  <anchor x="73" y="0" name="bottom"/>
  <anchor x="278" y="517" name="top"/>
  <outline>
    <contour>
      <point x="64.42891459590828" y="7.172318894025066" type="line"/>
      <point x="63.68948280119281" y="3.4608020215211814"/>
      <point x="66.52881526369768" y="0.0"/>
      <point x="70.313272539704" y="0.0" type="curve"/>
      <point x="78.08117658368866" y="0.0" type="line"/>
      <point x="80.9412627039101" y="0.0"/>
      <point x="83.40375160177399" y="2.018758008869933"/>
      <point x="83.96466063783419" y="4.823303189170896" type="curve"/>
      <point x="137" y="270" type="line" smooth="yes"/>
      <point x="167" y="420"/>
      <point x="250" y="500"/>
      <point x="377" y="500" type="curve" smooth="yes"/>
      <point x="380" y="500"/>
      <point x="383" y="500"/>
      <point x="386" y="500" type="curve"/>
      <point x="390" y="520" type="line"/>
      <point x="268" y="520"/>
      <point x="192" y="461"/>
      <point x="149" y="362" type="curve"/>
      <point x="151.75" y="359.25" type="line"/>
      <point x="152.71175979490982" y="358.2882402050902"/>
      <point x="154.35729354727437" y="358.7864677363719"/>
      <point x="154.6240377207534" y="360.1201886037669" type="curve"/>
      <point x="184.56466063783418" y="509.8233031891709" type="line"/>
      <point x="185.307210951993" y="513.5360547599649"/>
      <point x="182.46745512540892" y="517.0"/>
      <point x="178.68117658368865" y="517.0" type="curve"/>
      <point x="170.9225568723926" y="517.0" type="line"/>
      <point x="168.06079234628126" y="517.0"/>
      <point x="165.59734903263202" y="514.9789266977745"/>
      <point x="165.03819892859687" y="512.172318894025" type="curve"/>
    </contour>
  </outline>
</glyph>
<glyph name="s" format="2">
  <advance width="463"/>
  <unicode hex="0073"/>
  <anchor x="180" y="0" name="bottom"/>
  <anchor x="283" y="517" name="top"/>
  <outline>
    <contour>
      <point x="189" y="-3" type="curve" smooth="yes"/>
      <point x="319" y="-3"/>
      <point x="401" y="53"/>
      <point x="401" y="145" type="curve" smooth="yes"/>
      <point x="401" y="316"/>
      <point x="94" y="219"/>
      <point x="94" y="372" type="curve" smooth="yes"/>
      <point x="94" y="450"/>
      <point x="166" y="501"/>
      <point x="277" y="501" type="curve" smooth="yes"/>
      <point x="331.7657544981398" y="501.0"/>
      <point x="386.5315089962796" y="485.30658857563594"/>
      <point x="423.55811969039416" y="455.69368010731034" type="curve"/>
      <point x="426.07695084995925" y="453.67918525679397"/>
      <point x="429.74104750182426" y="453.86540803766883"/>
      <point x="431.9417433445855" y="456.22329644062734" type="curve"/>
      <point x="437.9267771239312" y="462.63583263278343" type="line"/>
      <point x="440.17968607609805" y="465.04966365296224"/>
      <point x="440.0666041421407" y="468.84159870137745"/>
      <point x="437.55306247168767" y="470.98269356420525" type="curve"/>
      <point x="401.6071647804894" y="501.60226824286434"/>
      <point x="338.42375250845953" y="520.0"/>
      <point x="278" y="520" type="curve" smooth="yes"/>
      <point x="156" y="520"/>
      <point x="74" y="461"/>
      <point x="74" y="371" type="curve" smooth="yes"/>
      <point x="74" y="198"/>
      <point x="381" y="295"/>
      <point x="381" y="144" type="curve" smooth="yes"/>
      <point x="381" y="64"/>
      <point x="309" y="16"/>
      <point x="190" y="16" type="curve" smooth="yes"/>
      <point x="121.64272082924481" y="16.0"/>
      <point x="56.066269440057894" y="39.17356484640231"/>
      <point x="16.474098159912586" y="77.4887302720046" type="curve"/>
      <point x="13.995900852051113" y="79.88699580627227"/>
      <point x="10.013133376388984" y="79.88067560148158"/>
      <point x="7.654464497829149" y="77.36476213101776" type="curve"/>
      <point x="0.8214411120533742" y="70.07620385285693" type="line"/>
      <point x="-1.3316790181609002" y="67.77954238062837"/>
      <point x="-1.3526973434870424" y="64.19865566551296"/>
      <point x="0.8852194345289419" y="61.98453988086493" type="curve"/>
      <point x="39.203535776289016" y="24.073751648318144"/>
      <point x="113.63497906662178" y="-3.0"/>
    </contour>
  </outline>
</glyph>
<glyph name="t" format="2">
  <advance width="388"/>
  <unicode hex="0074"/>
  <anchor x="189" y="0" name="bottom"/>
  <anchor x="180" y="307" name="center"/>
  <anchor x="207" y="630" name="top"/>
  <anchor x="344" y="742" name="topright"/>
  <outline>
    <contour>
      <point x="200" y="-3" type="curve" smooth="yes"/>
      <point x="236" y="-3"/>
      <point x="276" y="9"/>
      <point x="304" y="34" type="curve"/>
      <point x="293" y="48" type="line"/>
      <point x="267" y="27"/>
      <point x="236" y="16"/>
      <point x="202" y="16" type="curve" smooth="yes"/>
      <point x="130" y="16"/>
      <point x="102" y="56"/>
      <point x="119" y="139" type="curve" smooth="yes"/>
      <point x="215.5680439226795" y="622.8256078166901" type="line"/>
      <point x="216.3089522368715" y="626.5377096765706"/>
      <point x="213.46941912787173" y="630.0"/>
      <point x="209.68409941242274" y="630.0" type="curve"/>
      <point x="201.92076875656994" y="630.0" type="line"/>
      <point x="199.05980799270296" y="630.0"/>
      <point x="196.59682162249322" y="627.9800356036023"/>
      <point x="196.03682888386285" y="625.1744154181412" type="curve"/>
      <point x="98" y="134" type="line" smooth="yes"/>
      <point x="81" y="48"/>
      <point x="117" y="-3"/>
    </contour>
    <contour>
      <point x="72.09512243802706" y="504.9357754408381" type="line"/>
      <point x="71.52010527421253" y="501.2940000700127"/>
      <point x="74.33480823399297" y="498.0"/>
      <point x="78.02170023000147" y="498.0" type="curve"/>
      <point x="360.87303661210376" y="498.0" type="line"/>
      <point x="363.8254780348291" y="498.0"/>
      <point x="366.33914404176164" y="500.14791226449046"/>
      <point x="366.7996144040782" y="503.0642245591619" type="curve"/>
      <point x="367.9048775619729" y="510.0642245591619" type="line"/>
      <point x="368.47989472578746" y="513.7059999299873"/>
      <point x="365.665191766007" y="517.0"/>
      <point x="361.9782997699985" y="517.0" type="curve"/>
      <point x="79.12696338789621" y="517.0" type="line"/>
      <point x="76.17452196517094" y="517.0"/>
      <point x="73.66085595823836" y="514.8520877355096"/>
      <point x="73.2003855959218" y="511.9357754408381" type="curve"/>
    </contour>
  </outline>
</glyph>
<glyph name="u" format="2">
  <advance width="664"/>
  <unicode hex="0075"/>
  <anchor x="278" y="0" name="bottom"/>
  <anchor x="498" y="0" name="ogonek"/>
  <anchor x="381" y="517" name="top"/>
  <anchor x="591" y="517" name="topright"/>
  <outline>
    <contour>
      <point x="273" y="-3" type="curve" smooth="yes"/>
      <point x="381" y="-3"/>
      <point x="469" y="45"/>
      <point x="518" y="155" type="curve"/>
      <point x="510.62469912679074" y="151.31234956339537" type="line"/>
      <point x="508.96862908159414" y="150.48431454079707"/>
      <point x="507.7876140240635" y="148.93807012031735"/>
      <point x="507.424496645645" y="147.122483228225" type="curve"/>
      <point x="479.43533936216585" y="7.176696810829103" type="line"/>
      <point x="478.692789048007" y="3.46394524003502"/>
      <point x="481.5325448745911" y="0.0"/>
      <point x="485.3188234163113" y="0.0" type="curve"/>
      <point x="493.0774431276074" y="0.0" type="line"/>
      <point x="495.9392076537187" y="0.0"/>
      <point x="498.40265096736795" y="2.021073302225597"/>
      <point x="498.9618010714031" y="4.827681105974933" type="curve"/>
      <point x="599.5710854040917" y="509.82768110597493" type="line"/>
      <point x="600.3105171988072" y="513.5391979784788"/>
      <point x="597.4711847363023" y="517.0"/>
      <point x="593.686727460296" y="517.0" type="curve"/>
      <point x="585.9255512860553" y="517.0" type="line"/>
      <point x="583.0624411753449" y="517.0"/>
      <point x="580.5982333472077" y="514.9770696605018"/>
      <point x="580.0404951777476" y="512.1688090528695" type="curve"/>
      <point x="524" y="230" type="line" smooth="yes"/>
      <point x="496" y="90"/>
      <point x="405" y="16"/>
      <point x="275" y="16" type="curve" smooth="yes"/>
      <point x="148" y="16"/>
      <point x="96" y="91"/>
      <point x="120" y="212" type="curve" smooth="yes"/>
      <point x="179.56466063783418" y="509.8233031891709" type="line"/>
      <point x="180.307210951993" y="513.5360547599649"/>
      <point x="177.46745512540892" y="517.0"/>
      <point x="173.68117658368865" y="517.0" type="curve"/>
      <point x="165.91882341631134" y="517.0" type="line"/>
      <point x="163.0587372960899" y="517.0"/>
      <point x="160.596248398226" y="514.9812419911301"/>
      <point x="160.03533936216581" y="512.1766968108291" type="curve"/>
      <point x="100" y="212" type="line" smooth="yes"/>
      <point x="75" y="86"/>
      <point x="131" y="-3"/>
    </contour>
  </outline>
</glyph>
<glyph name="v" format="2">
  <advance width="508"/>
  <unicode hex="0076"/>
  <anchor x="203" y="0" name="bottom"/>
  <anchor x="306" y="517" name="top"/>
  <outline>
    <contour>
      <point x="191.82910417586226" y="4.484097341327527" type="line"/>
      <point x="192.51880802437262" y="1.8427870474026546"/>
      <point x="194.9045760209252" y="0.0"/>
      <point x="197.63444991314867" y="0.0" type="curve"/>
      <point x="209.76986131391018" y="0.0" type="line"/>
      <point x="211.78645535083905" y="0.0"/>
      <point x="213.6681713076547" y="1.0130339180571288"/>
      <point x="214.77849738885416" y="2.6964315250369464" type="curve"/>
      <point x="548.0535767450665" y="507.9844550651008" type="line"/>
      <point x="550.6032989782033" y="511.8501629669534"/>
      <point x="547.830851006953" y="517.0"/>
      <point x="543.2" y="517.0" type="curve"/>
      <point x="533.2450190537801" y="517.0" type="line"/>
      <point x="531.2202516582307" y="517.0"/>
      <point x="529.3320539643927" y="515.978793751032"/>
      <point x="528.2237290170248" y="514.2843030260289" type="curve"/>
      <point x="202.9705818156173" y="17.01277402205318" type="line"/>
      <point x="202.1235890128496" y="15.717827578915974"/>
      <point x="203.05265288363148" y="14.0"/>
      <point x="204.6" y="14.0" type="curve"/>
      <point x="205.4" y="14.0" type="line"/>
      <point x="207.22284896188825" y="14.0"/>
      <point x="208.55530831512812" y="15.720614749927325"/>
      <point x="208.09918176271628" y="17.485473641182367" type="curve"/>
      <point x="80.16266941402624" y="512.5013637288062" type="line"/>
      <point x="79.47818134950138" y="515.149806009237"/>
      <point x="77.08901198160045" y="517.0"/>
      <point x="74.3535466787223" y="517.0" type="curve"/>
      <point x="65.76791219554713" y="517.0" type="line"/>
      <point x="61.83860144262503" y="517.0"/>
      <point x="58.96982435540988" y="513.2859319129859"/>
      <point x="59.9625664582607" y="509.4840973413275" type="curve"/>
    </contour>
  </outline>
</glyph>
<glyph name="x" format="2">
  <advance width="498"/>
  <unicode hex="0078"/>
  <outline>
    <contour>
      <point x="-15.505356607254571" y="8.68697494126042" type="line"/>
      <point x="-18.670574940993838" y="5.450091286757244"/>
      <point x="-16.377253349772797" y="0.0"/>
      <point x="-11.85" y="0.0" type="curve"/>
      <point x="0.465861842999864" y="0.0" type="line"/>
      <point x="2.085998583603517" y="0.0"/>
      <point x="3.637276813207815" y="0.6551922256273113"/>
      <point x="4.766898234456155" y="1.8165700723725933" type="curve"/>
      <point x="252" y="256" type="line"/>
      <point x="245" y="256" type="line"/>
      <point x="392.26449158924555" y="2.981813108410335" type="line"/>
      <point x="393.3390088618301" y="1.1356626266542706"/>
      <point x="395.3140163188935" y="0.0"/>
      <point x="397.45010128217814" y="0.0" type="curve"/>
      <point x="407.4898641848626" y="0.0" type="line"/>
      <point x="412.13466659393106" y="0.0"/>
      <point x="415.0180168968242" y="5.050733881004033"/>
      <point x="412.6565616576214" y="9.050448692403727" type="curve"/>
      <point x="258" y="271" type="line"/>
      <point x="256" y="260" type="line"/>
      <point x="497.84185313855915" y="508.6134250264388" type="line"/>
      <point x="500.888479414589" y="511.7453568381975"/>
      <point x="498.66931671309163" y="517.0"/>
      <point x="494.3" y="517.0" type="curve"/>
      <point x="482.53767548462633" y="517.0" type="line"/>
      <point x="480.91545577267885" y="517.0"/>
      <point x="479.3623659725057" y="516.3431270147795"/>
      <point x="478.2324561294743" y="515.1791250644153" type="curve"/>
      <point x="248" y="278" type="line"/>
      <point x="255" y="276" type="line"/>
      <point x="115.73769098526107" y="514.029904060653" type="line"/>
      <point x="114.6614482555074" y="515.869439506544"/>
      <point x="112.69016000058137" y="517.0"/>
      <point x="110.55891879648523" y="517.0" type="curve"/>
      <point x="101.35" y="517.0" type="line"/>
      <point x="96.76979985263696" y="517.0"/>
      <point x="93.92195274190395" y="512.0247831691905"/>
      <point x="96.24146619486018" y="508.0753413438867" type="curve"/>
      <point x="239" y="265" type="line"/>
      <point x="241" y="271" type="line"/>
    </contour>
  </outline>
</glyph>
<glyph name="y" format="2">
  <advance width="508"/>
  <unicode hex="0079"/>
  <guideline x="574" y="277" angle="65.5217"/>
  <anchor x="290" y="0" name="bottom"/>
  <anchor x="290" y="517" name="top"/>
  <outline>
    <contour>
      <point x="-3" y="-197" type="curve" smooth="yes"/>
      <point x="57" y="-197"/>
      <point x="100" y="-173"/>
      <point x="155" y="-90" type="curve" smooth="yes"/>
      <point x="548.0676921526831" y="507.9751607435555" type="line"/>
      <point x="550.613868275699" y="511.84866677531153"/>
      <point x="547.8354138787671" y="517.0"/>
      <point x="543.2" y="517.0" type="curve"/>
      <point x="533.2450190537801" y="517.0" type="line"/>
      <point x="531.2202516582307" y="517.0"/>
      <point x="529.3320539643927" y="515.978793751032"/>
      <point x="528.2237290170248" y="514.2843030260289" type="curve"/>
      <point x="201" y="14" type="line"/>
      <point x="195" y="7" type="line"/>
      <point x="137" y="-81" type="line" smooth="yes"/>
      <point x="88" y="-156"/>
      <point x="48" y="-178"/>
      <point x="0" y="-178" type="curve" smooth="yes"/>
      <point x="-42" y="-178"/>
      <point x="-73" y="-165"/>
      <point x="-96" y="-136" type="curve"/>
      <point x="-112" y="-151" type="line"/>
      <point x="-89" y="-181"/>
      <point x="-47" y="-197"/>
    </contour>
    <contour>
      <point x="192.79358974504586" y="1.2680044537375732" type="line"/>
      <point x="193.9237842000585" y="-3.0562178089194294"/>
      <point x="199.7879938822213" y="-3.7153963803436936"/>
      <point x="201.85" y="0.25" type="curve"/>
      <point x="207.9383786865107" y="11.958420550982144" type="line"/>
      <point x="208.62185565927246" y="13.272799344754743"/>
      <point x="208.79490306355973" y="14.79356737714967"/>
      <point x="208.42420061440708" y="16.22790069964027" type="curve"/>
      <point x="80.16266941402624" y="512.5013637288062" type="line"/>
      <point x="79.47818134950138" y="515.149806009237"/>
      <point x="77.08901198160045" y="517.0"/>
      <point x="74.3535466787223" y="517.0" type="curve"/>
      <point x="65.76972954555407" y="517.0" type="line"/>
      <point x="61.83985690952715" y="517.0"/>
      <point x="58.97098241514168" y="513.2849368464144"/>
      <point x="59.96472705543311" y="509.482783440082" type="curve"/>
    </contour>
  </outline>
</glyph>
<glyph name="z" format="2">
  <advance width="491"/>
  <unicode hex="007A"/>
  <anchor x="203" y="0" name="bottom"/>
  <anchor x="296" y="517" name="top"/>
  <outline>
    <contour>
      <point x="-4.65" y="6.75" type="line"/>
      <point x="-5.348401333188404" y="3.2579933340579807"/>
      <point x="-2.677485682896628" y="0.0"/>
      <point x="0.8836763433502597" y="0.0" type="curve"/>
      <point x="386.1316354192797" y="0.0" type="line"/>
      <point x="388.96895869552844" y="0.0"/>
      <point x="391.41841579616624" y="1.987475031789805"/>
      <point x="392.0029341292002" y="4.763937113700948" type="curve"/>
      <point x="393.47661833972654" y="11.763937113700948" type="line"/>
      <point x="394.26173140741236" y="15.493224185208533"/>
      <point x="391.41635421253613" y="19.0"/>
      <point x="387.60531962980605" y="19.0" type="curve"/>
      <point x="9" y="19" type="line"/>
      <point x="23" y="13" type="line"/>
      <point x="484.8122117272399" y="500.74551087391" type="line"/>
      <point x="485.58830529528456" y="501.5651863701818"/>
      <point x="486.117433356316" y="502.58716678157987"/>
      <point x="486.33880922408116" y="503.6940461204058" type="curve"/>
      <point x="487.65" y="510.25" type="line"/>
      <point x="488.3484013331884" y="513.742006665942"/>
      <point x="485.67748568289664" y="517.0"/>
      <point x="482.11632365664974" y="517.0" type="curve"/>
      <point x="107.12696338789621" y="517.0" type="line"/>
      <point x="104.17452196517094" y="517.0"/>
      <point x="101.66085595823836" y="514.8520877355096"/>
      <point x="101.2003855959218" y="511.9357754408381" type="curve"/>
      <point x="100.09512243802706" y="504.9357754408381" type="line"/>
      <point x="99.52010527421253" y="501.2940000700127"/>
      <point x="102.33480823399297" y="498.0"/>
      <point x="106.02170023000147" y="498.0" type="curve"/>
      <point x="471" y="498" type="line"/>
      <point x="460" y="504" type="line"/>
      <point x="-1.8122117272399276" y="16.25448912609001" type="line"/>
      <point x="-2.588305295284551" y="15.43481362981826"/>
      <point x="-3.11743335631597" y="14.41283321842015"/>
      <point x="-3.338809224081161" y="13.305953879594195" type="curve"/>
    </contour>
  </outline>
</glyph>
<glyph name="braceleft" format="2">
  <advance width="300"/>
  <unicode hex="007B"/>
  <outline>
    <contour>
      <point x="159" y="-194" type="curve" smooth="yes"/>
      <point x="179.13163541927972" y="-194.0" type="line"/>
      <point x="181.9689586955285" y="-194.0"/>
      <point x="184.41841579616627" y="-192.0125249682102"/>
      <point x="185.0029341292002" y="-189.23606288629907" type="curve"/>
      <point x="186.4766183397265" y="-182.23606288629904" type="line"/>
      <point x="187.26173140741233" y="-178.50677581479147"/>
      <point x="184.4163542125361" y="-175.0"/>
      <point x="180.60531962980602" y="-175.0" type="curve"/>
      <point x="156" y="-175" type="line" smooth="yes"/>
      <point x="112" y="-175"/>
      <point x="82" y="-150"/>
      <point x="96" y="-82" type="curve" smooth="yes"/>
      <point x="155" y="212" type="line" smooth="yes"/>
      <point x="163" y="252"/>
      <point x="150" y="268"/>
      <point x="131" y="275" type="curve"/>
      <point x="130" y="271" type="line"/>
      <point x="158" y="278"/>
      <point x="172" y="296"/>
      <point x="180" y="336" type="curve" smooth="yes"/>
      <point x="243" y="650" type="line" smooth="yes"/>
      <point x="252" y="693"/>
      <point x="281" y="723"/>
      <point x="335" y="723" type="curve" smooth="yes"/>
      <point x="362.1316354192797" y="723.0" type="line"/>
      <point x="364.9689586955285" y="723.0"/>
      <point x="367.4184157961663" y="724.9874750317898"/>
      <point x="368.0029341292002" y="727.763937113701" type="curve"/>
      <point x="369.47661833972654" y="734.763937113701" type="line"/>
      <point x="370.2617314074123" y="738.4932241852085"/>
      <point x="367.4163542125361" y="742.0"/>
      <point x="363.60531962980605" y="742.0" type="curve"/>
      <point x="346" y="742" type="line" smooth="yes"/>
      <point x="272" y="742"/>
      <point x="235" y="710"/>
      <point x="223" y="650" type="curve" smooth="yes"/>
      <point x="160" y="336" type="line" smooth="yes"/>
      <point x="153" y="299"/>
      <point x="138" y="284"/>
      <point x="105" y="284" type="curve" smooth="yes"/>
      <point x="74.8683645807203" y="284.0" type="line"/>
      <point x="72.03104130447151" y="284.0"/>
      <point x="69.58158420383373" y="282.0125249682102"/>
      <point x="68.9970658707998" y="279.23606288629907" type="curve"/>
      <point x="67.52338166027349" y="272.23606288629907" type="line"/>
      <point x="66.73826859258767" y="268.50677581479147"/>
      <point x="69.5836457874639" y="265.0"/>
      <point x="73.39468037019398" y="265.0" type="curve"/>
      <point x="101" y="265" type="line" smooth="yes"/>
      <point x="130" y="265"/>
      <point x="142" y="249"/>
      <point x="135" y="212" type="curve" smooth="yes"/>
      <point x="76" y="-82" type="line" smooth="yes"/>
      <point x="60" y="-162"/>
      <point x="100" y="-194"/>
    </contour>
  </outline>
</glyph>
<glyph name="bar" format="2">
  <advance width="286"/>
  <unicode hex="007C"/>
  <outline>
    <contour>
      <point x="44.43356436282961" y="-186.82451206626462" type="line"/>
      <point x="43.69187544472743" y="-190.5369229076745"/>
      <point x="46.5315144879225" y="-194.0"/>
      <point x="50.317290063237685" y="-194.0" type="curve"/>
      <point x="58.080145834198206" y="-194.0" type="line"/>
      <point x="60.94069541636492" y="-194.0"/>
      <point x="63.40344794832483" y="-191.98060278271635"/>
      <point x="63.963871534606284" y="-189.17548793373538" type="curve"/>
      <point x="248.5664356371704" y="734.8245120662647" type="line"/>
      <point x="249.30812455527257" y="738.5369229076745"/>
      <point x="246.4684855120775" y="742.0"/>
      <point x="242.6827099367623" y="742.0" type="curve"/>
      <point x="234.91985416580178" y="742.0" type="line"/>
      <point x="232.05930458363508" y="742.0"/>
      <point x="229.59655205167516" y="739.9806027827163"/>
      <point x="229.03612846539372" y="737.1754879337353" type="curve"/>
    </contour>
  </outline>
</glyph>
<glyph name="braceright" format="2">
  <advance width="300"/>
  <unicode hex="007D"/>
  <outline>
    <contour>
      <point x="-63.476618339726514" y="-186.76393711370096" type="line"/>
      <point x="-64.26173140741233" y="-190.49322418520853"/>
      <point x="-61.4163542125361" y="-194.0"/>
      <point x="-57.60531962980602" y="-194.0" type="curve"/>
      <point x="-40" y="-194" type="line" smooth="yes"/>
      <point x="34" y="-194"/>
      <point x="71" y="-162"/>
      <point x="83" y="-102" type="curve" smooth="yes"/>
      <point x="146" y="212" type="line" smooth="yes"/>
      <point x="153" y="249"/>
      <point x="168" y="264"/>
      <point x="201" y="264" type="curve" smooth="yes"/>
      <point x="231.13163541927972" y="264.0" type="line"/>
      <point x="233.9689586955285" y="264.0"/>
      <point x="236.41841579616627" y="265.9874750317898"/>
      <point x="237.0029341292002" y="268.76393711370093" type="curve"/>
      <point x="238.4766183397265" y="275.76393711370093" type="line"/>
      <point x="239.26173140741233" y="279.49322418520853"/>
      <point x="236.4163542125361" y="283.0"/>
      <point x="232.60531962980602" y="283.0" type="curve"/>
      <point x="205" y="283" type="line" smooth="yes"/>
      <point x="176" y="283"/>
      <point x="164" y="299"/>
      <point x="171" y="336" type="curve" smooth="yes"/>
      <point x="230" y="630" type="line" smooth="yes"/>
      <point x="246" y="710"/>
      <point x="206" y="742"/>
      <point x="147" y="742" type="curve" smooth="yes"/>
      <point x="126.8683645807203" y="742.0" type="line"/>
      <point x="124.03104130447151" y="742.0"/>
      <point x="121.58158420383373" y="740.0125249682102"/>
      <point x="120.9970658707998" y="737.236062886299" type="curve"/>
      <point x="119.52338166027349" y="730.236062886299" type="line"/>
      <point x="118.73826859258767" y="726.5067758147915"/>
      <point x="121.5836457874639" y="723.0"/>
      <point x="125.39468037019398" y="723.0" type="curve"/>
      <point x="150" y="723" type="line" smooth="yes"/>
      <point x="194" y="723"/>
      <point x="224" y="698"/>
      <point x="210" y="630" type="curve" smooth="yes"/>
      <point x="151" y="336" type="line" smooth="yes"/>
      <point x="143" y="296"/>
      <point x="156" y="280"/>
      <point x="175" y="273" type="curve"/>
      <point x="176" y="277" type="line"/>
      <point x="148" y="270"/>
      <point x="135" y="255"/>
      <point x="126" y="212" type="curve" smooth="yes"/>
      <point x="63" y="-102" type="line" smooth="yes"/>
      <point x="54" y="-145"/>
      <point x="25" y="-175"/>
      <point x="-29" y="-175" type="curve" smooth="yes"/>
      <point x="-56.131635419279704" y="-175.0" type="line"/>
      <point x="-58.968958695528485" y="-175.0"/>
      <point x="-61.41841579616627" y="-176.9874750317898"/>
      <point x="-62.0029341292002" y="-179.76393711370093" type="curve"/>
    </contour>
  </outline>
</glyph>
<glyph name="asciitilde" format="2">
  <advance width="560"/>
  <unicode hex="007E"/>
  <outline>
    <contour>
      <point x="390" y="286" type="curve" smooth="yes"/>
      <point x="452.91943620751" y="286.0"/>
      <point x="498.97274267583026" y="330.0393387634398"/>
      <point x="519.0897709075888" y="403.6057786945241" type="curve"/>
      <point x="520.1154331689423" y="407.3565474596804"/>
      <point x="517.2514951545262" y="411.0"/>
      <point x="513.363018665715" y="411.0" type="curve"/>
      <point x="502" y="411" type="line"/>
      <point x="487" y="346"/>
      <point x="446" y="304"/>
      <point x="391" y="304" type="curve" smooth="yes"/>
      <point x="311" y="304"/>
      <point x="301" y="414"/>
      <point x="206" y="414" type="curve" smooth="yes"/>
      <point x="143.08056379249" y="414.0"/>
      <point x="97.02725732416974" y="369.9606612365602"/>
      <point x="76.91022909241127" y="296.3942213054759" type="curve"/>
      <point x="75.8845668310577" y="292.6434525403196"/>
      <point x="78.74850484547383" y="289.0"/>
      <point x="82.63698133428501" y="289.0" type="curve"/>
      <point x="94" y="289" type="line"/>
      <point x="109" y="354"/>
      <point x="150" y="396"/>
      <point x="205" y="396" type="curve" smooth="yes"/>
      <point x="285" y="396"/>
      <point x="295" y="286"/>
    </contour>
  </outline>
</glyph>
<glyph name="exclamdown" format="2">
  <advance width="242"/>
  <unicode hex="00A1"/>
  <outline>
    <contour>
      <point x="28.511465056837284" y="-146.771904728194" type="line"/>
      <point x="27.732094187418063" y="-150.4989951235354"/>
      <point x="30.57672993728632" y="-154.0"/>
      <point x="34.38443551507796" y="-154.0" type="curve"/>
      <point x="44.04506913599908" y="-154.0" type="line"/>
      <point x="46.921354103439164" y="-154.0"/>
      <point x="49.393017073755594" y="-151.95884681049515"/>
      <point x="49.936846642351576" y="-149.13444163165792" type="curve"/>
      <point x="140.80883628675917" y="322.8136336183299" type="line"/>
      <point x="141.42671172258915" y="326.0225995915114"/>
      <point x="138.96790952617093" y="329.0"/>
      <point x="135.7" y="329.0" type="curve"/>
      <point x="132.87511874489164" y="329.0" type="line"/>
      <point x="130.03474004839472" y="329.0"/>
      <point x="127.58352422786868" y="327.0083386342631"/>
      <point x="127.00214828665095" y="324.228095271806" type="curve"/>
    </contour>
    <contour>
      <point x="168" y="468" type="curve" smooth="yes"/>
      <point x="182" y="468"/>
      <point x="194" y="480"/>
      <point x="194" y="494" type="curve" smooth="yes"/>
      <point x="194" y="508"/>
      <point x="182" y="520"/>
      <point x="168" y="520" type="curve" smooth="yes"/>
      <point x="154" y="520"/>
      <point x="142" y="508"/>
      <point x="142" y="494" type="curve" smooth="yes"/>
      <point x="142" y="480"/>
      <point x="154" y="468"/>
    </contour>
  </outline>
</glyph>
<glyph name="cent" format="2">
  <advance width="545"/>
  <unicode hex="00A2"/>
  <outline>
    <contour>
      <point x="274" y="-3" type="curve" smooth="yes"/>
      <point x="352.04655588475725" y="-3.0"/>
      <point x="425.3343110777391" y="25.552804150652516"/>
      <point x="468.7932252998282" y="76.1587723795938" type="curve"/>
      <point x="470.6813516460197" y="78.35741133774407"/>
      <point x="470.6296070455663" y="81.59879178017268"/>
      <point x="468.74354286716465" y="83.7991999883079" type="curve"/>
      <point x="464.61070517904665" y="88.62084395777894" type="line"/>
      <point x="462.19736594256307" y="91.4364064003431"/>
      <point x="457.83688612541994" y="91.4055793632368"/>
      <point x="455.34960026561004" y="88.65512354830017" type="curve"/>
      <point x="413.97082156012704" y="42.89821866476956"/>
      <point x="348.26798512469486" y="16.0"/>
      <point x="277" y="16" type="curve" smooth="yes"/>
      <point x="144" y="16"/>
      <point x="69" y="86"/>
      <point x="69" y="208" type="curve" smooth="yes"/>
      <point x="69" y="376"/>
      <point x="183" y="501"/>
      <point x="341" y="501" type="curve" smooth="yes"/>
      <point x="417.27050384912354" y="501.0"/>
      <point x="473.0349710594421" y="476.7655930632305"/>
      <point x="508.29340163095577" y="426.49700272664177" type="curve"/>
      <point x="510.3317702994125" y="423.5908631767897"/>
      <point x="514.4052273013459" y="422.92418184107675"/>
      <point x="517.1771019324549" y="425.14168154596393" type="curve"/>
      <point x="522.9160026721158" y="429.73280213769266" type="line"/>
      <point x="525.2564863700785" y="431.6051890960628"/>
      <point x="525.8664461768097" y="434.9247015543012"/>
      <point x="524.2488869569293" y="437.4480324942461" type="curve"/>
      <point x="489.56111645841344" y="491.55963685521533"/>
      <point x="425.73468532988136" y="520.0"/>
      <point x="342" y="520" type="curve" smooth="yes"/>
      <point x="172" y="520"/>
      <point x="49" y="388"/>
      <point x="49" y="207" type="curve" smooth="yes"/>
      <point x="49" y="78"/>
      <point x="134" y="-3"/>
    </contour>
    <contour>
      <point x="218.43095081861998" y="-112.826292915925" type="line"/>
      <point x="217.69053047541155" y="-116.53820152393014"/>
      <point x="220.52999731251904" y="-120.0"/>
      <point x="224.31503202818806" y="-120.0" type="curve"/>
      <point x="231.0786271527895" y="-120.0" type="line"/>
      <point x="233.93985947735916" y="-120.0"/>
      <point x="236.40300025426893" y="-117.97966097694321"/>
      <point x="236.96270836235757" y="-115.173707084075" type="curve"/>
      <point x="385.56904918138" y="629.826292915925" type="line"/>
      <point x="386.30946952458845" y="633.5382015239302"/>
      <point x="383.4700026874809" y="637.0"/>
      <point x="379.68496797181194" y="637.0" type="curve"/>
      <point x="372.92137284721053" y="637.0" type="line"/>
      <point x="370.06014052264084" y="637.0"/>
      <point x="367.59699974573107" y="634.9796609769431"/>
      <point x="367.03729163764245" y="632.173707084075" type="curve"/>
    </contour>
  </outline>
</glyph>
<glyph name="sterling" format="2">
  <advance width="618"/>
  <unicode hex="00A3"/>
  <outline>
    <contour>
      <point x="101.42830239867264" y="17.171901406100904" type="line"/>
      <point x="100.6891678480985" y="13.460502386196724"/>
      <point x="103.52845987475074" y="10.0"/>
      <point x="107.31274350164739" y="10.0" type="curve"/>
      <point x="115.08323291505877" y="10.0" type="line"/>
      <point x="117.94239425253286" y="10.0"/>
      <point x="120.40435689697493" y="12.017482815757935"/>
      <point x="120.96623402421125" y="14.820891035692256" type="curve"/>
      <point x="214" y="479" type="line" smooth="yes"/>
      <point x="242" y="619"/>
      <point x="332" y="684"/>
      <point x="478" y="684" type="curve" smooth="yes"/>
      <point x="554" y="684"/>
      <point x="616" y="667"/>
      <point x="659" y="626" type="curve"/>
      <point x="674" y="642" type="line"/>
      <point x="630" y="684"/>
      <point x="558" y="703"/>
      <point x="478" y="703" type="curve" smooth="yes"/>
      <point x="325" y="703"/>
      <point x="224" y="631"/>
      <point x="194" y="482" type="curve" smooth="yes"/>
    </contour>
    <contour>
      <point x="-20.476618339726514" y="7.23606288629905" type="line"/>
      <point x="-21.261731407412324" y="3.5067758147914665"/>
      <point x="-18.416354212536103" y="0.0"/>
      <point x="-14.605319629806022" y="0.0" type="curve"/>
      <point x="533.1316354192797" y="0.0" type="line"/>
      <point x="535.9689586955285" y="0.0"/>
      <point x="538.4184157961663" y="1.9874750317898047"/>
      <point x="539.0029341292002" y="4.763937113700948" type="curve"/>
      <point x="540.4766183397265" y="11.763937113700951" type="line"/>
      <point x="541.2617314074123" y="15.493224185208533"/>
      <point x="538.4163542125361" y="19.0"/>
      <point x="534.605319629806" y="19.0" type="curve"/>
      <point x="-13.131635419279707" y="19.0" type="line"/>
      <point x="-15.968958695528487" y="19.0"/>
      <point x="-18.418415796166276" y="17.012524968210194"/>
      <point x="-19.0029341292002" y="14.236062886299052" type="curve"/>
    </contour>
    <contour>
      <point x="47.622573943758205" y="348.30158274691195" type="line"/>
      <point x="46.78988906375566" y="344.55450078690046"/>
      <point x="49.641208669812386" y="341.0"/>
      <point x="53.479696304861925" y="341.0" type="curve"/>
      <point x="480.18697036180475" y="341.0" type="line"/>
      <point x="482.9991622520119" y="341.0"/>
      <point x="485.4340426486919" y="342.95319191911364"/>
      <point x="486.04409272290843" y="345.69841725308805" type="curve"/>
      <point x="487.3774260562418" y="351.69841725308805" type="line"/>
      <point x="488.21011093624435" y="355.44549921309954"/>
      <point x="485.3587913301876" y="359.0"/>
      <point x="481.52030369513807" y="359.0" type="curve"/>
      <point x="54.81302963819526" y="359.0" type="line"/>
      <point x="52.00083774798812" y="359.0"/>
      <point x="49.565957351308086" y="357.04680808088636"/>
      <point x="48.95590727709154" y="354.30158274691195" type="curve"/>
    </contour>
  </outline>
</glyph>
<glyph name="currency" format="2">
  <advance width="700"/>
  <unicode hex="00A4"/>
  <outline>
    <contour>
      <point x="170" y="494" type="line"/>
      <point x="185" y="508" type="line"/>
      <point x="68.24264068711929" y="624.7573593128807" type="line"/>
      <point x="65.89949493661167" y="627.1005050633883"/>
      <point x="62.10050506338834" y="627.1005050633883"/>
      <point x="59.757359312880716" y="624.7573593128807" type="curve"/>
      <point x="54.225072892240014" y="619.2250728922401" type="line"/>
      <point x="51.888799065914114" y="616.8887990659142"/>
      <point x="51.880945533027216" y="613.1033799208642"/>
      <point x="54.20750524859409" y="610.7574322076676" type="curve"/>
    </contour>
    <contour>
      <point x="552" y="494" type="line"/>
      <point x="667.7924947514059" y="610.7574322076676" type="line"/>
      <point x="670.1190544669728" y="613.1033799208642"/>
      <point x="670.1112009340858" y="616.8887990659142"/>
      <point x="667.7749271077599" y="619.2250728922401" type="curve"/>
      <point x="662.2426406871193" y="624.7573593128807" type="line"/>
      <point x="659.8994949366117" y="627.1005050633883"/>
      <point x="656.1005050633883" y="627.1005050633883"/>
      <point x="653.7573593128807" y="624.7573593128807" type="curve"/>
      <point x="537" y="508" type="line"/>
    </contour>
    <contour>
      <point x="653.7573593128807" y="10.242640687119284" type="line"/>
      <point x="656.1005050633883" y="7.899494936611664"/>
      <point x="659.8994949366117" y="7.899494936611664"/>
      <point x="662.2426406871193" y="10.242640687119284" type="curve"/>
      <point x="667.7749271077599" y="15.774927107759986" type="line"/>
      <point x="670.1112009340858" y="18.11120093408589"/>
      <point x="670.1190544669728" y="21.896620079135776"/>
      <point x="667.7924947514059" y="24.242567792332373" type="curve"/>
      <point x="552" y="141" type="line"/>
      <point x="537" y="127" type="line"/>
    </contour>
    <contour>
      <point x="59.757359312880716" y="10.242640687119284" type="line"/>
      <point x="62.10050506338834" y="7.899494936611664"/>
      <point x="65.89949493661167" y="7.899494936611664"/>
      <point x="68.24264068711929" y="10.242640687119284" type="curve"/>
      <point x="180.60853972899247" y="122.60853972899247" type="line"/>
      <point x="183.0090017589797" y="125.0090017589797"/>
      <point x="182.94157008264332" y="128.9212012561996"/>
      <point x="180.45980854403325" y="131.23751202556898" type="curve"/>
      <point x="170" y="141" type="line"/>
      <point x="54.20750524859409" y="24.242567792332373" type="line"/>
      <point x="51.880945533027216" y="21.896620079135776"/>
      <point x="51.888799065914114" y="18.11120093408589"/>
      <point x="54.225072892240014" y="15.774927107759986" type="curve"/>
    </contour>
    <contour>
      <point x="361" y="46" type="curve" smooth="yes"/>
      <point x="517" y="46"/>
      <point x="644" y="168"/>
      <point x="644" y="316" type="curve" smooth="yes"/>
      <point x="644" y="466"/>
      <point x="517" y="589"/>
      <point x="361" y="589" type="curve" smooth="yes"/>
      <point x="207" y="589"/>
      <point x="81" y="466"/>
      <point x="81" y="316" type="curve" smooth="yes"/>
      <point x="81" y="168"/>
      <point x="207" y="46"/>
    </contour>
    <contour>
      <point x="361" y="66" type="curve" smooth="yes"/>
      <point x="218" y="66"/>
      <point x="101" y="179"/>
      <point x="101" y="316" type="curve" smooth="yes"/>
      <point x="101" y="455"/>
      <point x="218" y="569"/>
      <point x="361" y="569" type="curve" smooth="yes"/>
      <point x="506" y="569"/>
      <point x="624" y="455"/>
      <point x="624" y="316" type="curve" smooth="yes"/>
      <point x="624" y="179"/>
      <point x="506" y="66"/>
    </contour>
  </outline>
</glyph>
<glyph name="yen" format="2">
  <advance width="670"/>
  <unicode hex="00A5"/>
  <outline>
    <contour>
      <point x="274.4408075478718" y="7.180417943492276" type="line"/>
      <point x="273.6956043798759" y="3.4666185488894277"/>
      <point x="276.53571910886694" y="0.0"/>
      <point x="280.32354615150547" y="0.0" type="curve"/>
      <point x="288.08434858533667" y="0.0" type="line"/>
      <point x="290.94300807677666" y="0.0"/>
      <point x="293.4046850292986" y="2.016790965684751"/>
      <point x="293.9670871889703" y="4.819582056507725" type="curve"/>
      <point x="354" y="304" type="line"/>
      <point x="347" y="289" type="line"/>
      <point x="740.4578673688434" y="692.2697842608345" type="line"/>
      <point x="743.2708635466823" y="695.1529299692929"/>
      <point x="741.2280859812992" y="700.0"/>
      <point x="737.2" y="700.0" type="curve"/>
      <point x="726.526407242631" y="700.0" type="line"/>
      <point x="724.9108252152672" y="700.0"/>
      <point x="723.3635107785243" y="699.3484756000641"/>
      <point x="722.2345339676162" y="698.1928300455913" type="curve"/>
      <point x="343" y="310" type="line"/>
      <point x="348" y="310" type="line"/>
      <point x="121.73737197059225" y="697.028179523987" type="line"/>
      <point x="120.66138185052309" y="698.8686889398948"/>
      <point x="118.68954562577788" y="700.0"/>
      <point x="116.55759120587776" y="700.0" type="curve"/>
      <point x="107.9" y="700.0" type="line"/>
      <point x="103.51525828222418" y="700.0"/>
      <point x="100.78619377546048" y="695.2402523002551"/>
      <point x="103.00127409553248" y="691.4561567534654" type="curve"/>
      <point x="338" y="290" type="line"/>
      <point x="334" y="304" type="line"/>
    </contour>
    <contour>
      <point x="65.62257394375821" y="164.30158274691195" type="line"/>
      <point x="64.78988906375567" y="160.5545007869005"/>
      <point x="67.64120866981239" y="157.0"/>
      <point x="71.47969630486192" y="157.0" type="curve"/>
      <point x="559.1869703618047" y="157.0" type="line"/>
      <point x="561.9991622520118" y="157.0"/>
      <point x="564.4340426486918" y="158.9531919191136"/>
      <point x="565.0440927229084" y="161.69841725308805" type="curve"/>
      <point x="566.3774260562418" y="167.69841725308805" type="line"/>
      <point x="567.2101109362444" y="171.4454992130995"/>
      <point x="564.3587913301876" y="175.0"/>
      <point x="560.5203036951381" y="175.0" type="curve"/>
      <point x="72.81302963819526" y="175.0" type="line"/>
      <point x="70.00083774798813" y="175.0"/>
      <point x="67.56595735130809" y="173.0468080808864"/>
      <point x="66.95590727709154" y="170.30158274691195" type="curve"/>
    </contour>
    <contour>
      <point x="93.62257394375821" y="302.30158274691195" type="line"/>
      <point x="92.78988906375567" y="298.55450078690046"/>
      <point x="95.64120866981239" y="295.0"/>
      <point x="99.47969630486192" y="295.0" type="curve"/>
      <point x="587.1869703618047" y="295.0" type="line"/>
      <point x="589.9991622520118" y="295.0"/>
      <point x="592.4340426486918" y="296.9531919191136"/>
      <point x="593.0440927229084" y="299.69841725308805" type="curve"/>
      <point x="594.3774260562418" y="305.69841725308805" type="line"/>
      <point x="595.2101109362444" y="309.44549921309954"/>
      <point x="592.3587913301876" y="313.0"/>
      <point x="588.5203036951381" y="313.0" type="curve"/>
      <point x="100.81302963819526" y="313.0" type="line"/>
      <point x="98.00083774798813" y="313.0"/>
      <point x="95.56595735130809" y="311.0468080808864"/>
      <point x="94.95590727709154" y="308.30158274691195" type="curve"/>
    </contour>
  </outline>
</glyph>
